<svg width="1455" height="400" viewBox="0 0 1455 400" fill="none" xmlns="http://www.w3.org/2000/svg">
<g clip-path="url(#clip0_158_160)">
<g clip-path="url(#clip1_158_160)">
<path d="M95.1084 63.3828C95.8904 63.1064 96.4732 62.7265 96.4198 62.5279C96.3664 62.3294 98.3464 62.0498 100.821 61.8563C103.313 61.729 105.392 61.5011 105.456 61.4205C105.52 61.34 104.745 61.1647 103.838 60.9779C102.768 60.82 101.542 60.2391 100.855 59.5977L99.6674 58.5248L102.152 58.8492C104.094 59.0616 104.904 59.3692 105.793 60.2868C106.8 61.3223 107.426 61.42 112.413 61.338C119.648 61.172 120.007 61.074 117.56 60.2576C115.576 59.5676 113.418 57.5916 113.929 56.9469C114.057 56.7858 115.277 57.0214 116.567 57.5216C118.37 58.1742 119.152 58.6948 119.732 59.7362C120.433 61.0682 120.565 61.0796 126.377 61.1988C129.644 61.2468 132.367 61.1828 132.431 61.1022C132.495 61.0216 131.301 60.4005 129.729 59.8111C127.61 58.937 126.678 58.3388 125.832 57.1018C124.124 54.7343 124.639 54.2623 127.733 55.4152C130.314 56.4158 132.537 58.3112 131.961 59.0365C131.801 59.2379 131.994 59.7932 132.299 60.2937C132.79 61.0042 134.109 61.2916 138.678 61.5608C141.817 61.7699 144.494 61.8526 144.59 61.7317C144.686 61.6109 143.59 61.0415 142.168 60.5297C140.728 59.9518 138.986 59.046 138.236 58.4851C136.785 57.3893 135.191 54.1701 136.008 54.0261C136.285 53.9425 138.038 54.5693 139.877 55.3542C143.205 56.743 143.304 56.7948 144.244 59.3322C145.247 61.7891 145.365 61.907 147.274 62.1597C153.627 63.0153 156.077 63.2074 156.268 62.9656C156.428 62.7642 155.18 61.9445 153.537 61.0905C150.102 59.3047 148.324 57.4695 147.833 55.165L147.519 53.5222L149.951 54.4451C153.887 55.8653 155.662 57.5279 156.562 60.5573L157.374 63.2559L164.161 64.4509C167.933 65.103 173.885 66.3759 177.483 67.3359C181.063 68.2297 184.131 68.9712 184.345 68.9682C184.754 68.8962 183.089 67.0063 180.948 65.0965C177.989 62.5337 176.804 60.0395 177.034 56.9147L177.235 54.0029L178.953 55.2943C182.388 57.8771 185.561 61.2339 185.903 62.6638C186.035 63.4723 185.985 65.0404 185.78 66.1856C185.028 69.437 185.01 69.3709 189.988 71.162C192.501 72.0705 195.925 73.3384 197.664 74.0716C199.385 74.7386 200.672 75.0662 200.633 74.7613C200.512 74.4707 199.199 72.9346 197.688 71.295C193.992 67.268 192.804 64.6011 193.257 61.1943C193.488 59.6636 193.818 58.1846 194.042 57.9026C194.841 56.8953 202.467 65.1853 203.043 67.6481C203.257 68.4421 202.956 70.5052 202.452 72.2921L201.518 75.5062L207.798 79.1125C211.254 81.1371 215.23 83.6593 216.631 84.7292C218.082 85.825 219.38 86.6706 219.543 86.6418C220.034 86.5553 218.337 83.1117 216.697 80.8363C214.331 77.6145 212.975 72.4128 213.848 69.4519C214.639 66.5054 216.085 63.4436 216.583 63.7024C216.782 63.806 218.301 65.7908 219.926 68.1727C224.714 74.9875 225.481 79.4269 222.347 83.3753C221.867 83.9797 221.27 85.2631 221.093 86.1954C220.763 87.6743 221.019 88.149 222.957 89.7827C225.162 91.612 228.317 94.9027 231.145 98.251L232.493 99.9194L232.641 98.4031C232.723 97.5917 232.498 94.6857 232.113 91.9812C231.646 89.2912 231.505 85.7464 231.75 84.1092C232.122 81.5139 232.485 80.7916 235.508 77.0705C237.299 74.8142 239.179 72.8888 239.669 72.8024C240.732 72.615 242.972 82.374 242.85 86.6927C242.716 90.4936 241.562 92.5684 237.958 95.2481C236.423 96.3851 234.636 98.0169 233.996 98.8228C232.909 100.193 232.948 100.498 234.353 102.537C236.299 105.313 240.326 112.643 242.34 117.105C243.134 118.941 243.97 120.457 244.134 120.428C244.624 120.341 244.466 115.934 243.807 112.688C243.03 108.528 242.936 104.837 243.489 101.482C243.868 99.2314 244.451 98.0545 246.689 95.2341C249.887 91.2051 252.861 88.2551 253.459 88.5657C253.658 88.6692 254.466 91.9922 255.303 95.8992C257.53 107.359 256.487 111.597 250.275 115.88C247.218 118.048 244.465 121.34 244.867 122.517C245.205 123.774 252.196 137.027 255.313 142.404C256.729 144.961 258.33 147.729 258.856 148.572C259.692 150.088 259.742 150.114 259.571 149C259.525 148.35 258.581 145.64 257.506 142.918C254.14 134.224 253.284 128.657 254.633 124.122C255.428 121.348 261.773 110.873 262.754 110.7C263.653 110.542 269.308 123.442 270.789 129.107C271.59 132.084 272.075 135.638 271.827 137.102C271.469 139.591 271.153 140.167 266.452 146.089C263.542 149.756 261.503 152.68 261.61 153.077C262.297 155.312 281.683 182.807 282.533 182.623C283.105 182.522 280.13 175.284 277.707 170.894C271.527 159.542 270.65 152.142 274.564 143.932C276.766 139.385 279.896 134.467 280.188 135.074C280.34 135.325 282.144 138.368 284.236 141.846C289.323 150.41 291.142 154.144 292.374 158.883C294.008 164.798 293.508 166.757 288.885 173.29C284.963 178.764 283.482 181.693 283.667 183.497C283.757 184.625 292.908 195.245 300.206 202.796C306.146 208.957 313.515 215.976 313.924 215.903C314.741 215.759 310.497 208.26 306.847 203.289C295.966 188.468 294.434 181.184 299.313 168.125C301.771 161.662 302.037 161.061 302.535 161.32C302.734 161.423 305.444 164.654 308.528 168.477C316.816 178.591 321.085 185.705 322.534 191.41C323.503 195.329 322.718 198.62 319.287 204.804C315.824 211.029 314.439 216.228 315.784 217.724C318.522 220.742 332.943 232.166 341.655 238.289C347.935 242.692 358.617 249.612 359.026 249.54C359.975 249.407 352.09 240.47 347.609 236.547C334.636 225.249 329.271 216.768 328.922 207.196C328.842 203.398 330.33 190.625 330.934 190.484C331.147 190.481 334.785 193.34 339.11 196.84C357.147 211.682 363.543 220.015 363.173 228.19C363.06 229.838 362.237 233.622 361.282 236.598C360.16 240.226 359.617 243.302 359.707 246.024L359.841 250.02L363.848 252.502C377.83 261.023 400.32 271.407 420.444 278.568C425.785 280.434 426.097 280.483 424.447 279.284C421.478 277 413.666 273.109 404.56 269.343C397.292 266.361 394.871 265.159 390.131 262.182C379.851 255.642 376.561 252.168 372.572 243.549C370.714 239.509 367.026 228.03 367.41 227.547C367.698 227.184 387.218 234.487 395.35 237.975C405.37 242.273 414.786 248.307 417.642 252.239C419.872 255.277 421.396 259.826 422.241 265.672C423.093 271.864 424.044 274.919 426.392 278.872L427.669 281.072L433.667 282.995C447.349 287.376 464.294 291.633 479.834 294.647L486.475 295.937L481.145 292.995C477.177 290.818 473.98 289.441 468.245 287.54C457.138 283.815 456.028 283.352 448.394 279.326C436.894 273.347 432.894 269.617 427.923 260.373C424.696 254.427 420.831 244.677 421.567 244.548C421.976 244.475 441.186 250.308 447.814 252.501C454.391 254.669 469.315 261.915 472.519 264.435C477.259 268.209 479.184 271.543 481.235 279.325C483.496 287.729 484.539 290.491 486.908 293.885L488.601 296.359L496.259 297.608C509.054 299.651 521.69 301.097 537.538 302.393C549.491 303.371 552.463 303.436 551.431 302.786C549.351 301.42 539.118 297.921 534.322 296.965C522.341 294.606 509.203 290.337 501.306 286.288C492.544 281.733 485.602 273.912 478.258 260.305C476.825 257.681 476.333 256.173 476.877 256.285C477.371 256.372 480.173 256.917 483.238 257.486C508.402 262.373 518.272 265 527.936 269.57C532.694 271.815 535.318 273.293 536.673 274.51C540.052 277.519 542.94 282.208 545.592 288.879C547.933 294.878 551.263 300.251 554.087 302.63C555.325 303.729 556.508 303.832 572.748 304.193C588.905 304.568 617.238 304.045 617.06 303.383C616.936 302.92 608.332 300.382 604.179 299.589C601.971 299.181 596.336 298.13 591.608 297.265C577.404 294.605 563.979 289.901 557.812 285.443C551.98 281.273 543.736 271.637 538.261 262.586L536.443 259.649L538.238 259.957C539.177 260.103 544.872 260.901 550.831 261.723C572.475 264.666 585.075 267.574 594.569 271.827C602.455 275.358 606.346 279.316 610.687 288.288C614.444 296.047 615.174 297.166 618.161 300.313L621.067 303.474L630 302.94C645.08 302.015 665.243 300.09 681.3 298.022L683.33 297.769L681.147 296.975C676.4 295.247 667.928 293.517 659.389 292.493C644.201 290.63 633.759 288.104 624.251 283.957C618.669 281.51 615.251 278.994 609.23 272.847C604.667 268.141 596.169 257.405 596.635 256.908C596.923 256.545 618.467 258.639 627.881 259.891C635.962 260.962 646.99 263.281 651.801 264.928C653.966 265.655 657.679 267.358 660.271 268.876C666.003 272.198 668.389 274.861 673.199 283.509C676.046 288.517 677.685 290.793 680.701 293.727L684.589 297.512L688.175 297.157C693.86 296.641 742.079 288.073 756.049 285.091C780.018 279.966 782.222 279.404 787.117 277.225C793.799 274.21 796.593 273.614 798.783 274.753C802.517 276.694 806.591 285.471 805.231 288.691C804.528 290.374 801.282 291.362 792.413 292.613C788.044 293.245 782.03 294.443 779.094 295.307C763.418 299.907 719.219 307.662 689.55 311.019L682.394 311.795L681.464 313.588C678.917 318.126 677.6 322.621 676.742 329.46C675.541 338.682 674.423 341.686 670.063 346.648C665.959 351.287 660.667 354.853 650.189 359.992C643.301 363.355 638.257 365.457 621.832 371.886L615.093 374.529L615.583 372.052C616.349 367.897 619.945 357.075 621.877 352.957C624.502 347.435 628.855 342.128 633.798 338.38C640.988 332.955 650.449 327.856 662.296 323.031C667.08 321.079 676.879 315.644 680.255 313.073C681.854 311.856 683.297 311.809 663.721 313.527C655.431 314.226 644.844 314.982 640.155 315.22C634.777 315.44 631.339 315.872 630.987 316.316C628.891 318.868 626.963 324.753 625.829 331.676C624.049 343.044 621.95 347.018 615.229 352.119C606.586 358.667 597.175 362.994 570.204 372.876C566.425 374.27 563.198 375.324 563.016 375.286C562.568 375.053 564.201 369.186 566.342 363.299C571.654 348.986 577.116 342.548 590.543 334.845C596.51 331.402 599.631 329.951 608.567 326.401C612.669 324.777 617.094 322.923 618.459 322.266C620.701 321.213 628.758 316.466 629.142 315.982C629.238 315.861 627.269 315.862 624.777 315.989C622.235 316.091 613.507 316.277 605.384 316.323L590.567 316.474L587.028 321.464C584.414 325.113 583.103 327.562 582.048 330.485C581.242 332.741 579.69 336.203 578.6 338.197C574.106 346.163 565.505 351.595 546.965 358.12C540.596 360.386 516.325 367.574 516.236 367.243C516.076 366.648 520.555 358.789 523.931 353.827C529.213 345.931 533.488 341.608 539.825 337.788C548.056 332.733 556.793 329.08 571.125 324.579C574.125 323.634 579.659 321.446 583.462 319.667C589.231 316.917 590.073 316.388 588.662 316.394C583.919 316.432 565.817 315.672 556.531 315.056L545.93 314.326L542.501 319.088C539.79 322.858 538.718 324.919 537.308 328.91C535.948 332.927 534.826 334.961 532.115 338.731C529.006 343.091 528.363 343.724 524.784 346.018C516.77 351.243 505.015 355.775 483.464 361.93C475.747 364.121 471.599 365.095 471.606 364.643C471.63 364.258 472.842 361.757 474.294 359.041C477.658 352.764 486.942 340.801 490.354 338.363C497.824 333.027 509.87 327.508 522.151 323.818C530.532 321.232 535.189 319.441 540.954 316.519L545.208 314.349L535.143 313.385C529.601 312.837 521.868 311.947 517.951 311.39L510.84 310.425L508.676 312.089C505.865 314.213 503.783 316.659 498.045 324.775C493.661 330.919 493.035 331.618 490.043 333.705C482.164 339.114 467.977 342.723 439.009 346.615L431.775 347.578L435.389 343.025C441.273 335.612 448.483 328.831 453.818 325.742C456.671 324.096 464.207 321.07 469.443 319.523C471.693 318.815 479.388 317.181 486.484 315.861C499.121 313.496 510.627 310.428 508.224 310.089C501.209 309.004 486.579 306.349 479.013 304.806L469.585 302.864L466.866 304.695C464.989 305.996 462.275 308.796 457.723 313.999C450.513 322.374 447.93 324.389 441.514 326.802C437.345 328.334 424.203 330.892 416.244 331.706C407.613 332.569 387.73 333.786 387.641 333.455C387.566 333.018 394.737 325.932 398.589 322.585C402.523 319.223 408.704 314.98 411.906 313.515C418.78 310.259 431.342 307.455 444.922 306.206C453.816 305.366 467.555 303.118 467.427 302.482C467.341 302.324 465.112 301.677 462.325 301.025C456.27 299.527 447.57 297.11 438.269 294.21C434.354 293.028 430.873 292.186 430.482 292.324C428.104 293.194 421.935 297.955 418.08 301.926C412.828 307.392 410.777 309.001 406.15 311.376C401.636 313.696 390.289 315.765 379.255 316.289C371.466 316.622 347.533 316.473 347.476 316.102C347.419 315.731 356.425 308.461 359.804 306.063C364.591 302.689 370.676 299.365 374.049 298.216C382.214 295.46 395.537 293.735 409.764 293.619C417.888 293.574 430.23 292.022 428.736 291.246C428.239 290.987 426.567 290.346 424.932 289.837C420.751 288.46 405.874 282.661 400.441 280.292C397.824 279.159 395.31 278.25 394.77 278.311C394.311 278.357 393.981 278.242 394.141 278.04C394.3 277.839 390.649 275.884 385.923 273.597C372.642 267.205 360.766 260.461 348.466 252.302C338.797 245.966 339.807 246.378 335.779 246.845C333.749 247.099 329.7 248.124 326.75 249.094C316.645 252.435 311.807 252.594 302.495 249.973C296.056 248.162 289.947 245.669 279.056 240.519L270.171 236.298L272.961 235.529C277.628 234.256 289.8 232.388 293.802 232.306C300.578 232.187 310.313 234.629 320.663 239.043C329.474 242.827 338.153 245.803 337.179 244.727C336.809 244.307 333.704 241.839 330.319 239.282C326.965 236.685 322.125 232.86 319.636 230.768C315.091 226.926 315.041 226.9 312.673 226.693C311.376 226.645 306.577 227.109 302.045 227.77C290.019 229.543 285.72 228.845 274.918 223.228C269.243 220.278 252.505 209.47 252.174 208.558C251.982 208.003 259.514 207.195 265.487 207.113C278.103 206.899 284.798 209.185 305.198 220.872C314.269 226.1 314.394 226.563 304.105 216.49C301.256 213.7 297.348 209.676 295.367 207.565L291.739 203.63L287.906 203.231C285.784 202.981 281.632 202.985 278.717 203.291C267.938 204.29 262.541 202.85 252.933 196.261C247.67 192.614 233.861 181.394 234.213 180.95C234.533 180.547 248.724 181.096 252.56 181.667C260.645 182.911 268.208 186.672 278.667 194.671C283.805 198.651 290.48 203.089 290.736 202.767C290.8 202.686 289.889 201.53 288.712 200.178C287.553 198.892 283.661 194.137 280.087 189.604L273.613 181.457L270.282 180.693C268.5 180.279 264.341 179.938 261.042 179.93C257.775 179.882 253.896 179.63 252.414 179.371C249.018 178.688 243.294 175.711 239.055 172.369C235.701 169.772 222.947 157.222 222.648 156.27C222.47 155.608 235.482 157.023 240.051 158.089C242.856 158.808 244.694 159.593 249.363 162.304C254.946 165.548 256.514 166.762 264.331 174.013C266.223 175.794 268.912 177.989 270.277 178.926L272.823 180.591L270.284 176.88C268.91 174.801 265.417 169.456 262.582 164.965C256.605 155.483 257.089 155.849 246.907 154.767C241.347 154.153 240.885 154.026 236.635 151.76C233.232 149.934 231.533 148.709 229.484 146.505C226.23 143.163 217.124 131.599 217.412 131.237C217.764 130.793 226.367 132.535 230.993 133.972C234.876 135.194 236.021 135.789 238.837 137.822C242.471 140.509 247.33 145.197 249.393 148.091C250.929 150.142 255.93 155.36 256.154 155.078C256.218 154.997 254.798 152.267 252.991 149.051C251.233 145.861 248.255 140.044 246.32 136.192C244.466 132.325 242.69 129.069 242.392 128.913C241.496 128.447 238.179 128.374 233.213 128.694C227.262 129.015 224.524 128.389 219.72 125.493C215.848 123.195 205.183 114.748 205.534 114.305C205.79 113.982 214.841 114.362 218.052 114.836C222.233 115.416 227.324 117.95 233.327 122.436C236.261 124.588 239.525 126.854 240.521 127.372L242.363 128.329L240.036 123.021C238.726 120.064 237.018 116.103 236.207 114.201C235.395 112.299 234.125 109.647 233.342 108.329L231.912 105.878L228.887 106.411C227.17 106.714 224.099 107.394 222.059 107.927C219.219 108.67 217.448 108.774 214.878 108.291C211.55 107.7 202.714 104.301 197.388 101.532L194.7 100.134L199.996 99.1316C208.858 97.5351 212.744 98.1325 223.706 102.75C226.984 104.113 230.127 105.292 230.686 105.297C233.544 105.417 220.249 90.5373 214.012 86.6117C213.13 86.0394 212.212 85.3347 211.992 84.9924C211.295 83.833 197.914 76.592 192.253 74.332C184.872 71.4051 177.85 69.1772 176.954 69.5084C176.563 69.6466 175.554 70.8294 174.73 72.2222C173.412 74.3259 172.847 74.772 170.537 75.7336C169.072 76.3383 165.823 77.1534 163.321 77.5598L158.724 78.3006L161.151 75.8629C164.318 72.6711 165.892 71.8392 171.217 70.6235C175.12 69.693 176.634 69.1143 175.987 68.7778C175.887 68.7261 173.05 68.0478 169.719 67.2834C162.213 65.4873 151.295 63.7381 150.286 64.124C149.863 64.3025 148.8 65.2868 147.969 66.3343C146.498 68.1877 146.075 68.3662 141.465 69.2134L136.495 70.1585L137.71 68.6275C139.213 66.7339 141.456 65.6802 145.867 64.7294C147.73 64.3319 149.116 63.9143 148.867 63.7849C148.618 63.6555 145.87 63.3081 142.745 62.9925L137.053 62.3669L135.103 64.8246C133.28 67.1211 132.907 67.3255 129.007 68.4286C126.772 69.0305 124.696 69.4311 124.447 69.3017C123.75 68.9393 126.01 66.3578 127.989 65.2812C128.913 64.7371 131.146 63.9625 132.877 63.5534C134.64 63.1041 136.108 62.6721 136.172 62.5915C136.236 62.5109 133.523 62.2959 130.189 62.1559L124.109 61.8411L122.702 63.6139C121.519 65.1046 120.773 65.5134 118.338 66.0118L115.462 66.6226L116.564 65.1463C117.331 64.1793 118.628 63.4309 120.683 62.7916L123.765 61.8326L121.287 61.8534C119.957 61.8451 117.216 61.843 115.229 61.7774C111.749 61.7324 111.635 61.7871 110.374 63.4649C109.464 64.6994 108.608 65.3356 107.626 65.5085C106.318 65.739 106.269 65.7131 107.292 64.4238C107.867 63.6986 108.852 62.9013 109.452 62.5876C110.071 62.3399 110.458 62.0291 110.309 61.9515C110.16 61.8738 107.223 61.9408 103.846 62.1202C98.3857 62.3548 97.5361 62.5391 96.6727 63.627C96.1291 64.3119 94.7857 65.2071 93.7265 65.5671L91.7715 66.2581L92.7308 65.0494C93.2745 64.3645 94.3584 63.619 95.1084 63.3828Z" fill="url(#paint0_linear_158_160)"/>
<path d="M165.252 55.4564C169.711 58.3439 170.721 59.5521 170.783 62.4868C170.862 63.8938 170.756 65.0907 170.56 65.1598C170.184 65.1916 165.667 61.933 164.245 60.6242C163.274 59.721 161.964 55.9666 162.098 54.5567C162.208 53.5324 162.34 53.5439 165.252 55.4564Z" fill="url(#paint1_linear_158_160)"/>
<path d="M152.379 69.9929C154.145 68.9192 156.701 67.9143 160.959 66.7133L162.704 66.1978L161.262 68.6352C159.614 71.4208 157.392 72.7134 151.79 74.0126L148.378 74.8566L149.07 73.4523C149.951 71.6336 150.225 71.3775 152.379 69.9929Z" fill="url(#paint2_linear_158_160)"/>
<path d="M175.17 78.3132C177.032 77.1186 180.309 76.0905 185.979 74.8833L190.472 73.9182L188.17 76.8191C186.923 78.3904 185.153 80.0885 184.179 80.6067C182.249 81.7092 175.439 83.2907 172.307 83.4268L170.223 83.4821L171.968 81.3726C172.895 80.2042 174.327 78.8428 175.17 78.3132Z" fill="url(#paint3_linear_158_160)"/>
<path d="M184.129 88.3781C189.45 85.3958 194.355 84.5313 202.592 85.2281C206.044 85.4861 209.511 85.6376 210.264 85.5741C212.131 85.3491 212.095 86.0138 210.162 86.9437C209.284 87.341 207.859 88.2506 207.052 88.9126C204.632 90.8985 201.572 92.0963 198.426 92.3389C195.493 92.5785 180.383 91.3255 180.209 90.8364C180.205 90.6637 181.972 89.59 184.129 88.3781Z" fill="url(#paint4_linear_158_160)"/>
<path d="M295.508 263.472C312.633 255.984 321.989 255.27 343.534 259.756C348.892 260.891 355.793 262.031 358.769 262.269C361.794 262.533 364.247 262.897 364.333 263.056C364.336 263.228 362.708 263.862 360.686 264.461C358.582 265.074 354.355 267.032 351.143 268.776C342.545 273.584 338.827 274.724 331.884 274.7C327.174 274.699 318.453 273.637 311.908 272.226C307.044 271.177 290.266 267.064 289.669 266.754C289.022 266.417 289.832 265.928 295.508 263.472Z" fill="url(#paint5_linear_158_160)"/>
<path d="M322.733 289.066C332.936 282.589 337.898 280.502 346.156 279.047C354.054 277.689 361.961 277.474 373.86 278.253C378.264 278.551 384.535 278.624 387.781 278.434C390.977 278.217 393.618 278.167 393.654 278.3C393.739 278.458 391.923 279.506 389.616 280.64C387.359 281.8 383.976 284.025 382.043 285.752C372.274 294.162 366.196 296.238 351.396 296.455C345.932 296.517 316.791 294.514 315.746 293.971C315.298 293.738 315.767 293.413 322.733 289.066Z" fill="url(#paint6_linear_158_160)"/>
</g>
<g clip-path="url(#clip2_158_160)">
<path d="M1354.04 63.3828C1353.26 63.1064 1352.67 62.7264 1352.73 62.5279C1352.78 62.3294 1350.8 62.0497 1348.33 61.8562C1345.83 61.7289 1343.75 61.5011 1343.69 61.4205C1343.63 61.3399 1344.4 61.1646 1345.31 60.9778C1346.38 60.8199 1347.6 60.239 1348.29 59.5976L1349.48 58.5247L1346.99 58.8492C1345.05 59.0615 1344.24 59.3692 1343.35 60.2867C1342.35 61.3223 1341.72 61.4199 1336.73 61.3379C1329.5 61.1719 1329.14 61.074 1331.59 60.2575C1333.57 59.5676 1335.73 57.5915 1335.22 56.9469C1335.09 56.7857 1333.87 57.0213 1332.58 57.5216C1330.78 58.1742 1329.99 58.6947 1329.41 59.7361C1328.71 61.0681 1328.58 61.0796 1322.77 61.1988C1319.5 61.2468 1316.78 61.1827 1316.71 61.1021C1316.65 61.0215 1317.85 60.4004 1319.42 59.811C1321.54 58.9369 1322.47 58.3387 1323.31 57.1018C1325.02 54.7343 1324.51 54.2623 1321.41 55.4152C1318.83 56.4157 1316.61 58.3112 1317.18 59.0364C1317.34 59.2378 1317.15 59.7931 1316.85 60.2937C1316.36 61.0042 1315.04 61.2915 1310.47 61.5607C1307.33 61.7699 1304.65 61.8525 1304.56 61.7317C1304.46 61.6108 1305.56 61.0414 1306.98 60.5297C1308.42 59.9518 1310.16 59.0459 1310.91 58.4851C1312.36 57.3893 1313.96 54.1701 1313.14 54.026C1312.86 53.9425 1311.11 54.5692 1309.27 55.3542C1305.94 56.7429 1305.84 56.7947 1304.9 59.3322C1303.9 61.789 1303.78 61.907 1301.87 62.1596C1295.52 63.0152 1293.07 63.2073 1292.88 62.9656C1292.72 62.7641 1293.97 61.9445 1295.61 61.0904C1299.04 59.3046 1300.82 57.4694 1301.31 55.1649L1301.63 53.5221L1299.19 54.445C1295.26 55.8653 1293.48 57.5278 1292.58 60.5573L1291.77 63.2559L1284.98 64.4509C1281.21 65.1029 1275.26 66.3759 1271.66 67.3359C1268.08 68.2297 1265.01 68.9711 1264.8 68.9682C1264.39 68.8961 1266.06 67.0063 1268.2 65.0964C1271.16 62.5336 1272.34 60.0394 1272.11 56.9147L1271.91 54.0028L1270.19 55.2942C1266.76 57.877 1263.58 61.2338 1263.24 62.6637C1263.11 63.4722 1263.16 65.0403 1263.37 66.1855C1264.12 69.437 1264.14 69.3708 1259.16 71.1619C1256.64 72.0704 1253.22 73.3383 1251.48 74.0715C1249.76 74.7385 1248.47 75.0662 1248.51 74.7612C1248.63 74.4706 1249.95 72.9346 1251.46 71.295C1255.15 67.2679 1256.34 64.601 1255.89 61.1943C1255.66 59.6635 1255.33 58.1845 1255.1 57.9025C1254.3 56.8952 1246.68 65.1853 1246.1 67.648C1245.89 68.4421 1246.19 70.5051 1246.69 72.292L1247.63 75.5062L1241.35 79.1124C1237.89 81.137 1233.92 83.6592 1232.51 84.7292C1231.06 85.825 1229.77 86.6705 1229.6 86.6417C1229.11 86.5552 1230.81 83.1117 1232.45 80.8363C1234.81 77.6144 1236.17 72.4128 1235.3 69.4519C1234.51 66.5054 1233.06 63.4436 1232.56 63.7024C1232.36 63.8059 1230.85 65.7908 1229.22 68.1727C1224.43 74.9875 1223.67 79.4268 1226.8 83.3753C1227.28 83.9796 1227.88 85.263 1228.05 86.1953C1228.38 87.6743 1228.13 88.149 1226.19 89.7827C1223.98 91.612 1220.83 94.9026 1218 98.2509L1216.65 99.9193L1216.5 98.403C1216.42 97.5916 1216.65 94.6857 1217.03 91.9812C1217.5 89.2911 1217.64 85.7464 1217.4 84.1092C1217.02 81.5138 1216.66 80.7915 1213.64 77.0704C1211.85 74.8142 1209.97 72.8888 1209.48 72.8023C1208.41 72.615 1206.17 82.3739 1206.3 86.6927C1206.43 90.4935 1207.58 92.5683 1211.19 95.2481C1212.72 96.385 1214.51 98.0169 1215.15 98.8227C1216.24 100.193 1216.2 100.498 1214.79 102.537C1212.85 105.313 1208.82 112.643 1206.81 117.105C1206.01 118.941 1205.18 120.457 1205.01 120.428C1204.52 120.341 1204.68 115.934 1205.34 112.688C1206.12 108.528 1206.21 104.836 1205.66 101.481C1205.28 99.2313 1204.69 98.0544 1202.46 95.2341C1199.26 91.2051 1196.28 88.2551 1195.69 88.5656C1195.49 88.6691 1194.68 91.9921 1193.84 95.8992C1191.62 107.359 1192.66 111.597 1198.87 115.88C1201.93 118.047 1204.68 121.34 1204.28 122.516C1203.94 123.774 1196.95 137.027 1193.83 142.404C1192.42 144.961 1190.82 147.729 1190.29 148.572C1189.45 150.088 1189.4 150.114 1189.57 149C1189.62 148.35 1190.56 145.64 1191.64 142.918C1195.01 134.224 1195.86 128.657 1194.51 124.122C1193.72 121.348 1187.37 110.873 1186.39 110.7C1185.49 110.542 1179.84 123.442 1178.36 129.107C1177.56 132.084 1177.07 135.638 1177.32 137.102C1177.68 139.591 1177.99 140.167 1182.69 146.089C1185.6 149.756 1187.64 152.68 1187.54 153.077C1186.85 155.312 1167.46 182.807 1166.61 182.623C1166.04 182.522 1169.02 175.284 1171.44 170.894C1177.62 159.542 1178.5 152.142 1174.58 143.932C1172.38 139.385 1169.25 134.467 1168.96 135.074C1168.81 135.325 1167 138.368 1164.91 141.846C1159.82 150.41 1158 154.144 1156.77 158.883C1155.14 164.798 1155.64 166.757 1160.26 173.29C1164.18 178.764 1165.66 181.693 1165.48 183.497C1165.39 184.625 1156.24 195.245 1148.94 202.796C1143 208.957 1135.63 215.975 1135.22 215.903C1134.4 215.759 1138.65 208.26 1142.3 203.289C1153.18 188.468 1154.71 181.184 1149.83 168.125C1147.38 161.662 1147.11 161.061 1146.61 161.32C1146.41 161.423 1143.7 164.654 1140.62 168.477C1132.33 178.591 1128.06 185.705 1126.61 191.41C1125.64 195.328 1126.43 198.62 1129.86 204.804C1133.32 211.029 1134.71 216.228 1133.36 217.724C1130.62 220.742 1116.2 232.166 1107.49 238.289C1101.21 242.692 1090.53 249.612 1090.12 249.54C1089.17 249.407 1097.06 240.47 1101.54 236.547C1114.51 225.249 1119.87 216.768 1120.22 207.196C1120.3 203.398 1118.82 190.625 1118.21 190.484C1118 190.481 1114.36 193.34 1110.04 196.84C1092 211.682 1085.6 220.015 1085.97 228.19C1086.09 229.838 1086.91 233.622 1087.86 236.597C1088.99 240.226 1089.53 243.302 1089.44 246.024L1089.31 250.02L1085.3 252.502C1071.32 261.023 1048.83 271.407 1028.7 278.568C1023.36 280.434 1023.05 280.483 1024.7 279.283C1027.67 277 1035.48 273.109 1044.59 269.342C1051.85 266.361 1054.27 265.159 1059.01 262.182C1069.3 255.642 1072.59 252.168 1076.57 243.549C1078.43 239.509 1082.12 228.03 1081.74 227.547C1081.45 227.184 1061.93 234.487 1053.8 237.975C1043.78 242.273 1034.36 248.307 1031.5 252.239C1029.27 255.277 1027.75 259.826 1026.9 265.672C1026.05 271.863 1025.1 274.919 1022.75 278.871L1021.48 281.072L1015.48 282.995C1001.8 287.376 984.852 291.633 969.312 294.647L962.671 295.937L968.001 292.995C971.969 290.818 975.166 289.44 980.901 287.54C992.008 283.815 993.118 283.352 1000.75 279.326C1012.25 273.347 1016.25 269.616 1021.22 260.373C1024.45 254.427 1028.31 244.677 1027.58 244.547C1027.17 244.475 1007.96 250.308 1001.33 252.501C994.755 254.669 979.831 261.915 976.627 264.435C971.886 268.208 969.962 271.543 967.911 279.325C965.65 287.729 964.607 290.491 962.238 293.885L960.545 296.359L952.887 297.608C940.091 299.651 927.456 301.097 911.607 302.393C899.655 303.371 896.683 303.436 897.714 302.786C899.795 301.42 910.027 297.921 914.824 296.965C926.805 294.606 939.942 290.337 947.84 286.288C956.601 281.733 963.544 273.912 970.887 260.304C972.321 257.681 972.812 256.173 972.268 256.285C971.774 256.372 968.973 256.917 965.908 257.486C940.744 262.373 930.874 265 921.209 269.569C916.452 271.815 913.828 273.293 912.473 274.51C909.094 277.519 906.205 282.208 903.554 288.879C901.212 294.878 897.883 300.251 895.059 302.63C893.821 303.729 892.637 303.832 876.398 304.193C860.24 304.568 831.907 304.045 832.085 303.383C832.21 302.92 840.814 300.382 844.967 299.589C847.175 299.181 852.81 298.13 857.538 297.265C871.742 294.605 885.167 289.901 891.334 285.443C897.166 281.273 905.41 271.637 910.885 262.586L912.703 259.649L910.908 259.957C909.969 260.103 904.274 260.901 898.315 261.723C876.671 264.666 864.071 267.574 854.577 271.827C846.691 275.358 842.8 279.316 838.459 288.288C834.701 296.047 833.972 297.166 830.985 300.313L828.079 303.474L819.145 302.94C804.065 302.015 783.902 300.09 767.845 298.022L765.816 297.768L767.999 296.975C772.745 295.247 781.218 293.517 789.757 292.493C804.945 290.63 815.387 288.103 824.895 283.957C830.477 281.51 833.895 278.994 839.916 272.847C844.479 268.141 852.977 257.405 852.511 256.908C852.223 256.545 830.679 258.639 821.265 259.891C813.184 260.962 802.155 263.281 797.345 264.928C795.179 265.655 791.467 267.358 788.875 268.876C783.143 272.198 780.756 274.861 775.946 283.509C773.1 288.517 771.46 290.793 768.444 293.727L764.557 297.512L760.97 297.157C755.286 296.641 707.066 288.073 693.096 285.091C669.127 279.966 666.923 279.404 662.029 277.225C655.347 274.21 652.553 273.614 650.363 274.753C646.629 276.694 642.555 285.471 643.915 288.691C644.618 290.374 647.863 291.362 656.733 292.613C661.101 293.245 667.116 294.443 670.052 295.307C685.728 299.907 729.927 307.662 759.596 311.019L766.752 311.795L767.682 313.588C770.229 318.126 771.546 322.621 772.403 329.46C773.605 338.682 774.723 341.686 779.083 346.648C783.187 351.287 788.479 354.853 798.957 359.992C805.845 363.355 810.889 365.457 827.313 371.886L834.053 374.529L833.563 372.052C832.797 367.897 829.2 357.075 827.268 352.957C824.644 347.435 820.291 342.128 815.348 338.38C808.158 332.955 798.697 327.856 786.85 323.031C782.066 321.079 772.267 315.644 768.891 313.073C767.292 311.856 765.849 311.809 785.425 313.527C793.715 314.225 804.302 314.982 808.991 315.22C814.369 315.44 817.807 315.872 818.158 316.316C820.255 318.868 822.183 324.753 823.317 331.676C825.097 343.044 827.196 347.018 833.916 352.118C842.559 358.667 851.971 362.994 878.942 372.876C882.721 374.27 885.948 375.324 886.129 375.286C886.577 375.053 884.945 369.186 882.804 363.299C877.491 348.986 872.03 342.548 858.603 334.845C852.635 331.402 849.515 329.951 840.579 326.401C836.477 324.777 832.052 322.923 830.687 322.266C828.444 321.213 820.387 316.466 820.004 315.982C819.908 315.861 821.877 315.862 824.369 315.989C826.911 316.091 835.638 316.277 843.761 316.323L858.579 316.474L862.117 321.464C864.732 325.113 866.043 327.562 867.097 330.485C867.903 332.741 869.456 336.203 870.546 338.197C875.04 346.163 883.64 351.594 902.18 358.119C908.55 360.386 932.82 367.574 932.909 367.243C933.07 366.648 928.59 358.789 925.215 353.827C919.932 345.931 915.657 341.608 909.321 337.788C901.089 332.733 892.353 329.08 878.021 324.579C875.021 323.634 869.487 321.446 865.684 319.667C859.915 316.917 859.073 316.387 860.484 316.394C865.226 316.432 883.329 315.672 892.615 315.056L903.216 314.325L906.645 319.088C909.355 322.858 910.428 324.919 911.838 328.91C913.198 332.927 914.32 334.961 917.031 338.731C920.14 343.091 920.783 343.724 924.362 346.018C932.376 351.243 944.13 355.775 965.682 361.93C973.399 364.121 977.547 365.095 977.54 364.643C977.515 364.258 976.304 361.757 974.851 359.041C971.487 352.764 962.203 340.801 958.792 338.363C951.321 333.027 939.276 327.508 926.995 323.818C918.613 321.232 913.957 319.441 908.192 316.519L903.938 314.349L914.002 313.385C919.545 312.837 927.277 311.947 931.195 311.39L938.306 310.425L940.47 312.089C943.281 314.213 945.363 316.659 951.101 324.775C955.485 330.919 956.111 331.618 959.103 333.705C966.982 339.114 981.168 342.723 1010.14 346.615L1017.37 347.578L1013.76 343.025C1007.87 335.612 1000.66 328.831 995.328 325.742C992.474 324.096 984.939 321.07 979.703 319.523C977.453 318.815 969.757 317.181 962.662 315.861C950.025 313.496 938.519 310.428 940.922 310.089C947.937 309.004 962.567 306.349 970.132 304.806L979.561 302.864L982.28 304.695C984.156 305.996 986.871 308.796 991.423 313.999C998.632 322.374 1001.22 324.389 1007.63 326.802C1011.8 328.334 1024.94 330.892 1032.9 331.706C1041.53 332.569 1061.42 333.786 1061.5 333.455C1061.58 333.018 1054.41 325.932 1050.56 322.584C1046.62 319.223 1040.44 314.98 1037.24 313.515C1030.37 310.258 1017.8 307.455 1004.22 306.206C995.33 305.366 981.591 303.118 981.719 302.482C981.804 302.324 984.034 301.677 986.821 301.025C992.876 299.527 1001.58 297.11 1010.88 294.21C1014.79 293.028 1018.27 292.186 1018.66 292.324C1021.04 293.194 1027.21 297.955 1031.07 301.926C1036.32 307.392 1038.37 309 1043 311.376C1047.51 313.696 1058.86 315.765 1069.89 316.289C1077.68 316.622 1101.61 316.473 1101.67 316.102C1101.73 315.731 1092.72 308.461 1089.34 306.063C1084.55 302.689 1078.47 299.364 1075.1 298.215C1066.93 295.46 1053.61 293.735 1039.38 293.619C1031.26 293.574 1018.92 292.022 1020.41 291.246C1020.91 290.987 1022.58 290.346 1024.21 289.837C1028.4 288.46 1043.27 282.661 1048.7 280.292C1051.32 279.159 1053.84 278.25 1054.38 278.311C1054.83 278.357 1055.17 278.242 1055.01 278.04C1054.85 277.839 1058.5 275.883 1063.22 273.597C1076.5 267.205 1088.38 260.461 1100.68 252.302C1110.35 245.966 1109.34 246.377 1113.37 246.845C1115.4 247.098 1119.45 248.124 1122.4 249.094C1132.5 252.435 1137.34 252.594 1146.65 249.973C1153.09 248.162 1159.2 245.669 1170.09 240.519L1178.98 236.298L1176.18 235.529C1171.52 234.256 1159.35 232.388 1155.34 232.306C1148.57 232.187 1138.83 234.629 1128.48 239.043C1119.67 242.827 1110.99 245.802 1111.97 244.727C1112.34 244.307 1115.44 241.839 1118.83 239.282C1122.18 236.685 1127.02 232.859 1129.51 230.768C1134.05 226.926 1134.1 226.9 1136.47 226.693C1137.77 226.645 1142.57 227.109 1147.1 227.77C1159.13 229.542 1163.43 228.845 1174.23 223.228C1179.9 220.278 1196.64 209.47 1196.97 208.558C1197.16 208.003 1189.63 207.195 1183.66 207.113C1171.04 206.899 1164.35 209.185 1143.95 220.872C1134.88 226.1 1134.75 226.563 1145.04 216.49C1147.89 213.7 1151.8 209.676 1153.78 207.565L1157.41 203.63L1161.24 203.231C1163.36 202.981 1167.51 202.985 1170.43 203.291C1181.21 204.289 1186.6 202.85 1196.21 196.26C1201.48 192.614 1215.28 181.393 1214.93 180.95C1214.61 180.547 1200.42 181.096 1196.59 181.667C1188.5 182.911 1180.94 186.672 1170.48 194.671C1165.34 198.651 1158.67 203.089 1158.41 202.767C1158.35 202.686 1159.26 201.53 1160.43 200.178C1161.59 198.892 1165.48 194.137 1169.06 189.604L1175.53 181.457L1178.86 180.693C1180.65 180.279 1184.8 179.938 1188.1 179.93C1191.37 179.882 1195.25 179.63 1196.73 179.371C1200.13 178.687 1205.85 175.711 1210.09 172.369C1213.44 169.772 1226.2 157.222 1226.5 156.27C1226.68 155.608 1213.66 157.023 1209.09 158.089C1206.29 158.808 1204.45 159.593 1199.78 162.304C1194.2 165.548 1192.63 166.762 1184.81 174.013C1182.92 175.794 1180.23 177.988 1178.87 178.926L1176.32 180.591L1178.86 176.88C1180.24 174.8 1183.73 169.456 1186.56 164.965C1192.54 155.483 1192.06 155.849 1202.24 154.767C1207.8 154.153 1208.26 154.026 1212.51 151.76C1215.91 149.934 1217.61 148.709 1219.66 146.505C1222.92 143.163 1232.02 131.599 1231.73 131.236C1231.38 130.793 1222.78 132.534 1218.15 133.972C1214.27 135.194 1213.13 135.789 1210.31 137.822C1206.67 140.508 1201.82 145.197 1199.75 148.091C1198.22 150.142 1193.22 155.36 1192.99 155.078C1192.93 154.997 1194.35 152.267 1196.16 149.051C1197.91 145.861 1200.89 140.044 1202.83 136.192C1204.68 132.325 1206.46 129.069 1206.75 128.913C1207.65 128.447 1210.97 128.374 1215.93 128.694C1221.88 129.015 1224.62 128.389 1229.43 125.493C1233.3 123.195 1243.96 114.748 1243.61 114.304C1243.36 113.982 1234.3 114.362 1231.09 114.836C1226.91 115.416 1221.82 117.95 1215.82 122.436C1212.88 124.588 1209.62 126.854 1208.62 127.372L1206.78 128.329L1209.11 123.021C1210.42 120.064 1212.13 116.102 1212.94 114.201C1213.75 112.299 1215.02 109.647 1215.8 108.329L1217.23 105.878L1220.26 106.411C1221.98 106.714 1225.05 107.394 1227.09 107.927C1229.93 108.67 1231.7 108.774 1234.27 108.291C1237.6 107.7 1246.43 104.301 1251.76 101.532L1254.45 100.134L1249.15 99.1315C1240.29 97.535 1236.4 98.1324 1225.44 102.75C1222.16 104.113 1219.02 105.292 1218.46 105.297C1215.6 105.417 1228.9 90.5373 1235.13 86.6116C1236.02 86.0393 1236.93 85.3346 1237.15 84.9923C1237.85 83.833 1251.23 76.5919 1256.89 74.332C1264.27 71.4051 1271.3 69.1772 1272.19 69.5083C1272.58 69.6465 1273.59 70.8294 1274.42 72.2222C1275.73 74.3258 1276.3 74.7719 1278.61 75.7336C1280.07 76.3382 1283.32 77.1534 1285.83 77.5598L1290.42 78.3005L1287.99 75.8628C1284.83 72.6711 1283.25 71.8391 1277.93 70.6234C1274.03 69.693 1272.51 69.1142 1273.16 68.7778C1273.26 68.726 1276.1 68.0478 1279.43 67.2834C1286.93 65.4872 1297.85 63.7381 1298.86 64.1239C1299.28 64.3024 1300.35 65.2867 1301.18 66.3343C1302.65 68.1876 1303.07 68.3661 1307.68 69.2134L1312.65 70.1585L1311.44 68.6275C1309.93 66.7338 1307.69 65.6801 1303.28 64.7294C1301.42 64.3318 1300.03 63.9142 1300.28 63.7848C1300.53 63.6554 1303.28 63.308 1306.4 62.9924L1312.09 62.3668L1314.04 64.8245C1315.87 67.121 1316.24 67.3254 1320.14 68.4285C1322.37 69.0305 1324.45 69.431 1324.7 69.3016C1325.4 68.9393 1323.14 66.3578 1321.16 65.2811C1320.23 64.737 1318 63.9624 1316.27 63.5534C1314.51 63.104 1313.04 62.672 1312.97 62.5915C1312.91 62.5109 1315.62 62.2959 1318.96 62.1558L1325.04 61.841L1326.44 63.6138C1327.63 65.1045 1328.37 65.5133 1330.81 66.0118L1333.68 66.6226L1332.58 65.1462C1331.81 64.1793 1330.52 63.4308 1328.46 62.7915L1325.38 61.8325L1327.86 61.8533C1329.19 61.8451 1331.93 61.843 1333.92 61.7774C1337.4 61.7323 1337.51 61.787 1338.77 63.4648C1339.68 64.6994 1340.54 65.3355 1341.52 65.5084C1342.83 65.739 1342.88 65.7131 1341.85 64.4238C1341.28 63.6986 1340.29 62.9013 1339.69 62.5875C1339.07 62.3399 1338.69 62.029 1338.84 61.9514C1338.99 61.8737 1341.92 61.9408 1345.3 62.1201C1350.76 62.3547 1351.61 62.5391 1352.47 63.6269C1353.02 64.3118 1354.36 65.207 1355.42 65.567L1357.37 66.2581L1356.41 65.0494C1355.87 64.3644 1354.79 63.6189 1354.04 63.3828Z" fill="url(#paint7_linear_158_160)"/>
<path d="M1283.89 55.4564C1279.43 58.3439 1278.42 59.552 1278.36 62.4868C1278.28 63.8937 1278.39 65.0907 1278.59 65.1598C1278.96 65.1915 1283.48 61.9329 1284.9 60.6242C1285.87 59.721 1287.18 55.9666 1287.05 54.5567C1286.94 53.5324 1286.81 53.5438 1283.89 55.4564Z" fill="url(#paint8_linear_158_160)"/>
<path d="M1296.77 69.9928C1295 68.9191 1292.45 67.9143 1288.19 66.7133L1286.44 66.1977L1287.88 68.6352C1289.53 71.4208 1291.75 72.7133 1297.36 74.0125L1300.77 74.8565L1300.08 73.4522C1299.19 71.6336 1298.92 71.3774 1296.77 69.9928Z" fill="url(#paint9_linear_158_160)"/>
<path d="M1273.98 78.3131C1272.11 77.1185 1268.84 76.0904 1263.17 74.8833L1258.67 73.9181L1260.98 76.819C1262.22 78.3904 1263.99 80.0884 1264.97 80.6066C1266.9 81.7091 1273.71 83.2907 1276.84 83.4268L1278.92 83.482L1277.18 81.3725C1276.25 80.2041 1274.82 78.8428 1273.98 78.3131Z" fill="url(#paint10_linear_158_160)"/>
<path d="M1265.02 88.3781C1259.7 85.3957 1254.79 84.5312 1246.55 85.228C1243.1 85.486 1239.64 85.6375 1238.88 85.574C1237.02 85.3491 1237.05 86.0137 1238.98 86.9436C1239.86 87.3409 1241.29 88.2505 1242.09 88.9125C1244.51 90.8985 1247.57 92.0963 1250.72 92.3388C1253.65 92.5785 1268.76 91.3254 1268.94 90.8363C1268.94 90.6637 1267.17 89.59 1265.02 88.3781Z" fill="url(#paint11_linear_158_160)"/>
<path d="M1153.64 263.472C1136.51 255.984 1127.16 255.27 1105.61 259.756C1100.25 260.891 1093.35 262.031 1090.38 262.269C1087.35 262.533 1084.9 262.897 1084.81 263.056C1084.81 263.228 1086.44 263.862 1088.46 264.461C1090.56 265.074 1094.79 267.032 1098 268.776C1106.6 273.584 1110.32 274.724 1117.26 274.7C1121.97 274.699 1130.69 273.637 1137.24 272.226C1142.1 271.177 1158.88 267.064 1159.48 266.754C1160.12 266.417 1159.31 265.928 1153.64 263.472Z" fill="url(#paint12_linear_158_160)"/>
<path d="M1126.41 289.066C1116.21 282.589 1111.25 280.502 1102.99 279.047C1095.09 277.689 1087.19 277.474 1075.29 278.253C1070.88 278.551 1064.61 278.624 1061.36 278.434C1058.17 278.217 1055.53 278.167 1055.49 278.3C1055.41 278.458 1057.22 279.506 1059.53 280.64C1061.79 281.8 1065.17 284.025 1067.1 285.752C1076.87 294.162 1082.95 296.238 1097.75 296.455C1103.21 296.517 1132.35 294.514 1133.4 293.971C1133.85 293.738 1133.38 293.413 1126.41 289.066Z" fill="url(#paint13_linear_158_160)"/>
</g>
</g>
<defs>
<linearGradient id="paint0_linear_158_160" x1="733.714" y1="378.918" x2="187.62" y2="-54.5063" gradientUnits="userSpaceOnUse">
<stop stop-color="#FFC10D"/>
<stop offset="0.723958" stop-color="#FFC10D"/>
<stop offset="1" stop-color="#FFC10D"/>
</linearGradient>
<linearGradient id="paint1_linear_158_160" x1="172.575" y1="62.6402" x2="162.017" y2="54.26" gradientUnits="userSpaceOnUse">
<stop stop-color="#FFC10D"/>
<stop offset="0.723958" stop-color="#FFC10D"/>
<stop offset="1" stop-color="#FFC10D"/>
</linearGradient>
<linearGradient id="paint2_linear_158_160" x1="158.619" y1="72.1275" x2="153.192" y2="67.8199" gradientUnits="userSpaceOnUse">
<stop stop-color="#FFC10D"/>
<stop offset="0.723958" stop-color="#FFC10D"/>
<stop offset="1" stop-color="#FFC10D"/>
</linearGradient>
<linearGradient id="paint3_linear_158_160" x1="184.828" y1="81.0294" x2="177.062" y2="74.8657" gradientUnits="userSpaceOnUse">
<stop stop-color="#FFC10D"/>
<stop offset="0.723958" stop-color="#FFC10D"/>
<stop offset="1" stop-color="#FFC10D"/>
</linearGradient>
<linearGradient id="paint4_linear_158_160" x1="205.721" y1="93.3686" x2="188.827" y2="79.96" gradientUnits="userSpaceOnUse">
<stop stop-color="#FFC10D"/>
<stop offset="0.723958" stop-color="#FFC10D"/>
<stop offset="1" stop-color="#FFC10D"/>
</linearGradient>
<linearGradient id="paint5_linear_158_160" x1="352.4" y1="278.105" x2="308.134" y2="242.972" gradientUnits="userSpaceOnUse">
<stop stop-color="#FFC10D"/>
<stop offset="0.723958" stop-color="#FFC10D"/>
<stop offset="1" stop-color="#FFC10D"/>
</linearGradient>
<linearGradient id="paint6_linear_158_160" x1="377.895" y1="298.191" x2="337.538" y2="266.161" gradientUnits="userSpaceOnUse">
<stop stop-color="#FFC10D"/>
<stop offset="0.723958" stop-color="#FFC10D"/>
<stop offset="1" stop-color="#FFC10D"/>
</linearGradient>
<linearGradient id="paint7_linear_158_160" x1="715.432" y1="378.918" x2="1261.53" y2="-54.5064" gradientUnits="userSpaceOnUse">
<stop stop-color="#FFC10D"/>
<stop offset="0.723958" stop-color="#FFC10D"/>
<stop offset="1" stop-color="#FFC10D"/>
</linearGradient>
<linearGradient id="paint8_linear_158_160" x1="1276.57" y1="62.6401" x2="1287.13" y2="54.2599" gradientUnits="userSpaceOnUse">
<stop stop-color="#FFC10D"/>
<stop offset="0.723958" stop-color="#FFC10D"/>
<stop offset="1" stop-color="#FFC10D"/>
</linearGradient>
<linearGradient id="paint9_linear_158_160" x1="1290.53" y1="72.1275" x2="1295.95" y2="67.8199" gradientUnits="userSpaceOnUse">
<stop stop-color="#FFC10D"/>
<stop offset="0.723958" stop-color="#FFC10D"/>
<stop offset="1" stop-color="#FFC10D"/>
</linearGradient>
<linearGradient id="paint10_linear_158_160" x1="1264.32" y1="81.0294" x2="1272.08" y2="74.8657" gradientUnits="userSpaceOnUse">
<stop stop-color="#FFC10D"/>
<stop offset="0.723958" stop-color="#FFC10D"/>
<stop offset="1" stop-color="#FFC10D"/>
</linearGradient>
<linearGradient id="paint11_linear_158_160" x1="1243.42" y1="93.3685" x2="1260.32" y2="79.9599" gradientUnits="userSpaceOnUse">
<stop stop-color="#FFC10D"/>
<stop offset="0.723958" stop-color="#FFC10D"/>
<stop offset="1" stop-color="#FFC10D"/>
</linearGradient>
<linearGradient id="paint12_linear_158_160" x1="1096.75" y1="278.105" x2="1141.01" y2="242.972" gradientUnits="userSpaceOnUse">
<stop stop-color="#FFC10D"/>
<stop offset="0.723958" stop-color="#FFC10D"/>
<stop offset="1" stop-color="#FFC10D"/>
</linearGradient>
<linearGradient id="paint13_linear_158_160" x1="1071.25" y1="298.191" x2="1111.61" y2="266.161" gradientUnits="userSpaceOnUse">
<stop stop-color="#FFC10D"/>
<stop offset="0.723958" stop-color="#FFC10D"/>
<stop offset="1" stop-color="#FFC10D"/>
</linearGradient>
<clipPath id="clip0_158_160">
<rect width="1455" height="400" fill="white"/>
</clipPath>
<clipPath id="clip1_158_160">
<rect width="329.203" height="718.168" fill="white" transform="matrix(-0.621672 0.783277 0.887254 0.46128 198.802 -80.9999)"/>
</clipPath>
<clipPath id="clip2_158_160">
<rect width="329.203" height="718.168" fill="white" transform="matrix(0.621672 0.783277 -0.887254 0.46128 1250.34 -81)"/>
</clipPath>
</defs>
</svg>
