<svg width="1455" height="400" viewBox="0 0 1455 400" fill="none" xmlns="http://www.w3.org/2000/svg">
<g clip-path="url(#clip0_132_130)">
<g clip-path="url(#clip1_132_130)">
<path d="M1354.04 63.3828C1353.26 63.1064 1352.67 62.7264 1352.73 62.5279C1352.78 62.3294 1350.8 62.0497 1348.33 61.8563C1345.83 61.7289 1343.75 61.5011 1343.69 61.4205C1343.63 61.3399 1344.4 61.1646 1345.31 60.9778C1346.38 60.8199 1347.6 60.239 1348.29 59.5976L1349.48 58.5247L1346.99 58.8492C1345.05 59.0615 1344.24 59.3692 1343.35 60.2868C1342.35 61.3223 1341.72 61.4199 1336.73 61.338C1329.5 61.1719 1329.14 61.074 1331.59 60.2575C1333.57 59.5676 1335.73 57.5915 1335.22 56.9469C1335.09 56.7857 1333.87 57.0213 1332.58 57.5216C1330.78 58.1742 1329.99 58.6948 1329.41 59.7361C1328.71 61.0681 1328.58 61.0796 1322.77 61.1988C1319.5 61.2468 1316.78 61.1827 1316.71 61.1021C1316.65 61.0215 1317.85 60.4004 1319.42 59.811C1321.54 58.9369 1322.47 58.3387 1323.31 57.1018C1325.02 54.7343 1324.51 54.2623 1321.41 55.4152C1318.83 56.4157 1316.61 58.3112 1317.18 59.0364C1317.34 59.2379 1317.15 59.7931 1316.85 60.2937C1316.36 61.0042 1315.04 61.2915 1310.47 61.5607C1307.33 61.7699 1304.65 61.8526 1304.56 61.7317C1304.46 61.6108 1305.56 61.0414 1306.98 60.5297C1308.42 59.9518 1310.16 59.0459 1310.91 58.4851C1312.36 57.3893 1313.96 54.1701 1313.14 54.026C1312.86 53.9425 1311.11 54.5692 1309.27 55.3542C1305.94 56.743 1305.84 56.7947 1304.9 59.3322C1303.9 61.789 1303.78 61.907 1301.87 62.1596C1295.52 63.0152 1293.07 63.2073 1292.88 62.9656C1292.72 62.7641 1293.97 61.9445 1295.61 61.0904C1299.04 59.3046 1300.82 57.4694 1301.31 55.1649L1301.63 53.5221L1299.19 54.445C1295.26 55.8653 1293.48 57.5278 1292.58 60.5573L1291.77 63.2559L1284.98 64.4509C1281.21 65.103 1275.26 66.3759 1271.66 67.3359C1268.08 68.2297 1265.01 68.9711 1264.8 68.9682C1264.39 68.8961 1266.06 67.0063 1268.2 65.0964C1271.16 62.5336 1272.34 60.0394 1272.11 56.9147L1271.91 54.0029L1270.19 55.2942C1266.76 57.877 1263.58 61.2339 1263.24 62.6637C1263.11 63.4722 1263.16 65.0403 1263.37 66.1855C1264.12 69.437 1264.14 69.3708 1259.16 71.1619C1256.64 72.0704 1253.22 73.3383 1251.48 74.0715C1249.76 74.7385 1248.47 75.0662 1248.51 74.7612C1248.63 74.4706 1249.95 72.9346 1251.46 71.295C1255.15 67.2679 1256.34 64.601 1255.89 61.1943C1255.66 59.6635 1255.33 58.1845 1255.1 57.9025C1254.3 56.8953 1246.68 65.1853 1246.1 67.648C1245.89 68.4421 1246.19 70.5051 1246.69 72.292L1247.63 75.5062L1241.35 79.1124C1237.89 81.137 1233.92 83.6592 1232.51 84.7292C1231.06 85.825 1229.77 86.6705 1229.6 86.6417C1229.11 86.5553 1230.81 83.1117 1232.45 80.8363C1234.81 77.6144 1236.17 72.4128 1235.3 69.4519C1234.51 66.5054 1233.06 63.4436 1232.56 63.7024C1232.36 63.8059 1230.85 65.7908 1229.22 68.1727C1224.43 74.9875 1223.67 79.4268 1226.8 83.3753C1227.28 83.9796 1227.88 85.263 1228.05 86.1953C1228.38 87.6743 1228.13 88.149 1226.19 89.7827C1223.98 91.612 1220.83 94.9026 1218 98.2509L1216.65 99.9193L1216.5 98.403C1216.42 97.5916 1216.65 94.6857 1217.03 91.9812C1217.5 89.2911 1217.64 85.7464 1217.4 84.1092C1217.02 81.5138 1216.66 80.7915 1213.64 77.0704C1211.85 74.8142 1209.97 72.8888 1209.48 72.8023C1208.41 72.615 1206.17 82.3739 1206.3 86.6927C1206.43 90.4935 1207.58 92.5683 1211.19 95.2481C1212.72 96.385 1214.51 98.0169 1215.15 98.8227C1216.24 100.193 1216.2 100.498 1214.79 102.537C1212.85 105.313 1208.82 112.643 1206.81 117.105C1206.01 118.941 1205.18 120.457 1205.01 120.428C1204.52 120.341 1204.68 115.934 1205.34 112.688C1206.12 108.528 1206.21 104.836 1205.66 101.481C1205.28 99.2314 1204.69 98.0544 1202.46 95.2341C1199.26 91.2051 1196.28 88.2551 1195.69 88.5656C1195.49 88.6692 1194.68 91.9921 1193.84 95.8992C1191.62 107.359 1192.66 111.597 1198.87 115.88C1201.93 118.047 1204.68 121.34 1204.28 122.516C1203.94 123.774 1196.95 137.027 1193.83 142.404C1192.42 144.961 1190.82 147.729 1190.29 148.572C1189.45 150.088 1189.4 150.114 1189.57 149C1189.62 148.35 1190.56 145.64 1191.64 142.918C1195.01 134.224 1195.86 128.657 1194.51 124.122C1193.72 121.348 1187.37 110.873 1186.39 110.7C1185.49 110.542 1179.84 123.442 1178.36 129.107C1177.56 132.084 1177.07 135.638 1177.32 137.102C1177.68 139.591 1177.99 140.167 1182.69 146.089C1185.6 149.756 1187.64 152.68 1187.54 153.077C1186.85 155.312 1167.46 182.807 1166.61 182.623C1166.04 182.522 1169.02 175.284 1171.44 170.894C1177.62 159.542 1178.5 152.142 1174.58 143.932C1172.38 139.385 1169.25 134.467 1168.96 135.074C1168.81 135.325 1167 138.368 1164.91 141.846C1159.82 150.41 1158 154.144 1156.77 158.883C1155.14 164.798 1155.64 166.757 1160.26 173.29C1164.18 178.764 1165.66 181.693 1165.48 183.497C1165.39 184.625 1156.24 195.245 1148.94 202.796C1143 208.957 1135.63 215.975 1135.22 215.903C1134.4 215.759 1138.65 208.26 1142.3 203.289C1153.18 188.468 1154.71 181.184 1149.83 168.125C1147.38 161.662 1147.11 161.061 1146.61 161.32C1146.41 161.423 1143.7 164.654 1140.62 168.477C1132.33 178.591 1128.06 185.705 1126.61 191.41C1125.64 195.329 1126.43 198.62 1129.86 204.804C1133.32 211.029 1134.71 216.228 1133.36 217.724C1130.62 220.742 1116.2 232.166 1107.49 238.289C1101.21 242.692 1090.53 249.612 1090.12 249.54C1089.17 249.407 1097.06 240.47 1101.54 236.547C1114.51 225.249 1119.87 216.768 1120.22 207.196C1120.3 203.398 1118.82 190.625 1118.21 190.484C1118 190.481 1114.36 193.34 1110.04 196.84C1092 211.682 1085.6 220.015 1085.97 228.19C1086.09 229.838 1086.91 233.622 1087.86 236.597C1088.99 240.226 1089.53 243.302 1089.44 246.024L1089.31 250.02L1085.3 252.502C1071.32 261.023 1048.83 271.407 1028.7 278.568C1023.36 280.434 1023.05 280.483 1024.7 279.283C1027.67 277 1035.48 273.109 1044.59 269.343C1051.85 266.361 1054.27 265.159 1059.01 262.182C1069.3 255.642 1072.59 252.168 1076.57 243.549C1078.43 239.509 1082.12 228.03 1081.74 227.547C1081.45 227.184 1061.93 234.487 1053.8 237.975C1043.78 242.273 1034.36 248.307 1031.5 252.239C1029.27 255.277 1027.75 259.826 1026.9 265.672C1026.05 271.863 1025.1 274.919 1022.75 278.871L1021.48 281.072L1015.48 282.995C1001.8 287.376 984.852 291.633 969.312 294.647L962.671 295.937L968.001 292.995C971.969 290.818 975.166 289.44 980.901 287.54C992.008 283.815 993.118 283.352 1000.75 279.326C1012.25 273.347 1016.25 269.616 1021.22 260.373C1024.45 254.427 1028.31 244.677 1027.58 244.547C1027.17 244.475 1007.96 250.308 1001.33 252.501C994.755 254.669 979.831 261.915 976.627 264.435C971.886 268.208 969.962 271.543 967.911 279.325C965.65 287.729 964.607 290.491 962.238 293.885L960.545 296.359L952.887 297.608C940.091 299.651 927.456 301.097 911.607 302.393C899.655 303.371 896.683 303.436 897.714 302.786C899.795 301.42 910.027 297.921 914.824 296.965C926.805 294.606 939.942 290.337 947.84 286.288C956.601 281.733 963.544 273.912 970.887 260.304C972.321 257.681 972.812 256.173 972.268 256.285C971.774 256.372 968.973 256.917 965.908 257.486C940.744 262.373 930.874 265 921.209 269.569C916.452 271.815 913.828 273.293 912.473 274.51C909.094 277.519 906.205 282.208 903.554 288.879C901.212 294.878 897.883 300.251 895.059 302.63C893.821 303.729 892.637 303.832 876.398 304.193C860.24 304.568 831.907 304.045 832.085 303.383C832.21 302.92 840.814 300.382 844.967 299.589C847.175 299.181 852.81 298.13 857.538 297.265C871.742 294.605 885.167 289.901 891.334 285.443C897.166 281.273 905.41 271.637 910.885 262.586L912.703 259.649L910.908 259.957C909.969 260.103 904.274 260.901 898.315 261.723C876.671 264.666 864.071 267.574 854.577 271.827C846.691 275.358 842.8 279.316 838.459 288.288C834.701 296.047 833.972 297.166 830.985 300.313L828.079 303.474L819.145 302.94C804.065 302.015 783.902 300.09 767.845 298.022L765.816 297.768L767.999 296.975C772.745 295.247 781.218 293.517 789.757 292.493C804.945 290.63 815.387 288.103 824.895 283.957C830.477 281.51 833.895 278.994 839.916 272.847C844.479 268.141 852.977 257.405 852.511 256.908C852.223 256.545 830.679 258.639 821.265 259.891C813.184 260.962 802.155 263.281 797.345 264.928C795.179 265.655 791.467 267.358 788.875 268.876C783.143 272.198 780.756 274.861 775.946 283.509C773.1 288.517 771.46 290.793 768.444 293.727L764.557 297.512L760.97 297.157C755.286 296.641 707.066 288.073 693.096 285.091C669.127 279.966 666.923 279.404 662.029 277.225C655.347 274.21 652.553 273.614 650.363 274.753C646.629 276.694 642.555 285.471 643.915 288.691C644.618 290.374 647.863 291.362 656.733 292.613C661.101 293.245 667.116 294.443 670.052 295.307C685.728 299.907 729.927 307.662 759.596 311.019L766.752 311.795L767.682 313.588C770.229 318.126 771.546 322.621 772.403 329.46C773.605 338.682 774.723 341.686 779.083 346.648C783.187 351.287 788.479 354.853 798.957 359.992C805.845 363.355 810.889 365.457 827.313 371.886L834.053 374.529L833.563 372.052C832.797 367.897 829.2 357.075 827.268 352.957C824.644 347.435 820.291 342.128 815.348 338.38C808.158 332.955 798.697 327.856 786.85 323.031C782.066 321.079 772.267 315.644 768.891 313.073C767.292 311.856 765.849 311.809 785.425 313.527C793.715 314.225 804.302 314.982 808.991 315.22C814.369 315.44 817.807 315.872 818.158 316.316C820.255 318.868 822.183 324.753 823.317 331.676C825.097 343.044 827.196 347.018 833.916 352.118C842.559 358.667 851.971 362.994 878.942 372.876C882.721 374.27 885.948 375.324 886.129 375.286C886.577 375.053 884.945 369.186 882.804 363.299C877.491 348.986 872.03 342.548 858.603 334.845C852.635 331.402 849.515 329.951 840.579 326.401C836.477 324.777 832.052 322.923 830.687 322.266C828.444 321.213 820.387 316.466 820.004 315.982C819.908 315.861 821.877 315.862 824.369 315.989C826.911 316.091 835.638 316.277 843.761 316.323L858.579 316.474L862.117 321.464C864.732 325.113 866.043 327.562 867.097 330.485C867.903 332.741 869.456 336.203 870.546 338.197C875.04 346.163 883.64 351.594 902.18 358.12C908.55 360.386 932.82 367.574 932.909 367.243C933.07 366.648 928.59 358.789 925.215 353.827C919.932 345.931 915.657 341.608 909.321 337.788C901.089 332.733 892.353 329.08 878.021 324.579C875.021 323.634 869.487 321.446 865.684 319.667C859.915 316.917 859.073 316.387 860.484 316.394C865.226 316.432 883.329 315.672 892.615 315.056L903.216 314.325L906.645 319.088C909.355 322.858 910.428 324.919 911.838 328.91C913.198 332.927 914.32 334.961 917.031 338.731C920.14 343.091 920.783 343.724 924.362 346.018C932.376 351.243 944.13 355.775 965.682 361.93C973.399 364.121 977.547 365.095 977.54 364.643C977.515 364.258 976.304 361.757 974.851 359.041C971.487 352.764 962.203 340.801 958.792 338.363C951.321 333.027 939.276 327.508 926.995 323.818C918.613 321.232 913.957 319.441 908.192 316.519L903.938 314.349L914.002 313.385C919.545 312.837 927.277 311.947 931.195 311.39L938.306 310.425L940.47 312.089C943.281 314.213 945.363 316.659 951.101 324.775C955.485 330.919 956.111 331.618 959.103 333.705C966.982 339.114 981.168 342.723 1010.14 346.615L1017.37 347.578L1013.76 343.025C1007.87 335.612 1000.66 328.831 995.328 325.742C992.474 324.096 984.939 321.07 979.703 319.523C977.453 318.815 969.757 317.181 962.662 315.861C950.025 313.496 938.519 310.428 940.922 310.089C947.937 309.004 962.567 306.349 970.132 304.806L979.561 302.864L982.28 304.695C984.156 305.996 986.871 308.796 991.423 313.999C998.632 322.374 1001.22 324.389 1007.63 326.802C1011.8 328.334 1024.94 330.892 1032.9 331.706C1041.53 332.569 1061.42 333.786 1061.5 333.455C1061.58 333.018 1054.41 325.932 1050.56 322.584C1046.62 319.223 1040.44 314.98 1037.24 313.515C1030.37 310.258 1017.8 307.455 1004.22 306.206C995.33 305.366 981.591 303.118 981.719 302.482C981.804 302.324 984.034 301.677 986.821 301.025C992.876 299.527 1001.58 297.11 1010.88 294.21C1014.79 293.028 1018.27 292.186 1018.66 292.324C1021.04 293.194 1027.21 297.955 1031.07 301.926C1036.32 307.392 1038.37 309 1043 311.376C1047.51 313.696 1058.86 315.765 1069.89 316.289C1077.68 316.622 1101.61 316.473 1101.67 316.102C1101.73 315.731 1092.72 308.461 1089.34 306.063C1084.55 302.689 1078.47 299.364 1075.1 298.215C1066.93 295.46 1053.61 293.735 1039.38 293.619C1031.26 293.574 1018.92 292.022 1020.41 291.246C1020.91 290.987 1022.58 290.346 1024.21 289.837C1028.4 288.46 1043.27 282.661 1048.7 280.292C1051.32 279.159 1053.84 278.25 1054.38 278.311C1054.83 278.357 1055.17 278.242 1055.01 278.04C1054.85 277.839 1058.5 275.883 1063.22 273.597C1076.5 267.205 1088.38 260.461 1100.68 252.302C1110.35 245.966 1109.34 246.377 1113.37 246.845C1115.4 247.098 1119.45 248.124 1122.4 249.094C1132.5 252.435 1137.34 252.594 1146.65 249.973C1153.09 248.162 1159.2 245.669 1170.09 240.519L1178.98 236.298L1176.18 235.529C1171.52 234.256 1159.35 232.388 1155.34 232.306C1148.57 232.187 1138.83 234.629 1128.48 239.043C1119.67 242.827 1110.99 245.802 1111.97 244.727C1112.34 244.307 1115.44 241.839 1118.83 239.282C1122.18 236.685 1127.02 232.859 1129.51 230.768C1134.05 226.926 1134.1 226.9 1136.47 226.693C1137.77 226.645 1142.57 227.109 1147.1 227.77C1159.13 229.542 1163.43 228.845 1174.23 223.228C1179.9 220.278 1196.64 209.47 1196.97 208.558C1197.16 208.003 1189.63 207.195 1183.66 207.113C1171.04 206.899 1164.35 209.185 1143.95 220.872C1134.88 226.1 1134.75 226.563 1145.04 216.49C1147.89 213.7 1151.8 209.676 1153.78 207.565L1157.41 203.63L1161.24 203.231C1163.36 202.981 1167.51 202.985 1170.43 203.291C1181.21 204.289 1186.6 202.85 1196.21 196.261C1201.48 192.614 1215.28 181.393 1214.93 180.95C1214.61 180.547 1200.42 181.096 1196.59 181.667C1188.5 182.911 1180.94 186.672 1170.48 194.671C1165.34 198.651 1158.67 203.089 1158.41 202.767C1158.35 202.686 1159.26 201.53 1160.43 200.178C1161.59 198.892 1165.48 194.137 1169.06 189.604L1175.53 181.457L1178.86 180.693C1180.65 180.279 1184.8 179.938 1188.1 179.93C1191.37 179.882 1195.25 179.63 1196.73 179.371C1200.13 178.687 1205.85 175.711 1210.09 172.369C1213.44 169.772 1226.2 157.222 1226.5 156.27C1226.68 155.608 1213.66 157.023 1209.09 158.089C1206.29 158.808 1204.45 159.593 1199.78 162.304C1194.2 165.548 1192.63 166.762 1184.81 174.013C1182.92 175.794 1180.23 177.988 1178.87 178.926L1176.32 180.591L1178.86 176.88C1180.24 174.8 1183.73 169.456 1186.56 164.965C1192.54 155.483 1192.06 155.849 1202.24 154.767C1207.8 154.153 1208.26 154.026 1212.51 151.76C1215.91 149.934 1217.61 148.709 1219.66 146.505C1222.92 143.163 1232.02 131.599 1231.73 131.237C1231.38 130.793 1222.78 132.534 1218.15 133.972C1214.27 135.194 1213.13 135.789 1210.31 137.822C1206.67 140.508 1201.82 145.197 1199.75 148.091C1198.22 150.142 1193.22 155.36 1192.99 155.078C1192.93 154.997 1194.35 152.267 1196.16 149.051C1197.91 145.861 1200.89 140.044 1202.83 136.192C1204.68 132.325 1206.46 129.069 1206.75 128.913C1207.65 128.447 1210.97 128.374 1215.93 128.694C1221.88 129.015 1224.62 128.389 1229.43 125.493C1233.3 123.195 1243.96 114.748 1243.61 114.304C1243.36 113.982 1234.3 114.362 1231.09 114.836C1226.91 115.416 1221.82 117.95 1215.82 122.436C1212.88 124.588 1209.62 126.854 1208.62 127.372L1206.78 128.329L1209.11 123.021C1210.42 120.064 1212.13 116.102 1212.94 114.201C1213.75 112.299 1215.02 109.647 1215.8 108.329L1217.23 105.878L1220.26 106.411C1221.98 106.714 1225.05 107.394 1227.09 107.927C1229.93 108.67 1231.7 108.774 1234.27 108.291C1237.6 107.7 1246.43 104.301 1251.76 101.532L1254.45 100.134L1249.15 99.1315C1240.29 97.535 1236.4 98.1324 1225.44 102.75C1222.16 104.113 1219.02 105.292 1218.46 105.297C1215.6 105.417 1228.9 90.5373 1235.13 86.6116C1236.02 86.0393 1236.93 85.3346 1237.15 84.9923C1237.85 83.833 1251.23 76.5919 1256.89 74.332C1264.27 71.4051 1271.3 69.1772 1272.19 69.5083C1272.58 69.6465 1273.59 70.8294 1274.42 72.2222C1275.73 74.3258 1276.3 74.7719 1278.61 75.7336C1280.07 76.3382 1283.32 77.1534 1285.83 77.5598L1290.42 78.3005L1287.99 75.8628C1284.83 72.6711 1283.25 71.8391 1277.93 70.6234C1274.03 69.693 1272.51 69.1142 1273.16 68.7778C1273.26 68.726 1276.1 68.0478 1279.43 67.2834C1286.93 65.4872 1297.85 63.7381 1298.86 64.1239C1299.28 64.3024 1300.35 65.2867 1301.18 66.3343C1302.65 68.1876 1303.07 68.3662 1307.68 69.2134L1312.65 70.1585L1311.44 68.6275C1309.93 66.7338 1307.69 65.6801 1303.28 64.7294C1301.42 64.3318 1300.03 63.9142 1300.28 63.7848C1300.53 63.6554 1303.28 63.308 1306.4 62.9924L1312.09 62.3668L1314.04 64.8245C1315.87 67.121 1316.24 67.3254 1320.14 68.4285C1322.37 69.0305 1324.45 69.431 1324.7 69.3016C1325.4 68.9393 1323.14 66.3578 1321.16 65.2811C1320.23 64.7371 1318 63.9625 1316.27 63.5534C1314.51 63.1041 1313.04 62.6721 1312.97 62.5915C1312.91 62.5109 1315.62 62.2959 1318.96 62.1558L1325.04 61.841L1326.44 63.6138C1327.63 65.1046 1328.37 65.5133 1330.81 66.0118L1333.68 66.6226L1332.58 65.1462C1331.81 64.1793 1330.52 63.4308 1328.46 62.7915L1325.38 61.8325L1327.86 61.8533C1329.19 61.8451 1331.93 61.843 1333.92 61.7774C1337.4 61.7323 1337.51 61.787 1338.77 63.4648C1339.68 64.6994 1340.54 65.3355 1341.52 65.5084C1342.83 65.739 1342.88 65.7131 1341.85 64.4238C1341.28 63.6986 1340.29 62.9013 1339.69 62.5875C1339.07 62.3399 1338.69 62.029 1338.84 61.9514C1338.99 61.8738 1341.92 61.9408 1345.3 62.1201C1350.76 62.3547 1351.61 62.5391 1352.47 63.6269C1353.02 64.3119 1354.36 65.2071 1355.42 65.567L1357.37 66.2581L1356.41 65.0494C1355.87 64.3644 1354.79 63.6189 1354.04 63.3828Z" fill="url(#paint0_linear_132_130)"/>
<path d="M1283.89 55.4564C1279.43 58.3439 1278.42 59.552 1278.36 62.4868C1278.28 63.8937 1278.39 65.0907 1278.59 65.1598C1278.96 65.1915 1283.48 61.9329 1284.9 60.6242C1285.87 59.721 1287.18 55.9666 1287.05 54.5567C1286.94 53.5324 1286.81 53.5438 1283.89 55.4564Z" fill="url(#paint1_linear_132_130)"/>
<path d="M1296.77 69.9928C1295 68.9191 1292.45 67.9143 1288.19 66.7133L1286.44 66.1977L1287.88 68.6352C1289.53 71.4208 1291.75 72.7133 1297.36 74.0125L1300.77 74.8565L1300.08 73.4522C1299.19 71.6336 1298.92 71.3774 1296.77 69.9928Z" fill="url(#paint2_linear_132_130)"/>
<path d="M1273.98 78.3131C1272.11 77.1185 1268.84 76.0904 1263.17 74.8833L1258.67 73.9181L1260.98 76.819C1262.22 78.3904 1263.99 80.0884 1264.97 80.6066C1266.9 81.7091 1273.71 83.2907 1276.84 83.4268L1278.92 83.482L1277.18 81.3725C1276.25 80.2041 1274.82 78.8428 1273.98 78.3131Z" fill="url(#paint3_linear_132_130)"/>
<path d="M1265.02 88.3781C1259.7 85.3957 1254.79 84.5312 1246.55 85.228C1243.1 85.486 1239.64 85.6375 1238.88 85.574C1237.02 85.3491 1237.05 86.0137 1238.98 86.9436C1239.86 87.3409 1241.29 88.2505 1242.09 88.9125C1244.51 90.8985 1247.57 92.0963 1250.72 92.3388C1253.65 92.5785 1268.76 91.3254 1268.94 90.8363C1268.94 90.6637 1267.17 89.59 1265.02 88.3781Z" fill="url(#paint4_linear_132_130)"/>
<path d="M1153.64 263.472C1136.51 255.984 1127.16 255.27 1105.61 259.756C1100.25 260.891 1093.35 262.031 1090.38 262.269C1087.35 262.533 1084.9 262.897 1084.81 263.056C1084.81 263.228 1086.44 263.862 1088.46 264.461C1090.56 265.074 1094.79 267.032 1098 268.776C1106.6 273.584 1110.32 274.724 1117.26 274.7C1121.97 274.699 1130.69 273.637 1137.24 272.226C1142.1 271.177 1158.88 267.064 1159.48 266.754C1160.12 266.417 1159.31 265.928 1153.64 263.472Z" fill="url(#paint5_linear_132_130)"/>
<path d="M1126.41 289.066C1116.21 282.589 1111.25 280.502 1102.99 279.047C1095.09 277.689 1087.19 277.474 1075.29 278.253C1070.88 278.551 1064.61 278.624 1061.36 278.434C1058.17 278.217 1055.53 278.167 1055.49 278.3C1055.41 278.458 1057.22 279.506 1059.53 280.64C1061.79 281.8 1065.17 284.025 1067.1 285.752C1076.87 294.162 1082.95 296.238 1097.75 296.455C1103.21 296.517 1132.35 294.514 1133.4 293.971C1133.85 293.738 1133.38 293.413 1126.41 289.066Z" fill="url(#paint6_linear_132_130)"/>
</g>
<g clip-path="url(#clip2_132_130)">
<path d="M100.963 63.3828C101.745 63.1064 102.328 62.7264 102.274 62.5279C102.221 62.3294 104.201 62.0498 106.675 61.8563C109.167 61.729 111.247 61.5011 111.311 61.4205C111.375 61.3399 110.6 61.1646 109.693 60.9779C108.623 60.8199 107.396 60.239 106.71 59.5976L105.522 58.5247L108.007 58.8492C109.948 59.0615 110.759 59.3692 111.648 60.2868C112.654 61.3223 113.28 61.4199 118.268 61.338C125.502 61.1719 125.861 61.074 123.415 60.2575C121.431 59.5676 119.272 57.5915 119.784 56.9469C119.912 56.7857 121.131 57.0213 122.422 57.5216C124.225 58.1742 125.007 58.6948 125.587 59.7362C126.288 61.0681 126.419 61.0796 132.232 61.1988C135.499 61.2468 138.222 61.1827 138.286 61.1021C138.35 61.0216 137.155 60.4004 135.583 59.811C133.464 58.9369 132.533 58.3387 131.686 57.1018C129.979 54.7343 130.494 54.2623 133.587 55.4152C136.169 56.4157 138.391 58.3112 137.816 59.0364C137.656 59.2379 137.848 59.7931 138.154 60.2937C138.645 61.0042 139.964 61.2915 144.532 61.5607C147.671 61.7699 150.348 61.8526 150.444 61.7317C150.54 61.6108 149.445 61.0414 148.023 60.5297C146.583 59.9518 144.84 59.0459 144.09 58.4851C142.639 57.3893 141.045 54.1701 141.863 54.026C142.14 53.9425 143.893 54.5692 145.731 55.3542C149.059 56.743 149.159 56.7947 150.098 59.3322C151.102 61.7891 151.219 61.907 153.128 62.1596C159.482 63.0153 161.931 63.2073 162.123 62.9656C162.283 62.7642 161.035 61.9445 159.392 61.0904C155.957 59.3046 154.179 57.4695 153.687 55.1649L153.374 53.5221L155.806 54.445C159.742 55.8653 161.516 57.5278 162.417 60.5573L163.229 63.2559L170.016 64.4509C173.788 65.103 179.739 66.3759 183.337 67.3359C186.918 68.2297 189.986 68.9711 190.199 68.9682C190.608 68.8962 188.944 67.0063 186.803 65.0964C183.844 62.5336 182.659 60.0394 182.889 56.9147L183.09 54.0028L184.808 55.2942C188.243 57.877 191.415 61.2339 191.757 62.6637C191.889 63.4722 191.84 65.0403 191.634 66.1855C190.882 69.437 190.864 69.3708 195.842 71.1619C198.356 72.0704 201.78 73.3383 203.519 74.0715C205.239 74.7386 206.526 75.0662 206.487 74.7612C206.366 74.4706 205.054 72.9346 203.542 71.295C199.847 67.2679 198.658 64.6011 199.112 61.1943C199.342 59.6635 199.672 58.1845 199.896 57.9025C200.696 56.8952 208.321 65.1853 208.898 67.648C209.112 68.4421 208.81 70.5051 208.306 72.292L207.373 75.5062L213.652 79.1125C217.109 81.1371 221.084 83.6593 222.485 84.7292C223.936 85.825 225.234 86.6705 225.398 86.6417C225.888 86.5553 224.191 83.1117 222.551 80.8363C220.186 77.6145 218.829 72.4128 219.702 69.4519C220.494 66.5054 221.939 63.4436 222.437 63.7024C222.636 63.8059 224.155 65.7908 225.781 68.1727C230.569 74.9875 231.335 79.4268 228.201 83.3753C227.722 83.9796 227.125 85.263 226.948 86.1953C226.618 87.6743 226.874 88.149 228.812 89.7827C231.017 91.612 234.172 94.9027 236.999 98.2509L238.347 99.9193L238.496 98.403C238.577 97.5916 238.352 94.6857 237.967 91.9812C237.5 89.2911 237.36 85.7464 237.605 84.1092C237.977 81.5138 238.339 80.7915 241.363 77.0704C243.153 74.8142 245.033 72.8888 245.524 72.8023C246.587 72.615 248.827 82.3739 248.704 86.6927C248.571 90.4935 247.416 92.5684 243.813 95.2481C242.278 96.385 240.49 98.0169 239.851 98.8227C238.763 100.193 238.803 100.498 240.208 102.537C242.153 105.313 246.181 112.643 248.195 117.105C248.988 118.941 249.825 120.457 249.988 120.428C250.479 120.341 250.32 115.934 249.661 112.688C248.884 108.528 248.79 104.836 249.344 101.481C249.723 99.2314 250.305 98.0544 252.544 95.2341C255.742 91.2051 258.716 88.2551 259.313 88.5657C259.512 88.6692 260.321 91.9921 261.158 95.8992C263.385 107.359 262.341 111.597 256.129 115.88C253.073 118.048 250.319 121.34 250.721 122.516C251.06 123.774 258.051 137.027 261.167 142.404C262.583 144.961 264.184 147.729 264.711 148.572C265.547 150.088 265.597 150.114 265.426 149C265.379 148.35 264.436 145.64 263.361 142.918C259.994 134.224 259.139 128.657 260.488 124.122C261.283 121.348 267.627 110.873 268.608 110.7C269.508 110.542 275.162 123.442 276.644 129.107C277.445 132.084 277.93 135.638 277.682 137.102C277.324 139.591 277.007 140.167 272.307 146.089C269.397 149.756 267.357 152.68 267.464 153.077C268.151 155.312 287.538 182.807 288.387 182.623C288.96 182.522 285.985 175.284 283.562 170.894C277.382 159.542 276.504 152.142 280.418 143.932C282.62 139.385 285.75 134.467 286.042 135.074C286.195 135.325 287.999 138.368 290.091 141.846C295.178 150.41 296.996 154.144 298.228 158.883C299.862 164.798 299.362 166.757 294.74 173.29C290.817 178.764 289.336 181.693 289.522 183.497C289.611 184.625 298.763 195.245 306.061 202.796C312 208.957 319.369 215.975 319.778 215.903C320.596 215.759 316.351 208.26 312.702 203.289C301.821 188.468 300.289 181.184 305.168 168.125C307.625 161.662 307.892 161.061 308.389 161.32C308.588 161.423 311.299 164.654 314.383 168.477C322.67 178.591 326.939 185.705 328.389 191.41C329.357 195.329 328.573 198.62 325.142 204.804C321.678 211.029 320.294 216.228 321.638 217.724C324.377 220.742 338.797 232.166 347.51 238.289C353.79 242.692 364.472 249.612 364.881 249.54C365.83 249.407 357.945 240.47 353.464 236.547C340.49 225.249 335.126 216.768 334.777 207.196C334.697 203.398 336.184 190.625 336.789 190.484C337.002 190.481 340.64 193.34 344.964 196.84C363.002 211.682 369.397 220.015 369.027 228.19C368.914 229.838 368.091 233.622 367.136 236.597C366.014 240.226 365.472 243.302 365.562 246.024L365.695 250.02L369.703 252.502C383.685 261.023 406.174 271.407 426.299 278.568C431.639 280.434 431.952 280.483 430.302 279.283C427.333 277 419.521 273.109 410.415 269.343C403.147 266.361 400.725 265.159 395.985 262.182C385.705 255.642 382.415 252.168 378.426 243.549C376.569 239.509 372.881 228.03 373.265 227.547C373.552 227.184 393.073 234.487 401.204 237.975C411.224 242.273 420.64 248.307 423.497 252.239C425.727 255.277 427.25 259.826 428.096 265.672C428.948 271.863 429.898 274.919 432.246 278.871L433.524 281.072L439.522 282.995C453.203 287.376 470.148 291.633 485.688 294.647L492.33 295.937L486.999 292.995C483.031 290.818 479.835 289.44 474.1 287.54C462.992 283.815 461.883 283.352 454.248 279.326C442.749 273.347 438.748 269.616 433.778 260.373C430.551 254.427 426.686 244.677 427.422 244.547C427.83 244.475 447.041 250.308 453.668 252.501C460.246 254.669 475.169 261.915 478.373 264.435C483.114 268.208 485.038 271.543 487.089 279.325C489.351 287.729 490.393 290.491 492.762 293.885L494.456 296.359L502.114 297.608C514.909 299.651 527.544 301.097 543.393 302.393C555.345 303.371 558.317 303.436 557.286 302.786C555.206 301.42 544.973 297.921 540.177 296.965C528.195 294.606 515.058 290.337 507.16 286.288C498.399 281.733 491.456 273.912 484.113 260.304C482.679 257.681 482.188 256.173 482.732 256.285C483.226 256.372 486.028 256.917 489.092 257.486C514.257 262.373 524.126 265 533.791 269.569C538.548 271.815 541.173 273.293 542.528 274.51C545.906 277.519 548.795 282.208 551.446 288.879C553.788 294.878 557.118 300.251 559.941 302.63C561.179 303.729 562.363 303.832 578.602 304.193C594.76 304.568 623.093 304.045 622.915 303.383C622.79 302.92 614.186 300.382 610.034 299.589C607.826 299.181 602.191 298.13 597.462 297.265C583.259 294.605 569.833 289.901 563.667 285.443C557.835 281.273 549.59 271.637 544.115 262.586L542.297 259.649L544.093 259.957C545.031 260.103 550.727 260.901 556.685 261.723C578.329 264.666 590.929 267.574 600.423 271.827C608.31 275.358 612.2 279.316 616.541 288.288C620.299 296.047 621.028 297.166 624.016 300.313L626.921 303.474L635.855 302.94C650.935 302.015 671.098 300.09 687.155 298.022L689.185 297.768L687.002 296.975C682.255 295.247 673.783 293.517 665.243 292.493C650.055 290.63 639.613 288.104 630.105 283.957C624.523 281.51 621.106 278.994 615.084 272.847C610.521 268.141 602.024 257.405 602.489 256.908C602.777 256.545 624.321 258.639 633.735 259.891C641.816 260.962 652.845 263.281 657.656 264.928C659.821 265.655 663.533 267.358 666.125 268.876C671.857 272.198 674.244 274.861 679.054 283.509C681.9 288.517 683.54 290.793 686.556 293.727L690.443 297.512L694.03 297.157C699.714 296.641 747.934 288.073 761.904 285.091C785.873 279.966 788.077 279.404 792.971 277.225C799.653 274.21 802.447 273.614 804.638 274.753C808.371 276.694 812.445 285.471 811.085 288.691C810.382 290.374 807.137 291.362 798.268 292.613C793.899 293.245 787.884 294.443 784.948 295.307C769.273 299.907 725.073 307.662 695.405 311.019L688.249 311.795L687.318 313.588C684.771 318.126 683.454 322.621 682.597 329.46C681.396 338.682 680.277 341.686 675.917 346.648C671.813 351.287 666.521 354.853 656.043 359.992C649.155 363.355 644.112 365.457 627.687 371.886L620.948 374.529L621.437 372.052C622.203 367.897 625.8 357.075 627.732 352.957C630.357 347.435 634.709 342.128 639.653 338.38C646.842 332.955 656.303 327.856 668.15 323.031C672.934 321.079 682.733 315.644 686.109 313.073C687.708 311.856 689.152 311.809 669.575 313.527C661.285 314.226 650.699 314.982 646.01 315.22C640.631 315.44 637.194 315.872 636.842 316.316C634.746 318.868 632.818 324.753 631.683 331.676C629.903 343.044 627.804 347.018 621.084 352.118C612.441 358.667 603.029 362.994 576.058 372.876C572.28 374.27 569.052 375.324 568.871 375.286C568.423 375.053 570.056 369.186 572.197 363.299C577.509 348.986 582.97 342.548 596.398 334.845C602.365 331.402 605.486 329.951 614.421 326.401C618.523 324.777 622.948 322.923 624.313 322.266C626.556 321.213 634.613 316.466 634.997 315.982C635.093 315.861 633.123 315.862 630.631 315.989C628.089 316.091 619.362 316.277 611.239 316.323L596.422 316.474L592.883 321.464C590.268 325.113 588.957 327.562 587.903 330.485C587.097 332.741 585.545 336.203 584.454 338.197C579.961 346.163 571.36 351.594 552.82 358.12C546.45 360.386 522.18 367.574 522.091 367.243C521.931 366.648 526.41 358.789 529.785 353.827C535.068 345.931 539.343 341.608 545.68 337.788C553.911 332.733 562.647 329.08 576.979 324.579C579.979 323.634 585.513 321.446 589.317 319.667C595.085 316.917 595.927 316.388 594.516 316.394C589.774 316.432 571.671 315.672 562.385 315.056L551.784 314.325L548.356 319.088C545.645 322.858 544.572 324.919 543.162 328.91C541.803 332.927 540.68 334.961 537.969 338.731C534.861 343.091 534.217 343.724 530.638 346.018C522.624 351.243 510.87 355.775 489.319 361.93C481.602 364.121 477.453 365.095 477.46 364.643C477.485 364.258 478.696 361.757 480.149 359.041C483.513 352.764 492.797 340.801 496.209 338.363C503.679 333.027 515.724 327.508 528.005 323.818C536.387 321.232 541.043 319.441 546.808 316.519L551.063 314.349L540.998 313.385C535.455 312.837 527.723 311.947 523.805 311.39L516.695 310.425L514.53 312.089C511.719 314.213 509.637 316.659 503.899 324.775C499.515 330.919 498.89 331.618 495.897 333.705C488.018 339.114 473.832 342.723 444.864 346.615L437.63 347.578L441.243 343.025C447.127 335.612 454.337 328.831 459.672 325.742C462.526 324.096 470.061 321.07 475.297 319.523C477.547 318.815 485.243 317.181 492.338 315.861C504.975 313.496 516.481 310.428 514.078 310.089C507.064 309.004 492.434 306.349 484.868 304.806L475.439 302.864L472.72 304.695C470.844 305.996 468.129 308.796 463.577 313.999C456.368 322.374 453.784 324.389 447.369 326.802C443.199 328.334 430.058 330.892 422.098 331.706C413.467 332.569 393.585 333.786 393.496 333.455C393.421 333.018 400.592 325.932 404.444 322.584C408.378 319.223 414.558 314.98 417.76 313.515C424.634 310.258 437.197 307.455 450.776 306.206C459.67 305.366 473.409 303.118 473.281 302.482C473.196 302.324 470.967 301.677 468.179 301.025C462.124 299.527 453.424 297.11 444.123 294.21C440.209 293.028 436.728 292.186 436.337 292.324C433.959 293.194 427.789 297.955 423.934 301.926C418.682 307.392 416.632 309 412.004 311.376C407.49 313.696 396.143 315.765 385.109 316.289C377.32 316.622 353.388 316.473 353.331 316.102C353.274 315.731 362.279 308.461 365.659 306.063C370.446 302.689 376.531 299.364 379.904 298.216C388.068 295.46 401.392 293.735 415.619 293.619C423.742 293.574 436.084 292.022 434.591 291.246C434.093 290.987 432.422 290.346 430.786 289.837C426.605 288.46 411.729 282.661 406.295 280.292C403.679 279.159 401.165 278.25 400.624 278.311C400.166 278.357 399.835 278.242 399.995 278.04C400.155 277.839 396.503 275.884 391.778 273.597C378.497 267.205 366.62 260.461 354.32 252.302C344.651 245.966 345.661 246.377 341.633 246.845C339.604 247.099 335.555 248.124 332.605 249.094C322.499 252.435 317.661 252.594 308.349 249.973C301.911 248.162 295.802 245.669 284.911 240.519L276.025 236.298L278.815 235.529C283.483 234.256 295.654 232.388 299.657 232.306C306.433 232.187 316.167 234.629 326.518 239.043C335.329 242.827 344.008 245.803 343.033 244.727C342.663 244.307 339.559 241.839 336.173 239.282C332.82 236.685 327.98 232.859 325.49 230.768C320.945 226.926 320.896 226.9 318.528 226.693C317.23 226.645 312.431 227.109 307.899 227.77C295.873 229.542 291.575 228.845 280.772 223.228C275.097 220.278 258.359 209.47 258.028 208.558C257.836 208.003 265.369 207.195 271.341 207.113C283.958 206.899 290.653 209.185 311.053 220.872C320.124 226.1 320.249 226.563 309.96 216.49C307.111 213.7 303.202 209.676 301.221 207.565L297.593 203.63L293.761 203.231C291.638 202.981 287.486 202.985 284.571 203.291C273.793 204.29 268.396 202.85 258.787 196.261C253.524 192.614 239.716 181.394 240.067 180.95C240.387 180.547 254.579 181.096 258.415 181.667C266.5 182.911 274.063 186.672 284.521 194.671C289.66 198.651 296.335 203.089 296.59 202.767C296.654 202.686 295.744 201.53 294.567 200.178C293.407 198.892 289.516 194.137 285.941 189.604L279.467 181.457L276.136 180.693C274.355 180.279 270.195 179.938 266.896 179.93C263.629 179.882 259.751 179.63 258.268 179.371C254.873 178.687 249.148 175.711 244.909 172.369C241.556 169.772 228.802 157.222 228.503 156.27C228.325 155.608 241.337 157.023 245.905 158.089C248.711 158.808 250.549 159.593 255.218 162.304C260.8 165.548 262.369 166.762 270.186 174.013C272.078 175.794 274.766 177.988 276.132 178.926L278.678 180.591L276.138 176.88C274.765 174.8 271.272 169.456 268.436 164.965C262.46 155.483 262.944 155.849 252.762 154.767C247.201 154.153 246.739 154.026 242.49 151.76C239.087 149.934 237.387 148.709 235.338 146.505C232.084 143.163 222.978 131.599 223.266 131.237C223.618 130.793 232.222 132.534 236.848 133.972C240.73 135.194 241.875 135.789 244.692 137.822C248.326 140.509 253.184 145.197 255.247 148.091C256.784 150.142 261.784 155.36 262.008 155.078C262.072 154.997 260.653 152.267 258.845 149.051C257.088 145.861 254.11 140.044 252.174 136.192C250.32 132.325 248.545 129.069 248.246 128.913C247.35 128.447 244.033 128.374 239.067 128.694C233.116 129.015 230.379 128.389 225.575 125.493C221.702 123.195 211.037 114.748 211.389 114.304C211.645 113.982 220.696 114.362 223.906 114.836C228.087 115.416 233.179 117.95 239.182 122.436C242.116 124.588 245.38 126.854 246.376 127.372L248.217 128.329L245.89 123.021C244.581 120.064 242.873 116.103 242.061 114.201C241.25 112.299 239.98 109.647 239.197 108.329L237.767 105.878L234.742 106.411C233.025 106.714 229.954 107.394 227.913 107.927C225.073 108.67 223.303 108.774 220.732 108.291C217.405 107.7 208.569 104.301 203.242 101.532L200.554 100.134L205.851 99.1315C214.713 97.5351 218.599 98.1324 229.561 102.75C232.839 104.113 235.982 105.292 236.54 105.297C239.398 105.417 226.103 90.5373 219.866 86.6116C218.984 86.0393 218.067 85.3347 217.846 84.9923C217.149 83.833 203.768 76.5919 198.108 74.332C190.726 71.4051 183.704 69.1772 182.809 69.5083C182.418 69.6466 181.409 70.8294 180.584 72.2222C179.266 74.3258 178.701 74.772 176.391 75.7336C174.927 76.3382 171.678 77.1534 169.175 77.5598L164.579 78.3006L167.006 75.8628C170.172 72.6711 171.747 71.8391 177.071 70.6234C180.974 69.693 182.489 69.1143 181.841 68.7778C181.742 68.726 178.905 68.0478 175.573 67.2834C168.068 65.4873 157.15 63.7381 156.14 64.1239C155.717 64.3024 154.655 65.2868 153.823 66.3343C152.352 68.1877 151.929 68.3662 147.319 69.2134L142.35 70.1585L143.565 68.6275C145.068 66.7338 147.31 65.6801 151.722 64.7294C153.584 64.3318 154.971 63.9142 154.722 63.7848C154.473 63.6554 151.725 63.308 148.6 62.9924L142.908 62.3668L140.957 64.8245C139.135 67.1211 138.761 67.3255 134.862 68.4285C132.626 69.0305 130.55 69.431 130.301 69.3016C129.604 68.9393 131.864 66.3578 133.844 65.2811C134.768 64.7371 137 63.9625 138.731 63.5534C140.494 63.1041 141.962 62.6721 142.026 62.5915C142.09 62.5109 139.378 62.2959 136.043 62.1558L129.964 61.8411L128.557 63.6138C127.374 65.1046 126.627 65.5134 124.192 66.0118L121.317 66.6226L122.418 65.1462C123.186 64.1793 124.483 63.4308 126.537 62.7915L129.619 61.8325L127.141 61.8534C125.812 61.8451 123.071 61.843 121.084 61.7774C117.603 61.7323 117.489 61.787 116.228 63.4648C115.319 64.6994 114.462 65.3355 113.481 65.5084C112.173 65.739 112.123 65.7131 113.146 64.4238C113.722 63.6986 114.706 62.9013 115.307 62.5875C115.925 62.3399 116.313 62.029 116.163 61.9514C116.014 61.8737 113.078 61.9408 109.701 62.1201C104.24 62.3547 103.391 62.5391 102.527 63.6269C101.984 64.3119 100.64 65.2071 99.581 65.567L97.626 66.2581L98.5853 65.0494C99.129 64.3645 100.213 63.6189 100.963 63.3828Z" fill="url(#paint7_linear_132_130)"/>
<path d="M171.107 55.4564C175.566 58.3439 176.576 59.552 176.638 62.4868C176.716 63.8937 176.61 65.0907 176.415 65.1598C176.038 65.1915 171.522 61.9329 170.099 60.6242C169.128 59.721 167.818 55.9666 167.953 54.5567C168.063 53.5324 168.194 53.5438 171.107 55.4564Z" fill="url(#paint8_linear_132_130)"/>
<path d="M158.233 69.9928C159.999 68.9191 162.555 67.9143 166.813 66.7133L168.559 66.1977L167.116 68.6352C165.468 71.4208 163.247 72.7133 157.645 74.0125L154.232 74.8565L154.925 73.4522C155.806 71.6336 156.079 71.3774 158.233 69.9928Z" fill="url(#paint9_linear_132_130)"/>
<path d="M181.024 78.3131C182.887 77.1185 186.164 76.0904 191.834 74.8833L196.327 73.9181L194.024 76.819C192.777 78.3904 191.007 80.0884 190.034 80.6066C188.104 81.7091 181.293 83.2907 178.161 83.4268L176.078 83.482L177.823 81.3725C178.75 80.2041 180.182 78.8428 181.024 78.3131Z" fill="url(#paint10_linear_132_130)"/>
<path d="M189.984 88.3781C195.304 85.3957 200.21 84.5312 208.447 85.228C211.899 85.486 215.365 85.6375 216.119 85.574C217.985 85.3491 217.95 86.0137 216.016 86.9436C215.138 87.3409 213.713 88.2505 212.907 88.9125C210.486 90.8985 207.426 92.0963 204.28 92.3388C201.347 92.5785 186.238 91.3254 186.064 90.8363C186.06 90.6637 187.826 89.59 189.984 88.3781Z" fill="url(#paint11_linear_132_130)"/>
<path d="M301.363 263.472C318.487 255.984 327.844 255.27 349.389 259.756C354.747 260.891 361.648 262.031 364.623 262.269C367.649 262.533 370.102 262.897 370.187 263.056C370.191 263.228 368.563 263.862 366.54 264.461C364.436 265.074 360.21 267.032 356.997 268.776C348.4 273.584 344.682 274.724 337.739 274.7C333.028 274.699 324.307 273.637 317.762 272.226C312.898 271.177 296.121 267.064 295.523 266.754C294.876 266.417 295.686 265.928 301.363 263.472Z" fill="url(#paint12_linear_132_130)"/>
<path d="M328.587 289.066C338.791 282.589 343.753 280.502 352.01 279.047C359.909 277.689 367.815 277.474 379.714 278.253C384.119 278.551 390.39 278.624 393.635 278.434C396.831 278.217 399.473 278.167 399.508 278.3C399.594 278.458 397.777 279.506 395.471 280.64C393.214 281.8 389.83 284.025 387.897 285.752C378.128 294.162 372.05 296.238 357.251 296.455C351.787 296.517 322.646 294.514 321.6 293.971C321.152 293.738 321.621 293.413 328.587 289.066Z" fill="url(#paint13_linear_132_130)"/>
</g>
</g>
<defs>
<linearGradient id="paint0_linear_132_130" x1="715.432" y1="378.918" x2="1261.53" y2="-54.5064" gradientUnits="userSpaceOnUse">
<stop stop-color="#3B82F6"/>
<stop offset="0.723958" stop-color="#1D4ED8"/>
<stop offset="1" stop-color="#93C5FD"/>
</linearGradient>
<linearGradient id="paint1_linear_132_130" x1="1276.57" y1="62.6401" x2="1287.13" y2="54.2599" gradientUnits="userSpaceOnUse">
<stop stop-color="#3B82F6"/>
<stop offset="0.723958" stop-color="#1D4ED8"/>
<stop offset="1" stop-color="#93C5FD"/>
</linearGradient>
<linearGradient id="paint2_linear_132_130" x1="1290.53" y1="72.1275" x2="1295.95" y2="67.8199" gradientUnits="userSpaceOnUse">
<stop stop-color="#3B82F6"/>
<stop offset="0.723958" stop-color="#1D4ED8"/>
<stop offset="1" stop-color="#93C5FD"/>
</linearGradient>
<linearGradient id="paint3_linear_132_130" x1="1264.32" y1="81.0294" x2="1272.08" y2="74.8657" gradientUnits="userSpaceOnUse">
<stop stop-color="#3B82F6"/>
<stop offset="0.723958" stop-color="#1D4ED8"/>
<stop offset="1" stop-color="#93C5FD"/>
</linearGradient>
<linearGradient id="paint4_linear_132_130" x1="1243.42" y1="93.3685" x2="1260.32" y2="79.9599" gradientUnits="userSpaceOnUse">
<stop stop-color="#3B82F6"/>
<stop offset="0.723958" stop-color="#1D4ED8"/>
<stop offset="1" stop-color="#93C5FD"/>
</linearGradient>
<linearGradient id="paint5_linear_132_130" x1="1096.75" y1="278.105" x2="1141.01" y2="242.972" gradientUnits="userSpaceOnUse">
<stop stop-color="#3B82F6"/>
<stop offset="0.723958" stop-color="#1D4ED8"/>
<stop offset="1" stop-color="#93C5FD"/>
</linearGradient>
<linearGradient id="paint6_linear_132_130" x1="1071.25" y1="298.191" x2="1111.61" y2="266.161" gradientUnits="userSpaceOnUse">
<stop stop-color="#3B82F6"/>
<stop offset="0.723958" stop-color="#1D4ED8"/>
<stop offset="1" stop-color="#93C5FD"/>
</linearGradient>
<linearGradient id="paint7_linear_132_130" x1="739.568" y1="378.918" x2="193.474" y2="-54.5064" gradientUnits="userSpaceOnUse">
<stop stop-color="#3B82F6"/>
<stop offset="0.723958" stop-color="#1D4ED8"/>
<stop offset="1" stop-color="#93C5FD"/>
</linearGradient>
<linearGradient id="paint8_linear_132_130" x1="178.43" y1="62.6401" x2="167.871" y2="54.2599" gradientUnits="userSpaceOnUse">
<stop stop-color="#3B82F6"/>
<stop offset="0.723958" stop-color="#1D4ED8"/>
<stop offset="1" stop-color="#93C5FD"/>
</linearGradient>
<linearGradient id="paint9_linear_132_130" x1="164.474" y1="72.1275" x2="159.046" y2="67.8199" gradientUnits="userSpaceOnUse">
<stop stop-color="#3B82F6"/>
<stop offset="0.723958" stop-color="#1D4ED8"/>
<stop offset="1" stop-color="#93C5FD"/>
</linearGradient>
<linearGradient id="paint10_linear_132_130" x1="190.683" y1="81.0294" x2="182.917" y2="74.8657" gradientUnits="userSpaceOnUse">
<stop stop-color="#3B82F6"/>
<stop offset="0.723958" stop-color="#1D4ED8"/>
<stop offset="1" stop-color="#93C5FD"/>
</linearGradient>
<linearGradient id="paint11_linear_132_130" x1="211.576" y1="93.3685" x2="194.682" y2="79.9599" gradientUnits="userSpaceOnUse">
<stop stop-color="#3B82F6"/>
<stop offset="0.723958" stop-color="#1D4ED8"/>
<stop offset="1" stop-color="#93C5FD"/>
</linearGradient>
<linearGradient id="paint12_linear_132_130" x1="358.255" y1="278.105" x2="313.988" y2="242.972" gradientUnits="userSpaceOnUse">
<stop stop-color="#3B82F6"/>
<stop offset="0.723958" stop-color="#1D4ED8"/>
<stop offset="1" stop-color="#93C5FD"/>
</linearGradient>
<linearGradient id="paint13_linear_132_130" x1="383.749" y1="298.191" x2="343.393" y2="266.161" gradientUnits="userSpaceOnUse">
<stop stop-color="#3B82F6"/>
<stop offset="0.723958" stop-color="#1D4ED8"/>
<stop offset="1" stop-color="#93C5FD"/>
</linearGradient>
<clipPath id="clip0_132_130">
<rect width="1455" height="400" fill="white"/>
</clipPath>
<clipPath id="clip1_132_130">
<rect width="329.203" height="718.168" fill="white" transform="matrix(0.621672 0.783277 -0.887254 0.46128 1250.34 -81)"/>
</clipPath>
<clipPath id="clip2_132_130">
<rect width="329.203" height="718.168" fill="white" transform="matrix(-0.621672 0.783277 0.887254 0.46128 204.657 -81)"/>
</clipPath>
</defs>
</svg>
