<svg width="52" height="52" viewBox="0 0 52 52" fill="none" xmlns="http://www.w3.org/2000/svg">
<g clip-path="url(#clip0_216_3010)">
<path d="M1.99246 38.8992V16.9919H23.9501L22.6531 14.9994H0V40.8917H16.4261L19.3588 38.8992H1.99246Z" fill="#1E40AF"/>
<path d="M37.946 38.8992H36.9749L38.763 40.8917H39.9384V26.4646L37.946 25.7626V38.8992Z" fill="#1E40AF"/>
<path d="M26.6349 21.3918H14.7466V22.9077H26.6349V21.3918Z" fill="#1E40AF"/>
<path d="M31.064 25.2778H10.3223V26.9493H31.064V25.2778Z" fill="#1E40AF"/>
<path d="M31.064 28.7797H10.3223V30.4511H31.064V28.7797Z" fill="#1E40AF"/>
<path d="M31.064 32.0918H10.3223V33.7633H31.064V32.0918Z" fill="#1E40AF"/>
<path d="M33.5704 39.371C33.5704 36.8889 31.5601 34.8802 29.0796 34.8802C26.604 34.8802 24.5938 36.8873 24.5938 39.371C24.5938 41.8466 26.6024 43.8569 29.0796 43.8569C31.5601 43.8553 33.5704 41.8466 33.5704 39.371Z" fill="#1E40AF"/>
<path d="M29.0828 46.12L32.7191 50.7162L34.4506 46.1622L39.2818 45.5299L35.647 40.9354L29.0828 46.12Z" fill="#1E40AF"/>
<path d="M17.5383 43.0025L22.0955 44.7355L22.7262 49.5651L27.3239 45.932L22.1377 39.3661L17.5383 43.0025Z" fill="#1E40AF"/>
<path d="M23.7312 0.844604L22.3613 2.76898L26.5813 5.77632L22.1133 12.0504L29.7751 21.8084L40.9306 25.4562L45.3987 19.1837L47.4527 20.6444L44.2817 25.0946L43.2571 24.3618L40.574 28.1263L43.7694 30.4008L46.4476 26.638L45.7651 26.1484L48.9345 21.7031L50.1877 22.5963L51.5625 20.6704L23.7312 0.844604Z" fill="#1E40AF"/>
</g>
<defs>
<clipPath id="clip0_216_3010">
<rect width="51.5625" height="51.5625" fill="white"/>
</clipPath>
</defs>
</svg>
