<svg width="47" height="47" viewBox="0 0 47 47" fill="none" xmlns="http://www.w3.org/2000/svg">
<g clip-path="url(#clip0_216_3033)">
<path d="M42.4558 11.8884C42.4558 11.8789 42.4464 11.86 42.4464 11.8506C42.4464 11.8317 42.4369 11.8222 42.4369 11.8033C42.4369 11.7938 42.4274 11.7749 42.4274 11.7655C42.418 11.7465 42.418 11.7371 42.4085 11.7182C42.4085 11.7087 42.3991 11.6898 42.3991 11.6803C42.3896 11.652 42.3802 11.633 42.3612 11.6047C42.3518 11.5952 42.3518 11.5858 42.3423 11.5763C42.3329 11.5574 42.3234 11.5479 42.314 11.529C42.3045 11.5195 42.3045 11.5101 42.295 11.5006C42.2856 11.4912 42.2856 11.4817 42.2761 11.4723L33.7641 0.368855L33.7547 0.359394C33.7358 0.340478 33.7263 0.321565 33.7074 0.302649C33.6979 0.293192 33.6979 0.283733 33.6885 0.283733C33.6696 0.255359 33.6412 0.236443 33.6128 0.217527C33.6128 0.217527 33.6128 0.21753 33.6034 0.208072C33.575 0.189156 33.5561 0.170243 33.5277 0.151328C33.5182 0.14187 33.5088 0.141869 33.4993 0.132411C33.4804 0.122953 33.4615 0.104035 33.4331 0.0945776C33.4237 0.0945776 33.4142 0.0851221 33.4047 0.0851221C33.3858 0.0756644 33.3575 0.0662078 33.3385 0.05675C33.3291 0.05675 33.3196 0.0472888 33.3102 0.0472888C33.2913 0.037831 33.2629 0.0283721 33.244 0.0283721C33.2345 0.0283721 33.2251 0.0189167 33.2156 0.0189167C33.1872 0.00945891 33.1683 0.00946122 33.1399 0.00946122C33.1305 0.00946122 33.121 0.00946122 33.1116 0.00946122C33.0737 0.00946122 33.0454 0 33.0075 0H4.63425C4.11408 0 3.68848 0.425599 3.68848 0.945776V45.2081C3.68848 45.7282 4.11408 46.1538 4.63425 46.1538H41.5195C42.0397 46.1538 42.4653 45.7282 42.4653 45.2081V12.0492C42.4653 12.0303 42.4653 12.0019 42.4653 11.9735C42.4653 11.9641 42.4653 11.9546 42.4653 11.9451C42.4653 11.9262 42.4558 11.9073 42.4558 11.8884ZM39.5996 11.1129H33.9722L33.9533 3.75473L39.5996 11.1129ZM40.5737 44.2718H5.58003V1.90101H32.0617L32.0807 12.0586C32.0807 12.5788 32.5063 13.0044 33.0264 13.0044H40.5737V44.2718Z" fill="#1E40AF"/>
<path d="M9.58057 17.3171C9.58057 17.8373 10.0062 18.2629 10.5263 18.2629H35.7029C36.2231 18.2629 36.6487 17.8373 36.6487 17.3171C36.6487 16.7969 36.2231 16.3713 35.7029 16.3713H10.5263C10.0062 16.3713 9.58057 16.7969 9.58057 17.3171Z" fill="#1E40AF"/>
<path d="M10.5263 12.4937H26.9734C27.4936 12.4937 27.9097 12.0681 27.9097 11.5479C27.9097 11.0278 27.4841 10.6022 26.9639 10.6022H10.5263C10.0062 10.6022 9.58057 11.0278 9.58057 11.5479C9.58057 12.0681 10.0062 12.4937 10.5263 12.4937Z" fill="#1E40AF"/>
<path d="M10.5263 24.0322H35.7029C36.2231 24.0322 36.6487 23.6066 36.6487 23.0864C36.6487 22.5662 36.2231 22.1406 35.7029 22.1406H10.5263C10.0062 22.1406 9.58057 22.5662 9.58057 23.0864C9.58057 23.6066 10.0062 24.0322 10.5263 24.0322Z" fill="#1E40AF"/>
<path d="M26.9734 29.8013C27.4936 29.8013 27.9097 29.3757 27.9097 28.8556C27.9097 28.3354 27.4841 27.9098 26.9639 27.9098H10.5263C10.0062 27.9098 9.58057 28.3354 9.58057 28.8556C9.58057 29.3757 10.0062 29.8013 10.5263 29.8013H26.9734Z" fill="#1E40AF"/>
<path d="M35.0788 31.012L27.1153 38.0485L24.8171 34.9748C24.505 34.5586 23.9092 34.4735 23.493 34.7856C23.0769 35.0977 22.9918 35.6936 23.3039 36.1097L26.2169 40.0063C26.3776 40.2238 26.6141 40.3562 26.8789 40.3846C26.9073 40.3941 26.9451 40.3941 26.9735 40.3941C27.2005 40.3941 27.418 40.309 27.5977 40.1482L36.3272 32.4306C36.7244 32.0902 36.7623 31.4849 36.4123 31.0971C36.0718 30.6999 35.4665 30.662 35.0788 31.012Z" fill="#1E40AF"/>
</g>
<defs>
<clipPath id="clip0_216_3033">
<rect width="46.1538" height="46.1538" fill="white"/>
</clipPath>
</defs>
</svg>
