<svg width="242" height="36" viewBox="0 0 242 36" fill="none" xmlns="http://www.w3.org/2000/svg">
<path d="M56.3939 5.39734C56.3506 4.8587 56.1475 4.43853 55.7845 4.13691C55.4269 3.83523 54.8825 3.68441 54.1511 3.68441C53.6852 3.68441 53.3033 3.74097 53.0053 3.85409C52.7127 3.96179 52.496 4.10998 52.3552 4.29845C52.2143 4.487 52.1412 4.70247 52.1358 4.94486C52.1249 5.14418 52.1602 5.32461 52.2414 5.48623C52.3281 5.64246 52.4635 5.7852 52.6477 5.91443C52.8319 6.03836 53.0676 6.15144 53.3547 6.25383C53.6419 6.35614 53.9831 6.44769 54.3786 6.52853L55.7438 6.81939C56.6648 7.01332 57.4531 7.26914 58.1086 7.587C58.7641 7.90478 59.3004 8.27914 59.7176 8.71008C60.1347 9.13563 60.4408 9.61503 60.6358 10.1483C60.8363 10.6815 60.9392 11.2633 60.9446 11.8935C60.9392 12.9816 60.6657 13.9027 60.1239 14.6568C59.5821 15.4109 58.8075 15.9846 57.7998 16.3779C56.7975 16.771 55.5922 16.9677 54.1836 16.9677C52.7371 16.9677 51.4749 16.7549 50.3968 16.3294C49.3241 15.9038 48.4898 15.2494 47.8938 14.366C47.3034 13.4772 47.0054 12.3406 47 10.9562H51.2907C51.3177 11.4626 51.4451 11.8881 51.6726 12.2329C51.9001 12.5776 52.2197 12.8389 52.6315 13.0167C53.0487 13.1944 53.5443 13.2832 54.1186 13.2832C54.6008 13.2832 55.0044 13.224 55.3294 13.1055C55.6545 12.987 55.9009 12.8227 56.0689 12.6126C56.2368 12.4026 56.3235 12.1629 56.3289 11.8935C56.3235 11.6403 56.2395 11.4195 56.077 11.231C55.9199 11.0371 55.6599 10.8647 55.2969 10.7138C54.934 10.5577 54.4436 10.4122 53.826 10.2776L52.1682 9.92205C50.6947 9.60426 49.5327 9.07367 48.6821 8.33033C47.837 7.58161 47.4171 6.56084 47.4225 5.26803C47.4171 4.21768 47.6989 3.29927 48.2677 2.51283C48.8419 1.72101 49.6356 1.10425 50.6487 0.662548C51.6672 0.220854 52.8346 0 54.1511 0C55.4946 0 56.6567 0.223546 57.6373 0.670632C58.6178 1.11771 59.3736 1.74794 59.9045 2.56131C60.4408 3.36929 60.7117 4.31461 60.7171 5.39734H56.3939ZM70.172 4.36315V7.59504H61.9482V4.36315H70.172ZM63.541 1.38974H68.0267V12.7823C68.0267 12.9547 68.0564 13.1001 68.1161 13.2186C68.1757 13.3317 68.2677 13.4179 68.3924 13.4772C68.5169 13.531 68.6767 13.5579 68.8718 13.5579C69.0073 13.5579 69.1643 13.5418 69.3431 13.5095C69.5273 13.4772 69.6628 13.4503 69.7494 13.4287L70.3996 16.5637C70.1991 16.6229 69.912 16.6956 69.5382 16.7819C69.1697 16.868 68.731 16.9246 68.2217 16.9515C67.1924 17.0054 66.3283 16.9003 65.6294 16.6364C64.9306 16.3671 64.4051 15.9442 64.053 15.3679C63.7008 14.7915 63.5302 14.0697 63.541 13.2025V1.38974ZM80.0962 11.3441V4.36315H84.5819V16.7738H80.3237V14.4144H80.1937C79.9229 15.2062 79.4488 15.8257 78.7716 16.2728C78.0945 16.7145 77.29 16.9354 76.3581 16.9354C75.4859 16.9354 74.722 16.7361 74.0665 16.3374C73.4164 15.9388 72.9099 15.3894 72.5469 14.6891C72.1894 13.9889 72.0079 13.1863 72.0024 12.2814V4.36315H76.4881V11.3441C76.4935 11.9582 76.6507 12.4403 76.9594 12.7904C77.2737 13.1405 77.7125 13.3156 78.2759 13.3156C78.6497 13.3156 78.9721 13.2375 79.2429 13.0813C79.5193 12.9197 79.7305 12.6934 79.8768 12.4026C80.0285 12.1063 80.1016 11.7535 80.0962 11.3441ZM91.3816 16.9354C90.493 16.9354 89.6753 16.7038 88.9278 16.2405C88.1856 15.7773 87.5891 15.0743 87.1398 14.1316C86.6951 13.189 86.4731 12.0013 86.4731 10.5685C86.4731 9.07094 86.7065 7.85358 87.1718 6.91632C87.6432 5.97905 88.2504 5.2923 88.9926 4.85597C89.7401 4.41965 90.5258 4.20152 91.3488 4.20152C91.9667 4.20152 92.5083 4.30922 92.9743 4.52469C93.4404 4.73478 93.8302 5.01759 94.1444 5.37307C94.4587 5.72324 94.6967 6.10837 94.8599 6.52853H94.9248V0.226239H99.41V16.7738H94.9568V14.7376H94.8599C94.686 15.1578 94.4374 15.5349 94.1117 15.8688C93.792 16.1974 93.4023 16.4586 92.9415 16.6526C92.4869 16.8411 91.9667 16.9354 91.3816 16.9354ZM93.0392 13.5095C93.4511 13.5095 93.8035 13.391 94.0956 13.154C94.3939 12.9116 94.6212 12.5722 94.7783 12.1359C94.9408 11.6943 95.0224 11.1717 95.0224 10.5685C95.0224 9.95435 94.9408 9.42922 94.7783 8.9929C94.6212 8.55119 94.3939 8.21452 94.0956 7.9829C93.8035 7.74589 93.4511 7.62735 93.0392 7.62735C92.6273 7.62735 92.2756 7.74589 91.9827 7.9829C91.6959 8.21452 91.4739 8.55119 91.3168 8.9929C91.165 9.42922 91.0887 9.95435 91.0887 10.5685C91.0887 11.1825 91.165 11.7104 91.3168 12.1521C91.4739 12.5884 91.6959 12.925 91.9827 13.1621C92.2756 13.3937 92.6273 13.5095 93.0392 13.5095ZM107.593 17C106.261 17 105.113 16.7468 104.148 16.2405C103.189 15.7288 102.45 14.9962 101.929 14.0427C101.415 13.0839 101.157 11.9367 101.157 10.6008C101.157 9.31879 101.418 8.19837 101.938 7.23956C102.457 6.28076 103.192 5.53469 104.14 5.00144C105.088 4.46819 106.206 4.20152 107.496 4.20152C108.438 4.20152 109.292 4.34699 110.055 4.63785C110.82 4.92871 111.473 5.35153 112.014 5.9064C112.556 6.4558 112.973 7.12375 113.265 7.91016C113.558 8.69658 113.705 9.58272 113.705 10.5685V11.6026H102.555V9.1464H109.576C109.571 8.79085 109.479 8.47845 109.3 8.20914C109.126 7.93443 108.891 7.72162 108.593 7.57084C108.3 7.41461 107.967 7.33649 107.593 7.33649C107.231 7.33649 106.897 7.41461 106.594 7.57084C106.29 7.72162 106.047 7.9317 105.862 8.20102C105.684 8.47034 105.589 8.78546 105.578 9.1464V11.7966C105.578 12.1952 105.662 12.5507 105.83 12.8632C105.998 13.1756 106.239 13.4206 106.553 13.5984C106.868 13.7761 107.247 13.865 107.691 13.865C108 13.865 108.281 13.822 108.536 13.7357C108.796 13.6496 109.018 13.5256 109.203 13.3641C109.386 13.1971 109.522 12.9978 109.608 12.7662H113.705C113.563 13.628 113.23 14.3767 112.705 15.0124C112.179 15.6426 111.483 16.1327 110.616 16.4829C109.755 16.8276 108.747 17 107.593 17ZM120.02 9.79281V16.7738H115.534V4.36315H119.793V6.72246H119.923C120.194 5.93597 120.67 5.31922 121.353 4.87213C122.041 4.42503 122.843 4.20152 123.759 4.20152C124.641 4.20152 125.408 4.40349 126.059 4.80751C126.714 5.20614 127.22 5.75554 127.578 6.4558C127.941 7.15606 128.12 7.95597 128.114 8.85554V16.7738H123.628V9.79281C123.634 9.17871 123.477 8.69658 123.157 8.34649C122.843 7.99632 122.404 7.82128 121.841 7.82128C121.473 7.82128 121.15 7.90212 120.874 8.06367C120.603 8.21991 120.394 8.44614 120.248 8.74239C120.102 9.03324 120.026 9.38341 120.02 9.79281ZM137.773 4.36315V7.59504H129.548V4.36315H137.773ZM131.141 1.38974H135.627V12.7823C135.627 12.9547 135.657 13.1001 135.716 13.2186C135.776 13.3317 135.868 13.4179 135.992 13.4772C136.117 13.531 136.277 13.5579 136.472 13.5579C136.608 13.5579 136.764 13.5418 136.944 13.5095C137.127 13.4772 137.263 13.4503 137.35 13.4287L138 16.5637C137.799 16.6229 137.513 16.6956 137.139 16.7819C136.77 16.868 136.331 16.9246 135.822 16.9515C134.792 17.0054 133.928 16.9003 133.23 16.6364C132.531 16.3671 132.005 15.9442 131.653 15.3679C131.301 14.7915 131.13 14.0697 131.141 13.2025V1.38974Z" fill="white"/>
<path d="M159.59 6.43153H155.01C154.978 6.05452 154.891 5.71247 154.75 5.40545C154.615 5.09837 154.426 4.83443 154.183 4.61358C153.944 4.38734 153.654 4.21502 153.314 4.09648C152.972 3.97256 152.586 3.91067 152.152 3.91067C151.395 3.91067 150.753 4.09375 150.228 4.46007C149.709 4.82639 149.313 5.35153 149.042 6.03563C148.777 6.71973 148.645 7.54119 148.645 8.49999C148.645 9.51265 148.78 10.361 149.051 11.0451C149.327 11.7238 149.725 12.2356 150.244 12.5803C150.764 12.9197 151.389 13.0893 152.12 13.0893C152.537 13.0893 152.91 13.0382 153.24 12.9358C153.571 12.8281 153.858 12.6746 154.101 12.4753C154.345 12.276 154.542 12.0363 154.694 11.7562C154.851 11.4707 154.956 11.1502 155.01 10.7947L159.59 10.827C159.536 11.5273 159.339 12.2409 158.997 12.9681C158.656 13.6899 158.172 14.3579 157.544 14.972C156.921 15.5806 156.15 16.0708 155.23 16.4425C154.31 16.8142 153.24 17 152.023 17C150.496 17 149.126 16.6741 147.914 16.0223C146.706 15.3706 145.751 14.4118 145.048 13.1459C144.349 11.8801 144 10.3314 144 8.49999C144 6.65777 144.357 5.10648 145.072 3.84601C145.787 2.58016 146.75 1.62405 147.962 0.977659C149.175 0.325889 150.529 0 152.023 0C153.073 0 154.038 0.142744 154.921 0.428231C155.804 0.713719 156.577 1.13118 157.243 1.68061C157.91 2.22465 158.445 2.89528 158.851 3.69249C159.257 4.48973 159.503 5.40272 159.59 6.43153ZM167.712 17C166.358 17 165.2 16.7333 164.236 16.2001C163.273 15.6615 162.534 14.9127 162.02 13.9539C161.505 12.9897 161.249 11.872 161.249 10.6008C161.249 9.32956 161.505 8.21452 162.02 7.25572C162.534 6.29153 163.273 5.54281 164.236 5.00948C165.2 4.47084 166.358 4.20152 167.712 4.20152C169.065 4.20152 170.223 4.47084 171.187 5.00948C172.151 5.54281 172.889 6.29153 173.404 7.25572C173.918 8.21452 174.175 9.32956 174.175 10.6008C174.175 11.872 173.918 12.9897 173.404 13.9539C172.889 14.9127 172.151 15.6615 171.187 16.2001C170.223 16.7333 169.065 17 167.712 17ZM167.744 13.7034C168.123 13.7034 168.45 13.5768 168.727 13.3237C169.003 13.0705 169.216 12.7096 169.368 12.2409C169.52 11.7723 169.596 11.2149 169.596 10.5685C169.596 9.91666 169.52 9.35914 169.368 8.89589C169.216 8.42726 169.003 8.0664 168.727 7.81324C168.45 7.56007 168.123 7.43349 167.744 7.43349C167.344 7.43349 167 7.56007 166.713 7.81324C166.426 8.0664 166.206 8.42726 166.056 8.89589C165.904 9.35914 165.828 9.91666 165.828 10.5685C165.828 11.2149 165.904 11.7723 166.056 12.2409C166.206 12.7096 166.426 13.0705 166.713 13.3237C167 13.5768 167.344 13.7034 167.744 13.7034ZM180.476 9.79281V16.7738H175.993V4.36315H180.249V6.72246H180.378C180.649 5.93597 181.125 5.31922 181.807 4.87213C182.495 4.42503 183.296 4.20152 184.211 4.20152C185.093 4.20152 185.859 4.40349 186.509 4.80751C187.164 5.20614 187.67 5.75554 188.027 6.4558C188.39 7.15606 188.568 7.95597 188.563 8.85554V16.7738H184.081V9.79281C184.086 9.17871 183.929 8.69658 183.61 8.34649C183.296 7.99632 182.857 7.82128 182.294 7.82128C181.926 7.82128 181.604 7.90212 181.329 8.06367C181.058 8.21991 180.849 8.44614 180.703 8.74239C180.557 9.03324 180.481 9.38341 180.476 9.79281ZM195.258 9.79281V16.7738H190.776V4.36315H195.03V6.72246H195.16C195.431 5.93597 195.907 5.31922 196.589 4.87213C197.277 4.42503 198.078 4.20152 198.993 4.20152C199.875 4.20152 200.641 4.40349 201.29 4.80751C201.945 5.20614 202.452 5.75554 202.809 6.4558C203.171 7.15606 203.351 7.95597 203.344 8.85554V16.7738H198.863V9.79281C198.868 9.17871 198.711 8.69658 198.392 8.34649C198.078 7.99632 197.64 7.82128 197.076 7.82128C196.708 7.82128 196.386 7.90212 196.11 8.06367C195.839 8.21991 195.631 8.44614 195.485 8.74239C195.339 9.03324 195.263 9.38341 195.258 9.79281ZM211.533 17C210.202 17 209.055 16.7468 208.09 16.2405C207.132 15.7288 206.394 14.9962 205.874 14.0427C205.36 13.0839 205.103 11.9367 205.103 10.6008C205.103 9.31879 205.363 8.19837 205.882 7.23956C206.402 6.28076 207.135 5.53469 208.083 5.00144C209.03 4.46819 210.148 4.20152 211.436 4.20152C212.378 4.20152 213.231 4.34699 213.993 4.63785C214.757 4.92871 215.41 5.35153 215.951 5.9064C216.492 6.4558 216.909 7.12375 217.201 7.91016C217.493 8.69658 217.64 9.58272 217.64 10.5685V11.6026H206.499V9.1464H213.515C213.509 8.79085 213.417 8.47845 213.239 8.20914C213.065 7.93443 212.83 7.72162 212.532 7.57084C212.24 7.41461 211.907 7.33649 211.533 7.33649C211.171 7.33649 210.838 7.41461 210.535 7.57084C210.231 7.72162 209.988 7.9317 209.804 8.20102C209.625 8.47034 209.531 8.78546 209.52 9.1464V11.7966C209.52 12.1952 209.603 12.5507 209.772 12.8632C209.939 13.1756 210.18 13.4206 210.494 13.5984C210.808 13.7761 211.187 13.865 211.631 13.865C211.939 13.865 212.221 13.822 212.475 13.7357C212.735 13.6496 212.957 13.5256 213.141 13.3641C213.325 13.1971 213.461 12.9978 213.547 12.7662H217.64C217.499 13.628 217.166 14.3767 216.64 15.0124C216.115 15.6426 215.42 16.1327 214.554 16.4829C213.693 16.8276 212.686 17 211.533 17ZM225.477 17C224.123 17 222.965 16.7333 222.002 16.2001C221.038 15.6615 220.3 14.9127 219.785 13.9539C219.271 12.9897 219.014 11.872 219.014 10.6008C219.014 9.32956 219.271 8.21452 219.785 7.25572C220.3 6.29153 221.038 5.54281 222.002 5.00948C222.965 4.47084 224.123 4.20152 225.477 4.20152C226.7 4.20152 227.759 4.42238 228.651 4.86409C229.55 5.30041 230.246 5.91982 230.738 6.72246C231.231 7.51965 231.48 8.45691 231.485 9.53419H227.328C227.269 8.88247 227.079 8.38691 226.76 8.04751C226.446 7.70281 226.04 7.53042 225.542 7.53042C225.152 7.53042 224.811 7.6435 224.519 7.86974C224.226 8.09059 223.999 8.42726 223.837 8.87974C223.674 9.32683 223.593 9.88974 223.593 10.5685C223.593 11.2472 223.674 11.8127 223.837 12.2652C223.999 12.7123 224.226 13.049 224.519 13.2752C224.811 13.4961 225.152 13.6065 225.542 13.6065C225.872 13.6065 226.164 13.531 226.419 13.3803C226.674 13.224 226.879 12.9978 227.036 12.7015C227.198 12.3999 227.296 12.0336 227.328 11.6026H231.485C231.469 12.6961 231.218 13.6496 230.731 14.4629C230.243 15.2709 229.553 15.8957 228.66 16.3374C227.772 16.7791 226.711 17 225.477 17ZM240.772 4.36315V7.59504H232.555V4.36315H240.772ZM234.147 1.38974H238.629V12.7823C238.629 12.9547 238.659 13.1001 238.718 13.2186C238.778 13.3317 238.87 13.4179 238.994 13.4772C239.119 13.531 239.278 13.5579 239.473 13.5579C239.608 13.5579 239.765 13.5418 239.944 13.5095C240.128 13.4772 240.264 13.4503 240.35 13.4287L241 16.5637C240.8 16.6229 240.512 16.6956 240.139 16.7819C239.771 16.868 239.332 16.9246 238.823 16.9515C237.795 17.0054 236.932 16.9003 236.233 16.6364C235.535 16.3671 235.01 15.9442 234.658 15.3679C234.307 14.7915 234.136 14.0697 234.147 13.2025V1.38974Z" fill="#0EA5E9"/>
<path d="M48.32 32C48.232 32 48.164 31.976 48.116 31.928C48.068 31.872 48.044 31.804 48.044 31.724V23.888C48.044 23.8 48.068 23.732 48.116 23.684C48.164 23.628 48.232 23.6 48.32 23.6H51.608C52.208 23.6 52.696 23.7 53.072 23.9C53.456 24.092 53.736 24.356 53.912 24.692C54.096 25.028 54.188 25.404 54.188 25.82C54.188 26.148 54.132 26.432 54.02 26.672C53.916 26.904 53.784 27.096 53.624 27.248C53.464 27.392 53.308 27.504 53.156 27.584C53.468 27.736 53.744 27.984 53.984 28.328C54.232 28.672 54.356 29.088 54.356 29.576C54.356 30.016 54.256 30.42 54.056 30.788C53.856 31.156 53.556 31.452 53.156 31.676C52.764 31.892 52.276 32 51.692 32H48.32ZM49.22 31.028H51.536C52.056 31.028 52.456 30.888 52.736 30.608C53.016 30.328 53.156 29.984 53.156 29.576C53.156 29.152 53.016 28.804 52.736 28.532C52.456 28.252 52.056 28.112 51.536 28.112H49.22V31.028ZM49.22 27.152H51.428C51.94 27.152 52.328 27.036 52.592 26.804C52.856 26.564 52.988 26.24 52.988 25.832C52.988 25.424 52.856 25.112 52.592 24.896C52.328 24.68 51.94 24.572 51.428 24.572H49.22V27.152ZM62.7556 32C62.6676 32 62.5996 31.976 62.5516 31.928C62.5036 31.872 62.4796 31.804 62.4796 31.724V23.876C62.4796 23.796 62.5036 23.732 62.5516 23.684C62.5996 23.628 62.6676 23.6 62.7556 23.6H63.3916C63.4716 23.6 63.5356 23.628 63.5836 23.684C63.6396 23.732 63.6676 23.796 63.6676 23.876V31.724C63.6676 31.804 63.6396 31.872 63.5836 31.928C63.5356 31.976 63.4716 32 63.3916 32H62.7556ZM75.1929 32.12C74.5129 32.12 73.9289 32.004 73.4409 31.772C72.9529 31.532 72.5769 31.168 72.3129 30.68C72.0489 30.184 71.9009 29.564 71.8689 28.82C71.8609 28.468 71.8569 28.132 71.8569 27.812C71.8569 27.484 71.8609 27.144 71.8689 26.792C71.9009 26.056 72.0529 25.444 72.3249 24.956C72.6049 24.46 72.9889 24.092 73.4769 23.852C73.9729 23.604 74.5449 23.48 75.1929 23.48C75.8489 23.48 76.4209 23.604 76.9089 23.852C77.4049 24.092 77.7929 24.46 78.0729 24.956C78.3529 25.444 78.5049 26.056 78.5289 26.792C78.5449 27.144 78.5529 27.484 78.5529 27.812C78.5529 28.132 78.5449 28.468 78.5289 28.82C78.5049 29.564 78.3569 30.184 78.0849 30.68C77.8209 31.168 77.4449 31.532 76.9569 31.772C76.4689 32.004 75.8809 32.12 75.1929 32.12ZM75.1929 31.1C75.8089 31.1 76.3089 30.916 76.6929 30.548C77.0849 30.18 77.2969 29.584 77.3289 28.76C77.3449 28.4 77.3529 28.08 77.3529 27.8C77.3529 27.512 77.3449 27.192 77.3289 26.84C77.3129 26.288 77.2089 25.84 77.0169 25.496C76.8329 25.152 76.5849 24.9 76.2729 24.74C75.9609 24.58 75.6009 24.5 75.1929 24.5C74.8009 24.5 74.4489 24.58 74.1369 24.74C73.8249 24.9 73.5729 25.152 73.3809 25.496C73.1969 25.84 73.0929 26.288 73.0689 26.84C73.0609 27.192 73.0569 27.512 73.0569 27.8C73.0569 28.08 73.0609 28.4 73.0689 28.76C73.1009 29.584 73.3129 30.18 73.7049 30.548C74.0969 30.916 74.5929 31.1 75.1929 31.1ZM86.998 32C86.91 32 86.842 31.976 86.794 31.928C86.746 31.872 86.722 31.804 86.722 31.724V23.876C86.722 23.796 86.746 23.732 86.794 23.684C86.842 23.628 86.91 23.6 86.998 23.6H87.634C87.714 23.6 87.778 23.628 87.826 23.684C87.874 23.732 87.898 23.796 87.898 23.876V30.956H91.894C91.982 30.956 92.05 30.984 92.098 31.04C92.146 31.088 92.17 31.156 92.17 31.244V31.724C92.17 31.804 92.146 31.872 92.098 31.928C92.05 31.976 91.982 32 91.894 32H86.998ZM102.799 32.12C102.119 32.12 101.535 32.004 101.047 31.772C100.559 31.532 100.183 31.168 99.9185 30.68C99.6545 30.184 99.5065 29.564 99.4745 28.82C99.4665 28.468 99.4625 28.132 99.4625 27.812C99.4625 27.484 99.4665 27.144 99.4745 26.792C99.5065 26.056 99.6585 25.444 99.9305 24.956C100.211 24.46 100.595 24.092 101.083 23.852C101.579 23.604 102.151 23.48 102.799 23.48C103.455 23.48 104.027 23.604 104.515 23.852C105.011 24.092 105.399 24.46 105.679 24.956C105.959 25.444 106.111 26.056 106.135 26.792C106.151 27.144 106.159 27.484 106.159 27.812C106.159 28.132 106.151 28.468 106.135 28.82C106.111 29.564 105.963 30.184 105.691 30.68C105.427 31.168 105.051 31.532 104.563 31.772C104.075 32.004 103.487 32.12 102.799 32.12ZM102.799 31.1C103.415 31.1 103.915 30.916 104.299 30.548C104.691 30.18 104.903 29.584 104.935 28.76C104.951 28.4 104.959 28.08 104.959 27.8C104.959 27.512 104.951 27.192 104.935 26.84C104.919 26.288 104.815 25.84 104.623 25.496C104.439 25.152 104.191 24.9 103.879 24.74C103.567 24.58 103.207 24.5 102.799 24.5C102.407 24.5 102.055 24.58 101.743 24.74C101.431 24.9 101.179 25.152 100.987 25.496C100.803 25.84 100.699 26.288 100.675 26.84C100.667 27.192 100.663 27.512 100.663 27.8C100.663 28.08 100.667 28.4 100.675 28.76C100.707 29.584 100.919 30.18 101.311 30.548C101.703 30.916 102.199 31.1 102.799 31.1ZM117.376 32.12C116.672 32.12 116.072 31.988 115.576 31.724C115.088 31.46 114.712 31.088 114.448 30.608C114.192 30.128 114.048 29.564 114.016 28.916C114.008 28.564 114.004 28.192 114.004 27.8C114.004 27.4 114.008 27.02 114.016 26.66C114.048 26.012 114.192 25.452 114.448 24.98C114.712 24.508 115.092 24.14 115.588 23.876C116.084 23.612 116.68 23.48 117.376 23.48C117.944 23.48 118.436 23.56 118.852 23.72C119.268 23.88 119.608 24.084 119.872 24.332C120.144 24.572 120.344 24.824 120.472 25.088C120.608 25.352 120.68 25.584 120.688 25.784C120.696 25.856 120.676 25.916 120.628 25.964C120.58 26.004 120.516 26.024 120.436 26.024H119.728C119.648 26.024 119.588 26.008 119.548 25.976C119.516 25.944 119.484 25.888 119.452 25.808C119.38 25.6 119.26 25.396 119.092 25.196C118.932 24.996 118.712 24.832 118.432 24.704C118.16 24.568 117.808 24.5 117.376 24.5C116.744 24.5 116.232 24.672 115.84 25.016C115.456 25.36 115.248 25.928 115.216 26.72C115.192 27.432 115.192 28.144 115.216 28.856C115.248 29.656 115.46 30.232 115.852 30.584C116.244 30.928 116.756 31.1 117.388 31.1C117.812 31.1 118.188 31.024 118.516 30.872C118.852 30.712 119.116 30.468 119.308 30.14C119.5 29.812 119.596 29.396 119.596 28.892V28.388H117.796C117.716 28.388 117.648 28.364 117.592 28.316C117.544 28.26 117.52 28.188 117.52 28.1V27.716C117.52 27.628 117.544 27.56 117.592 27.512C117.648 27.456 117.716 27.428 117.796 27.428H120.508C120.596 27.428 120.664 27.456 120.712 27.512C120.76 27.56 120.784 27.628 120.784 27.716V28.868C120.784 29.524 120.648 30.096 120.376 30.584C120.112 31.072 119.724 31.452 119.212 31.724C118.7 31.988 118.088 32.12 117.376 32.12ZM131.131 32C131.051 32 130.983 31.976 130.927 31.928C130.879 31.872 130.855 31.804 130.855 31.724V28.892L127.963 23.996C127.955 23.972 127.947 23.948 127.939 23.924C127.931 23.9 127.927 23.872 127.927 23.84C127.927 23.776 127.951 23.72 127.999 23.672C128.047 23.624 128.103 23.6 128.167 23.6H128.791C128.863 23.6 128.927 23.62 128.983 23.66C129.039 23.692 129.079 23.74 129.103 23.804L131.443 27.692L133.783 23.804C133.823 23.74 133.867 23.692 133.915 23.66C133.971 23.62 134.035 23.6 134.107 23.6H134.719C134.791 23.6 134.851 23.624 134.899 23.672C134.947 23.72 134.971 23.776 134.971 23.84C134.971 23.872 134.967 23.9 134.959 23.924C134.951 23.948 134.939 23.972 134.923 23.996L132.043 28.892V31.724C132.043 31.804 132.015 31.872 131.959 31.928C131.911 31.976 131.843 32 131.755 32H131.131ZM154.834 32.12C154.098 32.12 153.486 31.984 152.998 31.712C152.518 31.44 152.154 31.06 151.906 30.572C151.658 30.084 151.522 29.516 151.498 28.868C151.49 28.54 151.486 28.188 151.486 27.812C151.486 27.436 151.49 27.076 151.498 26.732C151.522 26.084 151.658 25.516 151.906 25.028C152.154 24.54 152.518 24.16 152.998 23.888C153.486 23.616 154.098 23.48 154.834 23.48C155.386 23.48 155.87 23.556 156.286 23.708C156.702 23.86 157.046 24.064 157.318 24.32C157.598 24.576 157.81 24.864 157.954 25.184C158.098 25.496 158.178 25.82 158.194 26.156C158.202 26.228 158.178 26.288 158.122 26.336C158.074 26.384 158.014 26.408 157.942 26.408H157.282C157.21 26.408 157.146 26.388 157.09 26.348C157.042 26.308 157.006 26.236 156.982 26.132C156.846 25.508 156.59 25.08 156.214 24.848C155.846 24.616 155.382 24.5 154.822 24.5C154.182 24.5 153.674 24.684 153.298 25.052C152.922 25.412 152.718 25.992 152.686 26.792C152.662 27.448 152.662 28.12 152.686 28.808C152.718 29.608 152.922 30.192 153.298 30.56C153.674 30.92 154.182 31.1 154.822 31.1C155.382 31.1 155.846 30.984 156.214 30.752C156.59 30.52 156.846 30.092 156.982 29.468C157.006 29.364 157.042 29.292 157.09 29.252C157.146 29.212 157.21 29.192 157.282 29.192H157.942C158.014 29.192 158.074 29.216 158.122 29.264C158.178 29.312 158.202 29.372 158.194 29.444C158.178 29.78 158.098 30.108 157.954 30.428C157.81 30.74 157.598 31.024 157.318 31.28C157.046 31.536 156.702 31.74 156.286 31.892C155.87 32.044 155.386 32.12 154.834 32.12ZM166.498 32C166.41 32 166.342 31.976 166.294 31.928C166.246 31.872 166.222 31.804 166.222 31.724V23.876C166.222 23.796 166.246 23.732 166.294 23.684C166.342 23.628 166.41 23.6 166.498 23.6H167.134C167.214 23.6 167.278 23.628 167.326 23.684C167.374 23.732 167.398 23.796 167.398 23.876V30.956H171.394C171.482 30.956 171.55 30.984 171.598 31.04C171.646 31.088 171.67 31.156 171.67 31.244V31.724C171.67 31.804 171.646 31.872 171.598 31.928C171.55 31.976 171.482 32 171.394 32H166.498ZM178.84 32C178.776 32 178.72 31.976 178.672 31.928C178.624 31.88 178.6 31.824 178.6 31.76C178.6 31.72 178.604 31.676 178.612 31.628L181.588 23.864C181.62 23.784 181.664 23.72 181.72 23.672C181.776 23.624 181.86 23.6 181.972 23.6H182.788C182.892 23.6 182.972 23.624 183.028 23.672C183.092 23.72 183.14 23.784 183.172 23.864L186.136 31.628C186.152 31.676 186.16 31.72 186.16 31.76C186.16 31.824 186.136 31.88 186.088 31.928C186.04 31.976 185.984 32 185.92 32H185.308C185.212 32 185.14 31.976 185.092 31.928C185.052 31.88 185.024 31.836 185.008 31.796L184.348 30.092H180.412L179.752 31.796C179.744 31.836 179.716 31.88 179.668 31.928C179.62 31.976 179.548 32 179.452 32H178.84ZM180.76 29.06H184L182.38 24.8L180.76 29.06ZM196.446 32.12C195.75 32.12 195.166 32.016 194.694 31.808C194.222 31.592 193.858 31.316 193.602 30.98C193.354 30.636 193.222 30.272 193.206 29.888C193.206 29.824 193.23 29.768 193.278 29.72C193.334 29.664 193.398 29.636 193.47 29.636H194.082C194.178 29.636 194.25 29.66 194.298 29.708C194.346 29.756 194.378 29.812 194.394 29.876C194.434 30.068 194.53 30.26 194.682 30.452C194.842 30.636 195.062 30.792 195.342 30.92C195.63 31.04 195.998 31.1 196.446 31.1C197.134 31.1 197.638 30.98 197.958 30.74C198.286 30.492 198.45 30.164 198.45 29.756C198.45 29.476 198.362 29.252 198.186 29.084C198.018 28.908 197.758 28.752 197.406 28.616C197.054 28.48 196.598 28.332 196.038 28.172C195.454 28.004 194.97 27.82 194.586 27.62C194.202 27.42 193.914 27.172 193.722 26.876C193.538 26.58 193.446 26.204 193.446 25.748C193.446 25.316 193.562 24.932 193.794 24.596C194.026 24.252 194.358 23.98 194.79 23.78C195.23 23.58 195.762 23.48 196.386 23.48C196.882 23.48 197.314 23.548 197.682 23.684C198.058 23.812 198.37 23.988 198.618 24.212C198.866 24.428 199.054 24.664 199.182 24.92C199.31 25.168 199.378 25.412 199.386 25.652C199.386 25.708 199.366 25.764 199.326 25.82C199.286 25.868 199.222 25.892 199.134 25.892H198.498C198.442 25.892 198.382 25.876 198.318 25.844C198.262 25.812 198.218 25.752 198.186 25.664C198.138 25.336 197.954 25.06 197.634 24.836C197.314 24.612 196.898 24.5 196.386 24.5C195.866 24.5 195.442 24.6 195.114 24.8C194.794 25 194.634 25.312 194.634 25.736C194.634 26.008 194.71 26.236 194.862 26.42C195.014 26.596 195.254 26.752 195.582 26.888C195.91 27.024 196.338 27.168 196.866 27.32C197.506 27.496 198.03 27.684 198.438 27.884C198.846 28.076 199.146 28.32 199.338 28.616C199.538 28.904 199.638 29.276 199.638 29.732C199.638 30.236 199.506 30.668 199.242 31.028C198.978 31.38 198.606 31.652 198.126 31.844C197.654 32.028 197.094 32.12 196.446 32.12ZM210.331 32.12C209.635 32.12 209.051 32.016 208.579 31.808C208.107 31.592 207.743 31.316 207.487 30.98C207.239 30.636 207.107 30.272 207.091 29.888C207.091 29.824 207.115 29.768 207.163 29.72C207.219 29.664 207.283 29.636 207.355 29.636H207.967C208.063 29.636 208.135 29.66 208.183 29.708C208.231 29.756 208.263 29.812 208.279 29.876C208.319 30.068 208.415 30.26 208.567 30.452C208.727 30.636 208.947 30.792 209.227 30.92C209.515 31.04 209.883 31.1 210.331 31.1C211.019 31.1 211.523 30.98 211.843 30.74C212.171 30.492 212.335 30.164 212.335 29.756C212.335 29.476 212.247 29.252 212.071 29.084C211.903 28.908 211.643 28.752 211.291 28.616C210.939 28.48 210.483 28.332 209.923 28.172C209.339 28.004 208.855 27.82 208.471 27.62C208.087 27.42 207.799 27.172 207.607 26.876C207.423 26.58 207.331 26.204 207.331 25.748C207.331 25.316 207.447 24.932 207.679 24.596C207.911 24.252 208.243 23.98 208.675 23.78C209.115 23.58 209.647 23.48 210.271 23.48C210.767 23.48 211.199 23.548 211.567 23.684C211.943 23.812 212.255 23.988 212.503 24.212C212.751 24.428 212.939 24.664 213.067 24.92C213.195 25.168 213.263 25.412 213.271 25.652C213.271 25.708 213.251 25.764 213.211 25.82C213.171 25.868 213.107 25.892 213.019 25.892H212.383C212.327 25.892 212.267 25.876 212.203 25.844C212.147 25.812 212.103 25.752 212.071 25.664C212.023 25.336 211.839 25.06 211.519 24.836C211.199 24.612 210.783 24.5 210.271 24.5C209.751 24.5 209.327 24.6 208.999 24.8C208.679 25 208.519 25.312 208.519 25.736C208.519 26.008 208.595 26.236 208.747 26.42C208.899 26.596 209.139 26.752 209.467 26.888C209.795 27.024 210.223 27.168 210.751 27.32C211.391 27.496 211.915 27.684 212.323 27.884C212.731 28.076 213.031 28.32 213.223 28.616C213.423 28.904 213.523 29.276 213.523 29.732C213.523 30.236 213.391 30.668 213.127 31.028C212.863 31.38 212.491 31.652 212.011 31.844C211.539 32.028 210.979 32.12 210.331 32.12ZM221.792 32C221.704 32 221.636 31.976 221.588 31.928C221.54 31.872 221.516 31.804 221.516 31.724V23.888C221.516 23.8 221.54 23.732 221.588 23.684C221.636 23.628 221.704 23.6 221.792 23.6H226.748C226.836 23.6 226.904 23.628 226.952 23.684C227 23.732 227.024 23.8 227.024 23.888V24.344C227.024 24.432 227 24.5 226.952 24.548C226.904 24.596 226.836 24.62 226.748 24.62H222.668V27.248H226.484C226.572 27.248 226.64 27.276 226.688 27.332C226.736 27.38 226.76 27.448 226.76 27.536V27.98C226.76 28.06 226.736 28.128 226.688 28.184C226.64 28.232 226.572 28.256 226.484 28.256H222.668V30.98H226.844C226.932 30.98 227 31.004 227.048 31.052C227.096 31.1 227.12 31.168 227.12 31.256V31.724C227.12 31.804 227.096 31.872 227.048 31.928C227 31.976 226.932 32 226.844 32H221.792ZM237.913 32.12C237.217 32.12 236.633 32.016 236.161 31.808C235.689 31.592 235.325 31.316 235.069 30.98C234.821 30.636 234.689 30.272 234.673 29.888C234.673 29.824 234.697 29.768 234.745 29.72C234.801 29.664 234.865 29.636 234.937 29.636H235.549C235.645 29.636 235.717 29.66 235.765 29.708C235.813 29.756 235.845 29.812 235.861 29.876C235.901 30.068 235.997 30.26 236.149 30.452C236.309 30.636 236.529 30.792 236.809 30.92C237.097 31.04 237.465 31.1 237.913 31.1C238.601 31.1 239.105 30.98 239.425 30.74C239.753 30.492 239.917 30.164 239.917 29.756C239.917 29.476 239.829 29.252 239.653 29.084C239.485 28.908 239.225 28.752 238.873 28.616C238.521 28.48 238.065 28.332 237.505 28.172C236.921 28.004 236.437 27.82 236.053 27.62C235.669 27.42 235.381 27.172 235.189 26.876C235.005 26.58 234.913 26.204 234.913 25.748C234.913 25.316 235.029 24.932 235.261 24.596C235.493 24.252 235.825 23.98 236.257 23.78C236.697 23.58 237.229 23.48 237.853 23.48C238.349 23.48 238.781 23.548 239.149 23.684C239.525 23.812 239.837 23.988 240.085 24.212C240.333 24.428 240.521 24.664 240.649 24.92C240.777 25.168 240.845 25.412 240.853 25.652C240.853 25.708 240.833 25.764 240.793 25.82C240.753 25.868 240.689 25.892 240.601 25.892H239.965C239.909 25.892 239.849 25.876 239.785 25.844C239.729 25.812 239.685 25.752 239.653 25.664C239.605 25.336 239.421 25.06 239.101 24.836C238.781 24.612 238.365 24.5 237.853 24.5C237.333 24.5 236.909 24.6 236.581 24.8C236.261 25 236.101 25.312 236.101 25.736C236.101 26.008 236.177 26.236 236.329 26.42C236.481 26.596 236.721 26.752 237.049 26.888C237.377 27.024 237.805 27.168 238.333 27.32C238.973 27.496 239.497 27.684 239.905 27.884C240.313 28.076 240.613 28.32 240.805 28.616C241.005 28.904 241.105 29.276 241.105 29.732C241.105 30.236 240.973 30.668 240.709 31.028C240.445 31.38 240.073 31.652 239.593 31.844C239.121 32.028 238.561 32.12 237.913 32.12Z" fill="#F1F5F9"/>
<path fill-rule="evenodd" clip-rule="evenodd" d="M32.1997 0C32.9306 0 33.5233 0.59256 33.5233 1.32353V19.3136V20.6371H32.1997C25.3909 20.6371 21.2762 24.7456 20.1338 26.6443C19.757 27.2706 18.9437 27.473 18.3174 27.0961C17.8854 26.8362 17.6552 26.3687 17.6774 25.8982C16.0955 23.7946 12.0653 20.3724 5.79955 20.3724H4.74072V19.3136V1.32353C4.74072 0.738762 5.21477 0.264706 5.79955 0.264706C12.2387 0.264706 16.647 3.46111 18.8256 5.96626C20.9939 3.38626 25.5244 0 32.1997 0ZM17.6774 7.90819C16.1864 5.92563 12.5208 2.77163 6.85837 2.41541V18.2839C12.7236 18.6092 16.7685 21.5909 18.8256 23.9563C20.8473 21.5506 24.923 18.4439 30.8762 18.035V2.69979C24.8564 3.18413 21.2001 6.88193 20.1338 8.65432C19.757 9.28067 18.9437 9.48294 18.3174 9.1061C17.8854 8.84622 17.6552 8.37876 17.6774 7.90819Z" fill="white"/>
<path fill-rule="evenodd" clip-rule="evenodd" d="M18.0404 16.7453C17.2785 15.1456 14.6973 11.9792 10.5803 11.9792C9.99552 11.9792 9.52148 11.5052 9.52148 10.9204C9.52148 10.3356 9.99552 9.86157 10.5803 9.86157C14.6767 9.86157 17.5027 12.2784 19 14.2875C20.4974 12.2784 23.3232 9.86157 27.4197 9.86157C28.0045 9.86157 28.4786 10.3356 28.4786 10.9204C28.4786 11.5052 28.0045 11.9792 27.4197 11.9792C23.3026 11.9792 20.7214 15.1456 19.9596 16.7453C19.9164 16.8381 19.8596 16.925 19.7906 17.0025C19.7438 17.055 19.6913 17.1034 19.6336 17.1464C19.5666 17.1961 19.4944 17.2377 19.4185 17.2704C19.1597 17.3815 18.8582 17.3896 18.5814 17.2704C18.5697 17.2653 18.5578 17.2599 18.546 17.2544C18.4527 17.21 18.3687 17.1538 18.2952 17.0883C18.3808 17.1646 18.4776 17.2258 18.5814 17.2704" fill="#0EA5E9"/>
<path d="M19 34.1747C20.4348 30.8808 26.0435 24.3689 37 24.6729V7.1897" stroke="white" stroke-width="2" stroke-linecap="round"/>
<path d="M19 34.1747C17.5652 30.8808 11.9565 24.3689 1 24.6729V7.1897" stroke="white" stroke-width="2" stroke-linecap="round"/>
</svg>
