<svg width="45" height="45" viewBox="0 0 45 45" fill="none" xmlns="http://www.w3.org/2000/svg">
<g clip-path="url(#clip0_216_3068)">
<path d="M41.2457 30.8046L38.6649 23.8908V13.1337C38.6649 13.1321 38.6645 13.1313 38.6645 13.1298C38.6645 13.1273 38.6648 13.1248 38.6648 13.1224C38.6613 12.8522 38.5297 12.5997 38.3104 12.442L21.2643 0.178481L21.2637 0.179049C20.9729 -0.0466379 20.5576 -0.0657293 20.2437 0.160412L3.17263 12.4418C2.95308 12.5997 2.82171 12.8521 2.81819 13.1223C2.81467 13.3925 2.93933 13.6485 3.15445 13.812L11.7784 20.3715V20.9076C11.0575 22.2688 9.61301 26.0542 10.298 33.7175C10.3373 34.1569 10.7055 34.4938 11.1468 34.4938H15.6462V34.6529C13.2651 35.2094 5.66155 37.4106 4.28584 43.0638C4.22413 43.3179 4.28231 43.5864 4.44391 43.7919C4.6055 43.9975 4.85255 44.1176 5.11392 44.1176H36.3691C36.6307 44.1176 36.8777 43.9975 37.0392 43.7919C37.2008 43.5863 37.2591 43.3179 37.1973 43.0638C35.8218 37.4106 28.218 35.2095 25.837 34.6529V34.4938H30.3363C30.7777 34.4938 31.1459 34.1569 31.1852 33.7175C31.87 26.0543 30.4257 22.2688 29.7047 20.9076V20.3715L36.9606 14.8527V23.8906L34.3798 30.8046C34.2152 31.2456 34.4393 31.7365 34.8801 31.9012C34.9784 31.9379 35.0791 31.9552 35.1782 31.9552C35.5236 31.9552 35.8486 31.7434 35.9767 31.4007L36.9605 28.7651V31.1026C36.9605 31.5734 37.3421 31.9549 37.8128 31.9549C38.2835 31.9549 38.6651 31.5734 38.6651 31.1026V28.7652L39.6488 31.4007C39.7767 31.7434 40.1018 31.9552 40.4474 31.9552C40.5464 31.9552 40.647 31.9378 40.7452 31.9012C41.1861 31.7365 41.4102 31.2456 41.2457 30.8046ZM11.9328 32.7893C11.7202 29.8607 11.8414 27.5911 12.0911 25.8735C12.6516 28.4519 13.9331 30.6622 15.6461 32.1474V32.7893H11.9328ZM20.7491 16.7401C17.8576 16.7401 15.1842 17.6219 13.483 19.009V17.4508C13.483 15.1946 16.8105 13.2886 20.7491 13.2886C24.6795 13.2886 28 15.1946 28 17.4508V19.0061C26.3017 17.6207 23.6343 16.7401 20.7491 16.7401ZM27.4195 20.7732C23.1708 21.2107 20.7827 20.4821 19.5072 19.7583C18.8868 19.406 18.4762 19.0306 18.2076 18.7156C19.016 18.5412 19.876 18.4446 20.7491 18.4446C23.566 18.4447 26.169 19.3945 27.4195 20.7732ZM16.0844 19.4056C16.0096 20.1345 15.7696 20.7057 15.3653 21.1089C14.8006 21.6716 14.0035 21.8326 13.483 21.874V21.6558C13.8694 20.7683 14.8209 19.9794 16.0844 19.4056ZM6.31168 42.413C6.7476 41.4731 7.4225 40.6599 8.22332 39.9603L10.2001 42.413H6.31168ZM12.3893 42.413L9.5896 38.9395C10.8807 38.1065 12.3063 37.4913 13.5367 37.0563L17.7938 42.4131L12.3893 42.413ZM21.655 42.413H19.9711L19.1652 41.3989H22.4609L21.655 42.413ZM35.1711 42.413H31.4261L33.343 40.0345C34.1071 40.7173 34.7506 41.5059 35.1711 42.413ZM31.9872 39.0007L29.2368 42.413H23.8322L28.0575 37.0962C29.2925 37.5395 30.7102 38.1618 31.9872 39.0007ZM26.3201 36.5426L23.8155 39.6943H17.8105L15.2801 36.5101C16.0974 36.2859 16.6294 36.1848 16.6514 36.1807C17.0563 36.1068 17.3505 35.7539 17.3505 35.3423V33.3061C18.3972 33.8428 19.5418 34.1407 20.7413 34.1407C21.9409 34.1407 23.0855 33.8428 24.1322 33.3061V35.3423C24.1322 35.7535 24.4263 36.1063 24.8309 36.1806C24.8542 36.1849 25.4363 36.2957 26.3201 36.5426ZM20.7415 32.4361C16.9039 32.4361 13.7544 28.5188 13.5013 23.5803C14.2907 23.5319 15.5783 23.2937 16.5551 22.3295C17.0545 21.8364 17.4064 21.2271 17.6091 20.5067C19.143 21.7955 22.1698 23.102 27.9999 22.4231V22.9391C27.9999 28.1759 24.7438 32.4361 20.7415 32.4361ZM29.5502 32.7893H25.8369V32.1473C27.5497 30.6622 28.8313 28.4519 29.3919 25.8736C29.6414 27.5913 29.7628 29.8606 29.5502 32.7893ZM29.7045 18.2298V17.4508C29.7045 14.161 25.7708 11.584 20.749 11.584C18.4275 11.584 16.231 12.1507 14.5637 13.1798C12.7674 14.2886 11.7782 15.8054 11.7782 17.4508V18.2298L5.10301 13.1527L20.7415 1.90205L36.3796 13.1528L29.7045 18.2298Z" fill="#1E40AF"/>
<path d="M41.2457 30.8046L38.6649 23.8908V13.1337C38.6649 13.1321 38.6645 13.1313 38.6645 13.1298C38.6645 13.1273 38.6648 13.1248 38.6648 13.1224C38.6613 12.8522 38.5297 12.5997 38.3104 12.442L21.2643 0.178481L21.2637 0.179049C20.9729 -0.0466379 20.5576 -0.0657293 20.2437 0.160412L3.17263 12.4418C2.95308 12.5997 2.82171 12.8521 2.81819 13.1223C2.81467 13.3925 2.93933 13.6485 3.15445 13.812L11.7784 20.3715V20.9076C11.0575 22.2688 9.61301 26.0542 10.298 33.7175C10.3373 34.1569 10.7055 34.4938 11.1468 34.4938H15.6462V34.6529C13.2651 35.2094 5.66155 37.4106 4.28584 43.0638C4.22413 43.3179 4.28231 43.5864 4.44391 43.7919C4.6055 43.9975 4.85255 44.1176 5.11392 44.1176H36.3691C36.6307 44.1176 36.8777 43.9975 37.0392 43.7919C37.2008 43.5863 37.2591 43.3179 37.1973 43.0638C35.8218 37.4106 28.218 35.2095 25.837 34.6529V34.4938H30.3363C30.7777 34.4938 31.1459 34.1569 31.1852 33.7175C31.87 26.0543 30.4257 22.2688 29.7047 20.9076V20.3715L36.9606 14.8527V23.8906L34.3798 30.8046C34.2152 31.2456 34.4393 31.7365 34.8801 31.9012C34.9784 31.9379 35.0791 31.9552 35.1782 31.9552C35.5236 31.9552 35.8486 31.7434 35.9767 31.4007L36.9605 28.7651V31.1026C36.9605 31.5734 37.3421 31.9549 37.8128 31.9549C38.2835 31.9549 38.6651 31.5734 38.6651 31.1026V28.7652L39.6488 31.4007C39.7767 31.7434 40.1018 31.9552 40.4474 31.9552C40.5464 31.9552 40.647 31.9378 40.7452 31.9012C41.1861 31.7365 41.4102 31.2456 41.2457 30.8046ZM11.9328 32.7893C11.7202 29.8607 11.8414 27.5911 12.0911 25.8735C12.6516 28.4519 13.9331 30.6622 15.6461 32.1474V32.7893H11.9328ZM20.7491 16.7401C17.8576 16.7401 15.1842 17.6219 13.483 19.009V17.4508C13.483 15.1946 16.8105 13.2886 20.7491 13.2886C24.6795 13.2886 28 15.1946 28 17.4508V19.0061C26.3017 17.6207 23.6343 16.7401 20.7491 16.7401ZM27.4195 20.7732C23.1708 21.2107 20.7827 20.4821 19.5072 19.7583C18.8868 19.406 18.4762 19.0306 18.2076 18.7156C19.016 18.5412 19.876 18.4446 20.7491 18.4446C23.566 18.4447 26.169 19.3945 27.4195 20.7732ZM16.0844 19.4056C16.0096 20.1345 15.7696 20.7057 15.3653 21.1089C14.8006 21.6716 14.0035 21.8326 13.483 21.874V21.6558C13.8694 20.7683 14.8209 19.9794 16.0844 19.4056ZM6.31168 42.413C6.7476 41.4731 7.4225 40.6599 8.22332 39.9603L10.2001 42.413H6.31168ZM12.3893 42.413L9.5896 38.9395C10.8807 38.1065 12.3063 37.4913 13.5367 37.0563L17.7938 42.4131L12.3893 42.413ZM21.655 42.413H19.9711L19.1652 41.3989H22.4609L21.655 42.413ZM35.1711 42.413H31.4261L33.343 40.0345C34.1071 40.7173 34.7506 41.5059 35.1711 42.413ZM31.9872 39.0007L29.2368 42.413H23.8322L28.0575 37.0962C29.2925 37.5395 30.7102 38.1618 31.9872 39.0007ZM26.3201 36.5426L23.8155 39.6943H17.8105L15.2801 36.5101C16.0974 36.2859 16.6294 36.1848 16.6514 36.1807C17.0563 36.1068 17.3505 35.7539 17.3505 35.3423V33.3061C18.3972 33.8428 19.5418 34.1407 20.7413 34.1407C21.9409 34.1407 23.0855 33.8428 24.1322 33.3061V35.3423C24.1322 35.7535 24.4263 36.1063 24.8309 36.1806C24.8542 36.1849 25.4363 36.2957 26.3201 36.5426ZM20.7415 32.4361C16.9039 32.4361 13.7544 28.5188 13.5013 23.5803C14.2907 23.5319 15.5783 23.2937 16.5551 22.3295C17.0545 21.8364 17.4064 21.2271 17.6091 20.5067C19.143 21.7955 22.1698 23.102 27.9999 22.4231V22.9391C27.9999 28.1759 24.7438 32.4361 20.7415 32.4361ZM29.5502 32.7893H25.8369V32.1473C27.5497 30.6622 28.8313 28.4519 29.3919 25.8736C29.6414 27.5913 29.7628 29.8606 29.5502 32.7893ZM29.7045 18.2298V17.4508C29.7045 14.161 25.7708 11.584 20.749 11.584C18.4275 11.584 16.231 12.1507 14.5637 13.1798C12.7674 14.2886 11.7782 15.8054 11.7782 17.4508V18.2298L5.10301 13.1527L20.7415 1.90205L36.3796 13.1528L29.7045 18.2298Z" fill="#1E40AF"/>
</g>
<defs>
<clipPath id="clip0_216_3068">
<rect width="44.1176" height="44.1176" fill="white"/>
</clipPath>
</defs>
</svg>
