<svg width="45" height="45" viewBox="0 0 45 45" fill="none" xmlns="http://www.w3.org/2000/svg">
<path d="M22.5 0C13.3313 0 5.87183 7.45929 5.87183 16.6281C5.87183 25.505 21.0308 43.8376 21.6761 44.6136C21.8797 44.8583 22.1815 45 22.5 45C22.8183 45 23.1203 44.8584 23.3238 44.6136C23.9693 43.8374 39.1281 25.505 39.1281 16.6281C39.1281 7.45929 31.6688 0 22.5 0ZM22.5 42.2283C21.1558 40.5499 18.3631 36.9739 15.5995 32.8859C10.6375 25.546 8.01468 19.9241 8.01468 16.6281C8.01468 8.64086 14.5128 2.14286 22.5 2.14286C30.4871 2.14286 36.9852 8.64086 36.9852 16.6281C36.9852 19.924 34.3625 25.5459 29.4004 32.8859C26.6367 36.9739 23.8441 40.5499 22.5 42.2283Z" fill="#1E40AF"/>
<path d="M27.951 30.5652C27.4607 30.2339 26.7946 30.363 26.4634 30.8533C25.0176 32.9936 23.3978 35.2367 21.6493 37.5205C21.2896 37.9903 21.3787 38.6627 21.8486 39.0225C22.0428 39.1713 22.2718 39.2433 22.4991 39.2433C22.8211 39.2433 23.1397 39.0986 23.3506 38.8232C25.1248 36.506 26.7696 34.2282 28.239 32.0529C28.5703 31.5626 28.4414 30.8964 27.951 30.5652Z" fill="#1E40AF"/>
<path d="M22.5001 8.21423C17.6556 8.21423 13.7144 12.1555 13.7144 16.9999C13.7144 21.8444 17.6556 25.7857 22.5001 25.7857C27.3445 25.7857 31.2858 21.8444 31.2858 16.9999C31.2858 12.1555 27.3445 8.21423 22.5001 8.21423ZM22.5001 23.6428C18.8372 23.6428 15.8572 20.6628 15.8572 16.9999C15.8572 13.3371 18.8372 10.3571 22.5001 10.3571C26.1631 10.3571 29.1429 13.3371 29.1429 16.9999C29.1429 20.6628 26.1631 23.6428 22.5001 23.6428Z" fill="#1E40AF"/>
</svg>
