<svg width="304" height="34" viewBox="0 0 304 34" fill="none" xmlns="http://www.w3.org/2000/svg">
<g clip-path="url(#clip0_222_34)">
<path d="M61.1676 12C61.1108 11.2898 60.8445 10.7358 60.3686 10.3381C59.8999 9.94037 59.1861 9.7415 58.2273 9.7415C57.6165 9.7415 57.1158 9.81608 56.7251 9.96523C56.3416 10.1072 56.0575 10.3026 55.8729 10.5511C55.6882 10.7997 55.5923 11.0838 55.5852 11.4034C55.571 11.6662 55.6172 11.9041 55.7237 12.1172C55.8374 12.3232 56.0149 12.5114 56.2564 12.6818C56.4979 12.8452 56.8068 12.9943 57.1832 13.1293C57.5597 13.2642 58.0071 13.3849 58.5256 13.4915L60.3153 13.875C61.5227 14.1307 62.5561 14.468 63.4155 14.8871C64.2749 15.3061 64.978 15.7997 65.5249 16.3679C66.0717 16.929 66.473 17.5611 66.7287 18.2642C66.9915 18.9673 67.1264 19.7344 67.1335 20.5653C67.1264 22 66.7678 23.2145 66.0575 24.2088C65.3473 25.2031 64.3317 25.9595 63.0107 26.478C61.6967 26.9964 60.1165 27.2557 58.2699 27.2557C56.3736 27.2557 54.7188 26.9751 53.3054 26.4141C51.8991 25.853 50.8054 24.9901 50.0241 23.8253C49.25 22.6534 48.8594 21.1548 48.8523 19.3295H54.4773C54.5128 19.9972 54.6797 20.5582 54.978 21.0128C55.2763 21.4673 55.6953 21.8118 56.2351 22.0462C56.782 22.2805 57.4318 22.3977 58.1847 22.3977C58.8168 22.3977 59.3459 22.3196 59.772 22.1634C60.1982 22.0071 60.5213 21.7905 60.7415 21.5135C60.9616 21.2365 61.0753 20.9205 61.0824 20.5653C61.0753 20.2315 60.9652 19.9403 60.7521 19.6918C60.5462 19.4361 60.2053 19.2088 59.7294 19.0099C59.2536 18.804 58.6108 18.6122 57.8011 18.4347L55.6278 17.9659C53.696 17.5469 52.1726 16.8473 51.0575 15.8672C49.9496 14.88 49.3991 13.5341 49.4062 11.8295C49.3991 10.4446 49.7685 9.23368 50.5142 8.19675C51.267 7.15272 52.3075 6.33951 53.6357 5.75712C54.9709 5.17474 56.5014 4.88354 58.2273 4.88354C59.9886 4.88354 61.5121 5.17829 62.7976 5.76778C64.0831 6.35726 65.0739 7.18823 65.7699 8.26067C66.473 9.32601 66.8281 10.5724 66.8352 12H61.1676ZM79.2305 10.6364V14.8977H68.4492V10.6364H79.2305ZM70.5373 6.71593H76.418V21.7372C76.418 21.9645 76.457 22.1562 76.5352 22.3125C76.6133 22.4616 76.734 22.5753 76.8974 22.6534C77.0607 22.7244 77.2702 22.7599 77.5259 22.7599C77.7035 22.7599 77.9094 22.7386 78.1438 22.696C78.3853 22.6534 78.5629 22.6179 78.6765 22.5895L79.5288 26.723C79.266 26.8011 78.8896 26.897 78.3995 27.0107C77.9165 27.1243 77.3413 27.1989 76.6737 27.2344C75.3242 27.3054 74.1914 27.1669 73.2752 26.8189C72.359 26.4638 71.6701 25.9062 71.2085 25.1463C70.7468 24.3864 70.5231 23.4347 70.5373 22.2912V6.71593ZM92.2409 19.8409V10.6364H98.1216V27H92.5392V23.8892H92.3688C92.0137 24.9332 91.3922 25.75 90.5044 26.3395C89.6167 26.9219 88.562 27.2131 87.3404 27.2131C86.1969 27.2131 85.1955 26.9503 84.3361 26.4247C83.4838 25.8991 82.8198 25.1747 82.3439 24.2514C81.8752 23.3281 81.6373 22.2699 81.6301 21.0767V10.6364H87.5108V19.8409C87.5179 20.6506 87.7239 21.2862 88.1287 21.7479C88.5407 22.2095 89.1159 22.4403 89.8546 22.4403C90.3446 22.4403 90.7672 22.3374 91.1223 22.1314C91.4846 21.9183 91.7615 21.62 91.9533 21.2365C92.1522 20.8459 92.248 20.3807 92.2409 19.8409ZM107.036 27.2131C105.871 27.2131 104.799 26.9077 103.819 26.2969C102.846 25.6861 102.064 24.7592 101.475 23.5163C100.892 22.2734 100.601 20.7074 100.601 18.8182C100.601 16.8437 100.907 15.2386 101.517 14.0028C102.135 12.767 102.931 11.8615 103.904 11.2862C104.884 10.7109 105.914 10.4233 106.993 10.4233C107.803 10.4233 108.513 10.5653 109.124 10.8494C109.735 11.1264 110.246 11.4993 110.658 11.968C111.07 12.4297 111.382 12.9375 111.596 13.4915H111.681V5.18184H117.561V27H111.723V24.3153H111.596C111.368 24.8693 111.042 25.3665 110.615 25.8068C110.196 26.2401 109.685 26.5845 109.081 26.8402C108.485 27.0888 107.803 27.2131 107.036 27.2131ZM109.209 22.696C109.749 22.696 110.211 22.5398 110.594 22.2273C110.985 21.9077 111.283 21.4602 111.489 20.8849C111.702 20.3026 111.809 19.6136 111.809 18.8182C111.809 18.0085 111.702 17.3161 111.489 16.7408C111.283 16.1584 110.985 15.7145 110.594 15.4091C110.211 15.0966 109.749 14.9403 109.209 14.9403C108.669 14.9403 108.208 15.0966 107.824 15.4091C107.448 15.7145 107.157 16.1584 106.951 16.7408C106.752 17.3161 106.652 18.0085 106.652 18.8182C106.652 19.6278 106.752 20.3239 106.951 20.9062C107.157 21.4815 107.448 21.9254 107.824 22.2379C108.208 22.5433 108.669 22.696 109.209 22.696ZM128.289 27.2983C126.542 27.2983 125.037 26.9645 123.772 26.2969C122.515 25.6222 121.546 24.6562 120.864 23.3991C120.189 22.1349 119.852 20.6222 119.852 18.8608C119.852 17.1705 120.193 15.6932 120.875 14.429C121.556 13.1648 122.519 12.1811 123.762 11.478C125.005 10.7749 126.471 10.4233 128.162 10.4233C129.397 10.4233 130.516 10.6151 131.517 10.9986C132.519 11.3821 133.375 11.9396 134.085 12.6712C134.795 13.3956 135.342 14.2763 135.725 15.3132C136.109 16.3501 136.301 17.5185 136.301 18.8182V20.1818H121.684V16.9432H130.889C130.882 16.4744 130.761 16.0625 130.527 15.7074C130.299 15.3452 129.99 15.0646 129.6 14.8658C129.216 14.6598 128.779 14.5568 128.289 14.5568C127.814 14.5568 127.377 14.6598 126.979 14.8658C126.581 15.0646 126.262 15.3416 126.02 15.6967C125.786 16.0518 125.662 16.4673 125.647 16.9432V20.4375C125.647 20.9631 125.757 21.4318 125.978 21.8438C126.198 22.2557 126.514 22.5788 126.926 22.8132C127.338 23.0476 127.835 23.1648 128.417 23.1648C128.822 23.1648 129.191 23.108 129.525 22.9943C129.866 22.8807 130.157 22.7173 130.399 22.5043C130.64 22.2841 130.818 22.0213 130.931 21.7159H136.301C136.116 22.8523 135.679 23.8395 134.99 24.6776C134.301 25.5085 133.389 26.1548 132.252 26.6165C131.123 27.071 129.802 27.2983 128.289 27.2983ZM144.581 17.7955V27H138.7V10.6364H144.283V13.7472H144.453C144.808 12.7102 145.433 11.897 146.328 11.3075C147.23 10.718 148.281 10.4233 149.482 10.4233C150.639 10.4233 151.644 10.6896 152.497 11.2223C153.356 11.7479 154.02 12.4723 154.489 13.3956C154.965 14.3189 155.199 15.3736 155.192 16.5597V27H149.311V17.7955C149.318 16.9858 149.112 16.3501 148.693 15.8885C148.281 15.4268 147.706 15.196 146.968 15.196C146.485 15.196 146.062 15.3026 145.7 15.5156C145.345 15.7216 145.071 16.0199 144.879 16.4105C144.688 16.794 144.588 17.2557 144.581 17.7955ZM167.854 10.6364V14.8977H157.072V10.6364H167.854ZM159.16 6.71593H165.041V21.7372C165.041 21.9645 165.08 22.1562 165.158 22.3125C165.236 22.4616 165.357 22.5753 165.52 22.6534C165.684 22.7244 165.893 22.7599 166.149 22.7599C166.327 22.7599 166.532 22.7386 166.767 22.696C167.008 22.6534 167.186 22.6179 167.3 22.5895L168.152 26.723C167.889 26.8011 167.513 26.897 167.023 27.0107C166.54 27.1243 165.964 27.1989 165.297 27.2344C163.947 27.3054 162.814 27.1669 161.898 26.8189C160.982 26.4638 160.293 25.9062 159.831 25.1463C159.37 24.3864 159.146 23.4347 159.16 22.2912V6.71593Z" fill="#1E40AF"/>
<path d="M196.514 13.3636H190.505C190.463 12.8665 190.349 12.4155 190.164 12.0107C189.987 11.6058 189.738 11.2578 189.419 10.9666C189.106 10.6683 188.726 10.4411 188.279 10.2848C187.831 10.1214 187.324 10.0398 186.755 10.0398C185.761 10.0398 184.919 10.2812 184.23 10.7642C183.549 11.2472 183.03 11.9396 182.675 12.8416C182.327 13.7436 182.153 14.8267 182.153 16.0909C182.153 17.4261 182.331 18.5447 182.686 19.4467C183.048 20.3416 183.57 21.0163 184.252 21.4709C184.934 21.9183 185.754 22.142 186.713 22.142C187.26 22.142 187.75 22.0746 188.183 21.9396C188.616 21.7976 188.993 21.5952 189.312 21.3324C189.632 21.0696 189.891 20.7536 190.09 20.3842C190.296 20.0078 190.434 19.5852 190.505 19.1165L196.514 19.1591C196.443 20.0824 196.184 21.0234 195.736 21.9822C195.289 22.9339 194.653 23.8146 193.829 24.6243C193.012 25.4268 192 26.0732 190.793 26.5632C189.586 27.0533 188.183 27.2983 186.585 27.2983C184.582 27.2983 182.785 26.8686 181.194 26.0092C179.61 25.1499 178.357 23.8857 177.434 22.2166C176.517 20.5476 176.059 18.5057 176.059 16.0909C176.059 13.6619 176.528 11.6165 177.466 9.95457C178.403 8.28553 179.667 7.02488 181.258 6.1726C182.849 5.31323 184.625 4.88354 186.585 4.88354C187.963 4.88354 189.23 5.07175 190.388 5.44817C191.546 5.82459 192.561 6.37502 193.435 7.09945C194.309 7.81678 195.012 8.70101 195.544 9.75215C196.077 10.8033 196.4 12.0071 196.514 13.3636ZM207.17 27.2983C205.394 27.2983 203.874 26.9467 202.61 26.2436C201.346 25.5334 200.377 24.5462 199.702 23.282C199.027 22.0107 198.69 20.5369 198.69 18.8608C198.69 17.1847 199.027 15.7145 199.702 14.4503C200.377 13.179 201.346 12.1918 202.61 11.4886C203.874 10.7784 205.394 10.4233 207.17 10.4233C208.945 10.4233 210.465 10.7784 211.73 11.4886C212.994 12.1918 213.963 13.179 214.638 14.4503C215.313 15.7145 215.65 17.1847 215.65 18.8608C215.65 20.5369 215.313 22.0107 214.638 23.282C213.963 24.5462 212.994 25.5334 211.73 26.2436C210.465 26.9467 208.945 27.2983 207.17 27.2983ZM207.213 22.9517C207.71 22.9517 208.139 22.7848 208.502 22.451C208.864 22.1172 209.144 21.6413 209.343 21.0234C209.542 20.4055 209.642 19.6705 209.642 18.8182C209.642 17.9588 209.542 17.2237 209.343 16.6129C209.144 15.995 208.864 15.5192 208.502 15.1854C208.139 14.8516 207.71 14.6847 207.213 14.6847C206.687 14.6847 206.236 14.8516 205.86 15.1854C205.483 15.5192 205.195 15.995 204.997 16.6129C204.798 17.2237 204.698 17.9588 204.698 18.8182C204.698 19.6705 204.798 20.4055 204.997 21.0234C205.195 21.6413 205.483 22.1172 205.86 22.451C206.236 22.7848 206.687 22.9517 207.213 22.9517ZM223.917 17.7955V27H218.036V10.6364H223.619V13.7472H223.789C224.144 12.7102 224.769 11.897 225.664 11.3075C226.566 10.718 227.617 10.4233 228.818 10.4233C229.975 10.4233 230.98 10.6896 231.833 11.2223C232.692 11.7479 233.356 12.4723 233.825 13.3956C234.301 14.3189 234.535 15.3736 234.528 16.5597V27H228.647V17.7955C228.654 16.9858 228.448 16.3501 228.029 15.8885C227.617 15.4268 227.042 15.196 226.303 15.196C225.82 15.196 225.398 15.3026 225.036 15.5156C224.681 15.7216 224.407 16.0199 224.215 16.4105C224.024 16.794 223.924 17.2557 223.917 17.7955ZM243.312 17.7955V27H237.431V10.6364H243.013V13.7472H243.184C243.539 12.7102 244.164 11.897 245.059 11.3075C245.961 10.718 247.012 10.4233 248.212 10.4233C249.37 10.4233 250.375 10.6896 251.227 11.2223C252.086 11.7479 252.751 12.4723 253.219 13.3956C253.695 14.3189 253.93 15.3736 253.922 16.5597V27H248.042V17.7955C248.049 16.9858 247.843 16.3501 247.424 15.8885C247.012 15.4268 246.437 15.196 245.698 15.196C245.215 15.196 244.792 15.3026 244.43 15.5156C244.075 15.7216 243.802 16.0199 243.61 16.4105C243.418 16.794 243.319 17.2557 243.312 17.7955ZM264.666 27.2983C262.919 27.2983 261.414 26.9645 260.149 26.2969C258.892 25.6222 257.923 24.6562 257.241 23.3991C256.566 22.1349 256.229 20.6222 256.229 18.8608C256.229 17.1705 256.57 15.6932 257.252 14.429C257.933 13.1648 258.896 12.1811 260.139 11.478C261.382 10.7749 262.848 10.4233 264.539 10.4233C265.774 10.4233 266.893 10.6151 267.894 10.9986C268.896 11.3821 269.752 11.9396 270.462 12.6712C271.172 13.3956 271.719 14.2763 272.102 15.3132C272.486 16.3501 272.678 17.5185 272.678 18.8182V20.1818H258.061V16.9432H267.266C267.259 16.4744 267.138 16.0625 266.904 15.7074C266.676 15.3452 266.367 15.0646 265.977 14.8658C265.593 14.6598 265.156 14.5568 264.666 14.5568C264.191 14.5568 263.754 14.6598 263.356 14.8658C262.958 15.0646 262.639 15.3416 262.397 15.6967C262.163 16.0518 262.039 16.4673 262.024 16.9432V20.4375C262.024 20.9631 262.134 21.4318 262.355 21.8438C262.575 22.2557 262.891 22.5788 263.303 22.8132C263.715 23.0476 264.212 23.1648 264.794 23.1648C265.199 23.1648 265.568 23.108 265.902 22.9943C266.243 22.8807 266.534 22.7173 266.776 22.5043C267.017 22.2841 267.195 22.0213 267.308 21.7159H272.678C272.493 22.8523 272.056 23.8395 271.367 24.6776C270.678 25.5085 269.766 26.1548 268.629 26.6165C267.5 27.071 266.179 27.2983 264.666 27.2983ZM282.961 27.2983C281.185 27.2983 279.665 26.9467 278.401 26.2436C277.137 25.5334 276.168 24.5462 275.493 23.282C274.818 22.0107 274.481 20.5369 274.481 18.8608C274.481 17.1847 274.818 15.7145 275.493 14.4503C276.168 13.179 277.137 12.1918 278.401 11.4886C279.665 10.7784 281.185 10.4233 282.961 10.4233C284.566 10.4233 285.955 10.7145 287.126 11.2969C288.305 11.8722 289.218 12.6889 289.864 13.7472C290.511 14.7983 290.837 16.0341 290.844 17.4545H285.39C285.312 16.5952 285.063 15.9418 284.644 15.4943C284.232 15.0398 283.7 14.8125 283.046 14.8125C282.535 14.8125 282.087 14.9616 281.704 15.2599C281.32 15.5511 281.022 15.995 280.809 16.5916C280.596 17.1811 280.489 17.9233 280.489 18.8182C280.489 19.7131 280.596 20.4588 280.809 21.0554C281.022 21.6449 281.32 22.0888 281.704 22.3871C282.087 22.6783 282.535 22.8239 283.046 22.8239C283.479 22.8239 283.863 22.7244 284.197 22.5256C284.531 22.3196 284.8 22.0213 285.006 21.6307C285.219 21.233 285.347 20.75 285.39 20.1818H290.844C290.823 21.6236 290.493 22.8807 289.854 23.9531C289.214 25.0185 288.309 25.8423 287.137 26.4247C285.972 27.0071 284.58 27.2983 282.961 27.2983ZM303.029 10.6364V14.8977H292.248V10.6364H303.029ZM294.336 6.71593H300.217V21.7372C300.217 21.9645 300.256 22.1562 300.334 22.3125C300.412 22.4616 300.533 22.5753 300.696 22.6534C300.86 22.7244 301.069 22.7599 301.325 22.7599C301.502 22.7599 301.708 22.7386 301.943 22.696C302.184 22.6534 302.362 22.6179 302.475 22.5895L303.328 26.723C303.065 26.8011 302.688 26.897 302.198 27.0107C301.715 27.1243 301.14 27.1989 300.472 27.2344C299.123 27.3054 297.99 27.1669 297.074 26.8189C296.158 26.4638 295.469 25.9062 295.007 25.1463C294.546 24.3864 294.322 23.4347 294.336 22.2912V6.71593Z" fill="#0EA5E9"/>
<path fill-rule="evenodd" clip-rule="evenodd" d="M31.4665 0C32.1568 0 32.7165 0.55964 32.7165 1.25V18.2406V19.4906H31.4665C25.0359 19.4906 21.1498 23.3708 20.0709 25.1641C19.715 25.7556 18.9469 25.9467 18.3554 25.5908C17.9474 25.3453 17.73 24.9038 17.751 24.4594C16.2569 22.4727 12.4506 19.2406 6.53296 19.2406H5.53296V18.2406V1.25C5.53296 0.69772 5.98067 0.25 6.53296 0.25C12.6144 0.25 16.7778 3.26883 18.8354 5.6348C20.8832 3.19813 25.162 0 31.4665 0ZM17.751 7.46885C16.3428 5.59643 12.8808 2.61765 7.53296 2.28122V17.2681C13.0724 17.5754 16.8926 20.3914 18.8354 22.6254C20.7448 20.3533 24.594 17.4192 30.2165 17.0331V2.5498C24.5311 3.00723 21.078 6.4996 20.0709 8.17353C19.715 8.76508 18.9469 8.95611 18.3554 8.60021C17.9474 8.35476 17.73 7.91327 17.751 7.46885Z" fill="#1E40AF"/>
<path fill-rule="evenodd" clip-rule="evenodd" d="M18.0937 15.815C17.3742 14.3042 14.9364 11.3137 11.0481 11.3137C10.4958 11.3137 10.0481 10.866 10.0481 10.3137C10.0481 9.76142 10.4958 9.31372 11.0481 9.31372C14.9169 9.31372 17.5859 11.5963 19 13.4938C20.4142 11.5963 23.0831 9.31372 26.952 9.31372C27.5043 9.31372 27.952 9.76142 27.952 10.3137C27.952 10.866 27.5043 11.3137 26.952 11.3137C23.0636 11.3137 20.6258 14.3042 19.9063 15.815C19.8655 15.9027 19.8119 15.9847 19.7467 16.0579C19.7025 16.1075 19.6529 16.1532 19.5984 16.1938C19.5352 16.2408 19.467 16.2801 19.3953 16.3109C19.1509 16.4159 18.8661 16.4235 18.6047 16.3109C18.5936 16.3061 18.5824 16.301 18.5713 16.2958C18.4831 16.2539 18.4038 16.2008 18.3344 16.139C18.4152 16.211 18.5067 16.2688 18.6047 16.3109" fill="#0EA5E9"/>
<path d="M19 32.2761C20.3551 29.1652 25.6522 23.0151 36 23.3022V6.79028" stroke="#1E40AF" stroke-width="2.5" stroke-linecap="round"/>
<path d="M19 32.2761C17.6449 29.1652 12.3478 23.0151 2 23.3022V6.79028" stroke="#1E40AF" stroke-width="2.5" stroke-linecap="round"/>
</g>
<defs>
<clipPath id="clip0_222_34">
<rect width="304" height="34" fill="white"/>
</clipPath>
</defs>
</svg>
