<svg width="398" height="358" viewBox="0 0 398 358" fill="none" xmlns="http://www.w3.org/2000/svg">
<path d="M129.6 308.52C71.71 334.45 12.92 300 1.72999 198.4C-7.92001 110.75 58.62 85.6199 133.78 101.88C203.65 117 188.63 9.05994 283.51 0.45994C364.75 -6.91006 464.77 205 334 236C280 248.79 274.05 227.24 228.21 243.85C167.59 265.85 182.54 284.8 129.6 308.52Z" fill="#0EA5E9"/>
<path opacity="0.9" d="M129.6 308.52C71.71 334.45 12.92 300 1.72999 198.4C-7.92001 110.75 58.62 85.6199 133.78 101.88C203.65 117 188.63 9.05994 283.51 0.45994C364.75 -6.91006 464.77 205 334 236C280 248.79 274.05 227.24 228.21 243.85C167.59 265.85 182.54 284.8 129.6 308.52Z" fill="white"/>
<path d="M194.18 357.71C301.262 357.71 388.07 352.642 388.07 346.39C388.07 340.138 301.262 335.07 194.18 335.07C87.0975 335.07 0.290009 340.138 0.290009 346.39C0.290009 352.642 87.0975 357.71 194.18 357.71Z" fill="#F5F5F5"/>
<path d="M259.24 4.77002H35.86C28.7521 4.77002 22.99 10.5321 22.99 17.64V162.75C22.99 169.858 28.7521 175.62 35.86 175.62H259.24C266.348 175.62 272.11 169.858 272.11 162.75V17.64C272.11 10.5321 266.348 4.77002 259.24 4.77002Z" fill="#263238"/>
<path d="M259.24 180.12H35.86C31.2548 180.115 26.8398 178.283 23.5834 175.027C20.327 171.77 18.4953 167.355 18.49 162.75V17.64C18.4953 13.0348 20.327 8.61979 23.5834 5.36343C26.8398 2.10707 31.2548 0.275313 35.86 0.27002H259.24C263.844 0.277951 268.258 2.11055 271.514 5.36634C274.769 8.62213 276.602 13.0356 276.61 17.64V162.75C276.605 167.355 274.773 171.77 271.517 175.027C268.26 178.283 263.845 180.115 259.24 180.12ZM35.86 9.27002C33.6418 9.2753 31.5159 10.1588 29.9473 11.7274C28.3788 13.2959 27.4953 15.4218 27.49 17.64V162.75C27.4926 164.969 28.3753 167.096 29.9444 168.666C31.5135 170.235 33.6409 171.117 35.86 171.12H259.24C261.459 171.117 263.586 170.235 265.156 168.666C266.725 167.096 267.607 164.969 267.61 162.75V17.64C267.605 15.4218 266.721 13.2959 265.153 11.7274C263.584 10.1588 261.458 9.2753 259.24 9.27002H35.86Z" fill="#0EA5E9"/>
<g opacity="0.3">
<path opacity="0.3" d="M259.24 180.12H35.86C31.2548 180.115 26.8398 178.283 23.5834 175.027C20.327 171.77 18.4953 167.355 18.49 162.75V17.64C18.4953 13.0348 20.327 8.61979 23.5834 5.36343C26.8398 2.10707 31.2548 0.275313 35.86 0.27002H259.24C263.844 0.277951 268.258 2.11055 271.514 5.36634C274.769 8.62213 276.602 13.0356 276.61 17.64V162.75C276.605 167.355 274.773 171.77 271.517 175.027C268.26 178.283 263.845 180.115 259.24 180.12ZM35.86 9.27002C33.6418 9.2753 31.5159 10.1588 29.9473 11.7274C28.3788 13.2959 27.4953 15.4218 27.49 17.64V162.75C27.4926 164.969 28.3753 167.096 29.9444 168.666C31.5135 170.235 33.6409 171.117 35.86 171.12H259.24C261.459 171.117 263.586 170.235 265.156 168.666C266.725 167.096 267.607 164.969 267.61 162.75V17.64C267.605 15.4218 266.721 13.2959 265.153 11.7274C263.584 10.1588 261.458 9.2753 259.24 9.27002H35.86Z" fill="white"/>
</g>
<path d="M278.55 192.46H17.11C16.4469 192.46 15.8111 192.197 15.3422 191.728C14.8734 191.259 14.61 190.623 14.61 189.96C14.61 189.297 14.8734 188.661 15.3422 188.192C15.8111 187.723 16.4469 187.46 17.11 187.46H278.55C279.213 187.46 279.849 187.723 280.318 188.192C280.787 188.661 281.05 189.297 281.05 189.96C281.05 190.623 280.787 191.259 280.318 191.728C279.849 192.197 279.213 192.46 278.55 192.46Z" fill="#263238"/>
<path d="M279.55 325.2H16.11C15.4469 325.2 14.8111 324.937 14.3422 324.468C13.8734 323.999 13.61 323.363 13.61 322.7V94.5201C13.61 93.857 13.8734 93.2211 14.3422 92.7523C14.8111 92.2835 15.4469 92.0201 16.11 92.0201C16.773 92.0201 17.4089 92.2835 17.8778 92.7523C18.3466 93.2211 18.61 93.857 18.61 94.5201V320.2H277.05V94.2001C277.05 93.537 277.313 92.9012 277.782 92.4323C278.251 91.9635 278.887 91.7001 279.55 91.7001C280.213 91.7001 280.849 91.9635 281.318 92.4323C281.787 92.9012 282.05 93.537 282.05 94.2001V322.7C282.05 323.363 281.787 323.999 281.318 324.468C280.849 324.937 280.213 325.2 279.55 325.2Z" fill="#263238"/>
<path opacity="0.5" d="M279.55 91.7001C278.887 91.7001 278.251 91.9635 277.782 92.4323C277.313 92.9012 277.05 93.537 277.05 94.2001V187.46H18.61V94.5201C18.61 93.857 18.3466 93.2211 17.8778 92.7523C17.4089 92.2835 16.773 92.0201 16.11 92.0201C15.4469 92.0201 14.8111 92.2835 14.3422 92.7523C13.8734 93.2211 13.61 93.857 13.61 94.5201V322.7C13.61 323.363 13.8734 323.999 14.3422 324.468C14.8111 324.937 15.4469 325.2 16.11 325.2H279.55C280.213 325.2 280.849 324.937 281.318 324.468C281.787 323.999 282.05 323.363 282.05 322.7V94.2001C282.05 93.537 281.787 92.9012 281.318 92.4323C280.849 91.9635 280.213 91.7001 279.55 91.7001ZM18.61 320.2V192.46H277.05V320.2H18.61Z" fill="white"/>
<path d="M168.38 118C164.59 118 160.88 115.69 157.24 112.06H168.38C168.512 112.057 168.638 112.004 168.731 111.911C168.824 111.818 168.877 111.692 168.88 111.56C168.88 111.427 168.827 111.3 168.734 111.206C168.64 111.113 168.513 111.06 168.38 111.06H156.27L155.91 110.67V109.76C155.907 109.628 155.854 109.503 155.761 109.409C155.668 109.316 155.542 109.263 155.41 109.26C155.307 109.26 155.207 109.292 155.123 109.351C155.039 109.41 154.975 109.493 154.94 109.59C150.62 104.64 146.4 98.1 142.24 91.67C133.73 78.5 124.92 64.89 115.24 64.89H114.88V43.43L118.03 48.28C118.074 48.3517 118.136 48.4107 118.209 48.4511C118.283 48.4915 118.366 48.5118 118.45 48.51C118.545 48.5068 118.638 48.4792 118.72 48.43C118.83 48.3548 118.907 48.2395 118.933 48.1086C118.959 47.9777 118.933 47.8418 118.86 47.73L114.8 41.47C114.752 41.4039 114.689 41.3501 114.616 41.313C114.543 41.2759 114.462 41.2566 114.38 41.2566C114.298 41.2566 114.217 41.2759 114.144 41.313C114.071 41.3501 114.008 41.4039 113.96 41.47L109.89 47.73C109.817 47.8414 109.791 47.9772 109.819 48.1075C109.846 48.2379 109.924 48.3521 110.035 48.425C110.146 48.4979 110.282 48.5236 110.413 48.4964C110.543 48.4692 110.657 48.3914 110.73 48.28L113.88 43.43V65C104.75 66.2 96.37 79.15 88.26 91.69C83.68 98.78 79.01 106 74.26 111.08H65.26V109.78C65.26 109.647 65.2073 109.52 65.1136 109.426C65.0198 109.333 64.8926 109.28 64.76 109.28C64.6274 109.28 64.5002 109.333 64.4065 109.426C64.3127 109.52 64.26 109.647 64.26 109.78V111.08H60.38C60.2474 111.08 60.1202 111.133 60.0265 111.226C59.9327 111.32 59.88 111.447 59.88 111.58C59.88 111.713 59.9327 111.84 60.0265 111.934C60.1202 112.027 60.2474 112.08 60.38 112.08H64.26V114.14C64.26 114.273 64.3127 114.4 64.4065 114.494C64.5002 114.587 64.6274 114.64 64.76 114.64C64.8926 114.64 65.0198 114.587 65.1136 114.494C65.2073 114.4 65.26 114.273 65.26 114.14V112.1H73.26C69.62 115.73 65.91 118.04 62.13 118.04C61.9974 118.04 61.8702 118.093 61.7765 118.186C61.6827 118.28 61.63 118.407 61.63 118.54C61.63 118.673 61.6827 118.8 61.7765 118.894C61.8702 118.987 61.9974 119.04 62.13 119.04C66.46 119.04 70.61 116.3 74.65 112.1H75.65V114.16C75.65 114.293 75.7027 114.42 75.7965 114.514C75.8902 114.607 76.0174 114.66 76.15 114.66C76.2818 114.657 76.4075 114.604 76.5007 114.511C76.5939 114.418 76.6474 114.292 76.65 114.16V112.1H87V114.16C87.0026 114.292 87.0561 114.418 87.1493 114.511C87.2425 114.604 87.3682 114.657 87.5 114.66C87.6326 114.66 87.7598 114.607 87.8536 114.514C87.9473 114.42 88 114.293 88 114.16V112.1H98.33V114.16C98.33 114.293 98.3827 114.42 98.4764 114.514C98.5702 114.607 98.6974 114.66 98.83 114.66C98.9618 114.657 99.0875 114.604 99.1807 114.511C99.274 114.418 99.3274 114.292 99.33 114.16V112.1H109.6V114.16C109.603 114.292 109.656 114.418 109.749 114.511C109.843 114.604 109.968 114.657 110.1 114.66C110.233 114.66 110.36 114.607 110.454 114.514C110.547 114.42 110.6 114.293 110.6 114.16V112.1H113.9V124.2C113.9 124.333 113.953 124.46 114.046 124.554C114.14 124.647 114.267 124.7 114.4 124.7C114.533 124.7 114.66 124.647 114.754 124.554C114.847 124.46 114.9 124.333 114.9 124.2V112.1H120.9V114.16C120.9 114.293 120.953 114.42 121.046 114.514C121.14 114.607 121.267 114.66 121.4 114.66C121.533 114.66 121.66 114.607 121.754 114.514C121.847 114.42 121.9 114.293 121.9 114.16V112.1H132.22V114.16C132.223 114.292 132.276 114.418 132.369 114.511C132.463 114.604 132.588 114.657 132.72 114.66C132.853 114.66 132.98 114.607 133.074 114.514C133.167 114.42 133.22 114.293 133.22 114.16V112.1H143.55V114.16C143.55 114.293 143.603 114.42 143.696 114.514C143.79 114.607 143.917 114.66 144.05 114.66C144.183 114.66 144.31 114.607 144.404 114.514C144.497 114.42 144.55 114.293 144.55 114.16V112.1H154.88V114.16C154.88 114.293 154.933 114.42 155.026 114.514C155.12 114.607 155.247 114.66 155.38 114.66C155.512 114.657 155.638 114.604 155.731 114.511C155.824 114.418 155.877 114.292 155.88 114.16V112.16C159.88 116.33 164.04 119.05 168.35 119.05C168.483 119.05 168.61 118.997 168.704 118.904C168.797 118.81 168.85 118.683 168.85 118.55C168.85 118.417 168.797 118.29 168.704 118.196C168.61 118.103 168.483 118.05 168.35 118.05L168.38 118ZM110.6 111.1V109.8C110.6 109.667 110.547 109.54 110.454 109.446C110.36 109.353 110.233 109.3 110.1 109.3C109.968 109.303 109.843 109.356 109.749 109.449C109.656 109.542 109.603 109.668 109.6 109.8V111.1H99.28V109.8C99.2774 109.668 99.2239 109.542 99.1307 109.449C99.0375 109.356 98.9118 109.303 98.78 109.3C98.6474 109.3 98.5202 109.353 98.4265 109.446C98.3327 109.54 98.28 109.667 98.28 109.8V111.1H88V109.8C88 109.667 87.9473 109.54 87.8536 109.446C87.7598 109.353 87.6326 109.3 87.5 109.3C87.3682 109.303 87.2425 109.356 87.1493 109.449C87.0561 109.542 87.0026 109.668 87 109.8V111.1H76.63V109.94C80.9 104.94 85.05 98.56 89.12 92.25C97.07 79.96 105.28 67.25 113.9 66.03V111.1H110.6ZM144.6 111.1V109.8C144.6 109.667 144.547 109.54 144.454 109.446C144.36 109.353 144.233 109.3 144.1 109.3C143.967 109.3 143.84 109.353 143.746 109.446C143.653 109.54 143.6 109.667 143.6 109.8V111.1H133.25V109.8C133.249 109.72 133.229 109.642 133.191 109.572C133.152 109.502 133.097 109.443 133.03 109.4C133.131 109.384 133.224 109.338 133.3 109.27L142.3 100.27C142.392 100.177 142.443 100.051 142.443 99.92C142.443 99.7891 142.392 99.6635 142.3 99.57C142.254 99.5231 142.198 99.4859 142.137 99.4606C142.076 99.4352 142.011 99.4221 141.945 99.4221C141.879 99.4221 141.814 99.4352 141.753 99.4606C141.692 99.4859 141.636 99.5231 141.59 99.57L132.59 108.57C132.543 108.616 132.506 108.672 132.481 108.733C132.455 108.794 132.442 108.859 132.442 108.925C132.442 108.991 132.455 109.056 132.481 109.117C132.506 109.178 132.543 109.234 132.59 109.28H132.66C132.545 109.299 132.44 109.357 132.364 109.444C132.287 109.532 132.243 109.644 132.24 109.76V111.06H121.93V109.76C121.93 109.627 121.877 109.5 121.784 109.406C121.69 109.313 121.563 109.26 121.43 109.26C121.297 109.26 121.17 109.313 121.076 109.406C120.983 109.5 120.93 109.627 120.93 109.76V111.06H114.93V65.94H115.29C124.41 65.94 133.06 79.32 141.43 92.26C145.83 99.07 150.3 105.99 154.94 111.09L144.6 111.1Z" fill="white"/>
<path d="M96.59 65.9299H100.18C100.313 65.9299 100.44 65.8773 100.534 65.7835C100.627 65.6897 100.68 65.5625 100.68 65.4299C100.68 65.2973 100.627 65.1702 100.534 65.0764C100.44 64.9826 100.313 64.9299 100.18 64.9299H96.59C96.4574 64.9299 96.3302 64.9826 96.2365 65.0764C96.1427 65.1702 96.09 65.2973 96.09 65.4299C96.09 65.5625 96.1427 65.6897 96.2365 65.7835C96.3302 65.8773 96.4574 65.9299 96.59 65.9299Z" fill="white"/>
<path d="M104.31 65.9299H107.91C108.043 65.9299 108.17 65.8773 108.264 65.7835C108.357 65.6897 108.41 65.5625 108.41 65.4299C108.41 65.2973 108.357 65.1702 108.264 65.0764C108.17 64.9826 108.043 64.9299 107.91 64.9299H104.31C104.177 64.9299 104.05 64.9826 103.956 65.0764C103.863 65.1702 103.81 65.2973 103.81 65.4299C103.813 65.5617 103.866 65.6874 103.959 65.7807C104.052 65.8739 104.178 65.9274 104.31 65.9299Z" fill="white"/>
<path d="M88.66 65.9299H92.66C92.7926 65.9299 92.9198 65.8773 93.0135 65.7835C93.1073 65.6897 93.16 65.5625 93.16 65.4299C93.16 65.2973 93.1073 65.1702 93.0135 65.0764C92.9198 64.9826 92.7926 64.9299 92.66 64.9299H88.66C88.5274 64.9299 88.4002 64.9826 88.3064 65.0764C88.2127 65.1702 88.16 65.2973 88.16 65.4299C88.16 65.5625 88.2127 65.6897 88.3064 65.7835C88.4002 65.8773 88.5274 65.9299 88.66 65.9299Z" fill="white"/>
<path d="M79.54 65.9299H84.29C84.4226 65.9299 84.5498 65.8773 84.6436 65.7835C84.7373 65.6897 84.79 65.5625 84.79 65.4299C84.79 65.2973 84.7373 65.1702 84.6436 65.0764C84.5498 64.9826 84.4226 64.9299 84.29 64.9299H79.54C79.4074 64.9299 79.2802 64.9826 79.1865 65.0764C79.0927 65.1702 79.04 65.2973 79.04 65.4299C79.0426 65.5617 79.0961 65.6874 79.1893 65.7807C79.2825 65.8739 79.4082 65.9274 79.54 65.9299Z" fill="white"/>
<path d="M72.47 65.9299H75.47C75.6026 65.9299 75.7298 65.8773 75.8236 65.7835C75.9173 65.6897 75.97 65.5625 75.97 65.4299C75.97 65.2973 75.9173 65.1702 75.8236 65.0764C75.7298 64.9826 75.6026 64.9299 75.47 64.9299H72.47C72.3374 64.9299 72.2102 64.9826 72.1164 65.0764C72.0227 65.1702 71.97 65.2973 71.97 65.4299C71.9726 65.5617 72.0261 65.6874 72.1193 65.7807C72.2125 65.8739 72.3382 65.9274 72.47 65.9299Z" fill="white"/>
<path d="M72.47 73.4C72.6026 73.4 72.7298 73.3474 72.8236 73.2536C72.9173 73.1598 72.97 73.0326 72.97 72.9V68.9C72.97 68.7674 72.9173 68.6402 72.8236 68.5465C72.7298 68.4527 72.6026 68.4 72.47 68.4C72.3374 68.4 72.2102 68.4527 72.1164 68.5465C72.0227 68.6402 71.97 68.7674 71.97 68.9V72.9C71.97 73.0326 72.0227 73.1598 72.1164 73.2536C72.2102 73.3474 72.3374 73.4 72.47 73.4Z" fill="white"/>
<path d="M72.47 85.21C72.6026 85.21 72.7298 85.1573 72.8236 85.0635C72.9173 84.9698 72.97 84.8426 72.97 84.71V78.6C72.97 78.4674 72.9173 78.3402 72.8236 78.2464C72.7298 78.1526 72.6026 78.1 72.47 78.1C72.3382 78.1025 72.2125 78.156 72.1193 78.2493C72.0261 78.3425 71.9726 78.4682 71.97 78.6V84.71C71.97 84.8426 72.0227 84.9698 72.1164 85.0635C72.2102 85.1573 72.3374 85.21 72.47 85.21Z" fill="white"/>
<path d="M72.47 97.35C72.6026 97.35 72.7298 97.2973 72.8236 97.2036C72.9173 97.1098 72.97 96.9826 72.97 96.85V91C72.97 90.8674 72.9173 90.7402 72.8236 90.6465C72.7298 90.5527 72.6026 90.5 72.47 90.5C72.3382 90.5026 72.2125 90.5561 72.1193 90.6493C72.0261 90.7425 71.9726 90.8682 71.97 91V96.82C71.9673 96.8878 71.9782 96.9555 72.002 97.019C72.0258 97.0825 72.0621 97.1407 72.1086 97.1901C72.1552 97.2394 72.2111 97.279 72.2732 97.3065C72.3352 97.3339 72.4022 97.3487 72.47 97.35Z" fill="white"/>
<path d="M72.47 108.08C72.6026 108.08 72.7298 108.027 72.8236 107.933C72.9173 107.84 72.97 107.713 72.97 107.58V102.17C72.97 102.037 72.9173 101.91 72.8236 101.816C72.7298 101.723 72.6026 101.67 72.47 101.67C72.3374 101.67 72.2102 101.723 72.1164 101.816C72.0227 101.91 71.97 102.037 71.97 102.17V107.58C71.97 107.713 72.0227 107.84 72.1164 107.933C72.2102 108.027 72.3374 108.08 72.47 108.08Z" fill="white"/>
<path d="M136.4 88.2299C136.354 88.1831 136.298 88.1459 136.237 88.1205C136.176 88.0951 136.111 88.082 136.045 88.082C135.979 88.082 135.914 88.0951 135.853 88.1205C135.792 88.1459 135.736 88.1831 135.69 88.2299L116.69 107.23C116.621 107.3 116.575 107.388 116.556 107.484C116.538 107.58 116.547 107.68 116.585 107.77C116.622 107.861 116.685 107.938 116.766 107.993C116.847 108.048 116.942 108.079 117.04 108.08C117.175 108.08 117.305 108.026 117.4 107.93L136.4 88.9299C136.489 88.8353 136.539 88.7101 136.539 88.5799C136.539 88.4498 136.489 88.3246 136.4 88.2299Z" fill="white"/>
<path d="M132.44 84.43C132.487 84.3835 132.524 84.3282 132.549 84.2673C132.575 84.2064 132.588 84.141 132.588 84.075C132.588 84.009 132.575 83.9437 132.549 83.8827C132.524 83.8218 132.487 83.7665 132.44 83.72C132.345 83.6278 132.218 83.5762 132.085 83.5762C131.952 83.5762 131.825 83.6278 131.73 83.72L115.87 99.59C115.801 99.6599 115.755 99.7484 115.736 99.8444C115.718 99.9405 115.727 100.04 115.765 100.13C115.802 100.221 115.865 100.299 115.946 100.354C116.027 100.409 116.122 100.439 116.22 100.44C116.355 100.44 116.485 100.386 116.58 100.29L132.44 84.43Z" fill="white"/>
<path d="M116.69 91.39C116.786 91.48 116.913 91.53 117.045 91.53C117.177 91.53 117.304 91.48 117.4 91.39L130 78.74C130.048 78.6951 130.086 78.6409 130.112 78.5807C130.138 78.5205 130.152 78.4556 130.152 78.39C130.152 78.3244 130.138 78.2595 130.112 78.1993C130.086 78.1391 130.048 78.0849 130 78.04C129.954 77.9931 129.898 77.9559 129.837 77.9305C129.776 77.9052 129.711 77.8921 129.645 77.8921C129.579 77.8921 129.514 77.9052 129.453 77.9305C129.392 77.9559 129.336 77.9931 129.29 78.04L116.65 90.68C116.563 90.7802 116.518 90.9105 116.526 91.0431C116.533 91.1757 116.592 91.3001 116.69 91.39Z" fill="white"/>
<path d="M116.69 83.4499C116.782 83.5441 116.908 83.5981 117.04 83.5999C117.175 83.5996 117.305 83.5457 117.4 83.4499L126.4 74.4499C126.494 74.3558 126.547 74.2281 126.547 74.0949C126.547 73.9618 126.494 73.8341 126.4 73.7399C126.306 73.6458 126.178 73.5929 126.045 73.5929C125.912 73.5929 125.784 73.6458 125.69 73.7399L116.69 82.7399C116.643 82.7864 116.606 82.8417 116.581 82.9026C116.555 82.9636 116.542 83.0289 116.542 83.0949C116.542 83.1609 116.555 83.2263 116.581 83.2872C116.606 83.3482 116.643 83.4035 116.69 83.4499Z" fill="white"/>
<path d="M116.22 76.3399C116.355 76.3396 116.485 76.2857 116.58 76.1899L122.46 70.3099C122.552 70.2165 122.603 70.0908 122.603 69.9599C122.603 69.8291 122.552 69.7034 122.46 69.6099C122.414 69.5631 122.358 69.5259 122.297 69.5005C122.236 69.4751 122.171 69.462 122.105 69.462C122.039 69.462 121.974 69.4751 121.913 69.5005C121.852 69.5259 121.796 69.5631 121.75 69.6099L115.87 75.4899C115.801 75.5598 115.755 75.6483 115.736 75.7444C115.718 75.8404 115.727 75.9399 115.765 76.0304C115.802 76.1209 115.865 76.1984 115.946 76.2535C116.027 76.3085 116.122 76.3386 116.22 76.3399Z" fill="white"/>
<path d="M138.79 94.07L123.31 109.56C123.218 109.653 123.167 109.779 123.167 109.91C123.167 110.041 123.218 110.167 123.31 110.26C123.405 110.356 123.535 110.41 123.67 110.41C123.802 110.408 123.928 110.354 124.02 110.26L139.5 94.78C139.547 94.7335 139.584 94.6782 139.609 94.6173C139.635 94.5563 139.648 94.491 139.648 94.425C139.648 94.359 139.635 94.2936 139.609 94.2327C139.584 94.1718 139.547 94.1165 139.5 94.07C139.405 93.9777 139.278 93.9261 139.145 93.9261C139.012 93.9261 138.885 93.9777 138.79 94.07Z" fill="white"/>
<path d="M146 104.11C145.955 104.062 145.901 104.024 145.841 103.998C145.781 103.972 145.716 103.958 145.65 103.958C145.584 103.958 145.52 103.972 145.459 103.998C145.399 104.024 145.345 104.062 145.3 104.11L139.95 109.45C139.858 109.545 139.806 109.672 139.806 109.805C139.806 109.938 139.858 110.065 139.95 110.16C140.046 110.25 140.173 110.3 140.305 110.3C140.437 110.3 140.564 110.25 140.66 110.16L146 104.81C146.048 104.765 146.086 104.711 146.112 104.651C146.138 104.591 146.152 104.526 146.152 104.46C146.152 104.394 146.138 104.33 146.112 104.269C146.086 104.209 146.048 104.155 146 104.11Z" fill="white"/>
<path d="M232.27 75.86H195.52V42.13C197.08 42.1443 198.637 42.2646 200.18 42.49H200.25C200.371 42.4891 200.487 42.4454 200.579 42.3667C200.67 42.2879 200.731 42.1793 200.75 42.06C200.767 41.9291 200.733 41.7965 200.655 41.6902C200.577 41.5839 200.46 41.5121 200.33 41.49C198.737 41.2562 197.13 41.1325 195.52 41.12V28.86C195.52 28.7274 195.467 28.6002 195.374 28.5064C195.28 28.4127 195.153 28.36 195.02 28.36C194.887 28.36 194.76 28.4127 194.666 28.5064C194.573 28.6002 194.52 28.7274 194.52 28.86V75.86H157.77C157.637 75.86 157.51 75.9127 157.416 76.0064C157.323 76.1002 157.27 76.2274 157.27 76.36C157.273 76.4918 157.326 76.6175 157.419 76.7107C157.513 76.8039 157.638 76.8574 157.77 76.86H194.52V94.86C194.523 94.9918 194.576 95.1175 194.669 95.2107C194.763 95.3039 194.888 95.3574 195.02 95.36C195.153 95.36 195.28 95.3073 195.374 95.2135C195.467 95.1198 195.52 94.9926 195.52 94.86V76.86H232.27C232.403 76.86 232.53 76.8073 232.624 76.7135C232.717 76.6198 232.77 76.4926 232.77 76.36C232.77 76.2274 232.717 76.1002 232.624 76.0064C232.53 75.9127 232.403 75.86 232.27 75.86Z" fill="white"/>
<path d="M233.1 38.68C233.1 38.68 233.1 38.68 233.1 38.62C233.084 38.5411 233.046 38.4683 232.99 38.41C232.93 38.3549 232.858 38.3139 232.78 38.29H232.71C232.65 38.28 232.59 38.28 232.53 38.29L225.24 40.41C225.174 40.4284 225.113 40.4595 225.059 40.5017C225.006 40.5438 224.961 40.596 224.927 40.6555C224.894 40.7149 224.873 40.7803 224.864 40.848C224.856 40.9157 224.862 40.9844 224.88 41.05C224.898 41.1157 224.93 41.1771 224.972 41.2307C225.014 41.2843 225.066 41.3291 225.125 41.3626C225.185 41.396 225.25 41.4174 225.318 41.4255C225.386 41.4337 225.454 41.4284 225.52 41.41L230.94 39.83L196.67 74C196.623 74.0465 196.586 74.1018 196.561 74.1627C196.535 74.2237 196.522 74.289 196.522 74.355C196.522 74.421 196.535 74.4864 196.561 74.5473C196.586 74.6082 196.623 74.6635 196.67 74.71C196.715 74.7571 196.77 74.7947 196.83 74.8204C196.89 74.8462 196.955 74.8596 197.02 74.86C197.155 74.8597 197.285 74.8057 197.38 74.71L231.59 40.5L230 45.91C229.982 45.9731 229.976 46.0391 229.983 46.1044C229.99 46.1696 230.01 46.2329 230.042 46.2904C230.073 46.348 230.116 46.3988 230.167 46.4399C230.218 46.481 230.277 46.5116 230.34 46.53C230.386 46.5392 230.434 46.5392 230.48 46.53C230.589 46.5317 230.695 46.4972 230.782 46.4321C230.868 46.3669 230.931 46.2747 230.96 46.17L233.08 38.88C233.105 38.8165 233.112 38.7473 233.1 38.68Z" fill="white"/>
<path d="M185.87 71.75C185.737 71.7129 185.595 71.7299 185.475 71.7974C185.355 71.865 185.267 71.9774 185.23 72.11C185.193 72.2426 185.21 72.3845 185.277 72.5046C185.345 72.6246 185.457 72.7129 185.59 72.75L192.88 74.88H193.02C193.083 74.8904 193.147 74.8904 193.21 74.88C193.272 74.8529 193.33 74.8157 193.38 74.77C193.432 74.7092 193.47 74.6374 193.49 74.56V74.5C193.5 74.4404 193.5 74.3796 193.49 74.32L191.37 67.03C191.352 66.9643 191.32 66.9029 191.278 66.8493C191.236 66.7957 191.184 66.7509 191.125 66.7174C191.065 66.684 191 66.6626 190.932 66.6545C190.864 66.6463 190.796 66.6516 190.73 66.67C190.664 66.6884 190.603 66.7195 190.549 66.7616C190.496 66.8037 190.451 66.856 190.417 66.9154C190.384 66.9749 190.363 67.0403 190.354 67.108C190.346 67.1757 190.352 67.2443 190.37 67.31L191.95 72.72L157.73 38.51C157.637 38.4184 157.511 38.3671 157.38 38.3671C157.249 38.3671 157.123 38.4184 157.03 38.51C156.983 38.5565 156.946 38.6118 156.921 38.6727C156.895 38.7336 156.882 38.799 156.882 38.865C156.882 38.931 156.895 38.9964 156.921 39.0573C156.946 39.1182 156.983 39.1735 157.03 39.22L191.24 73.43L185.87 71.75Z" fill="white"/>
<path d="M229.75 75.7299C229.815 75.7287 229.88 75.7144 229.939 75.6879C229.999 75.6614 230.053 75.6234 230.097 75.5759C230.142 75.5284 230.177 75.4724 230.2 75.4113C230.222 75.3502 230.233 75.2851 230.23 75.2199C230.182 73.6513 230.029 72.0878 229.77 70.5399C229.76 70.4752 229.738 70.4131 229.704 70.3572C229.67 70.3013 229.625 70.2529 229.572 70.2147C229.518 70.1764 229.458 70.1492 229.394 70.1347C229.331 70.1201 229.264 70.1185 229.2 70.1299C229.135 70.1396 229.073 70.1622 229.017 70.1963C228.961 70.2303 228.913 70.2753 228.875 70.3284C228.837 70.3815 228.809 70.4418 228.795 70.5056C228.78 70.5694 228.779 70.6355 228.79 70.6999C229.037 72.2053 229.184 73.7252 229.23 75.2499C229.233 75.3156 229.248 75.3801 229.276 75.4398C229.303 75.4995 229.342 75.5532 229.39 75.5978C229.439 75.6423 229.495 75.677 229.557 75.6996C229.619 75.7223 229.684 75.7326 229.75 75.7299Z" fill="white"/>
<path d="M227.94 65.69C227.993 65.6995 228.047 65.6995 228.1 65.69C228.224 65.6468 228.326 65.5564 228.384 65.4385C228.442 65.3206 228.451 65.1846 228.41 65.06C228.019 63.9107 227.568 62.7825 227.06 61.68C227.005 61.5595 226.905 61.4655 226.782 61.4187C226.658 61.3718 226.521 61.3759 226.4 61.43C226.34 61.4569 226.287 61.4954 226.242 61.5434C226.198 61.5914 226.163 61.6478 226.141 61.7093C226.118 61.7708 226.108 61.8362 226.112 61.9016C226.115 61.967 226.132 62.031 226.16 62.09C226.652 63.1626 227.086 64.2609 227.46 65.38C227.5 65.4737 227.567 65.5533 227.652 65.6085C227.738 65.6638 227.838 65.6921 227.94 65.69Z" fill="white"/>
<path d="M224.29 58.12C224.386 58.1244 224.482 58.0962 224.56 58.04C224.616 58.0054 224.665 57.9599 224.703 57.9061C224.741 57.8523 224.768 57.7914 224.782 57.7269C224.796 57.6625 224.797 57.5959 224.784 57.5312C224.772 57.4664 224.747 57.4048 224.71 57.35C223.836 55.9747 222.863 54.6646 221.8 53.43C221.714 53.3292 221.591 53.2668 221.459 53.2565C221.327 53.2462 221.196 53.2888 221.095 53.375C220.994 53.4612 220.932 53.5839 220.921 53.7161C220.911 53.8484 220.954 53.9792 221.04 54.08C222.071 55.2823 223.017 56.5554 223.87 57.89C223.916 57.9598 223.978 58.0173 224.051 58.0574C224.125 58.0975 224.207 58.119 224.29 58.12Z" fill="white"/>
<path d="M213.31 47.39C214.507 48.1487 215.656 48.9802 216.75 49.88C216.838 49.9499 216.947 49.9886 217.06 49.99C217.134 49.9909 217.208 49.9752 217.275 49.9441C217.343 49.9129 217.402 49.8671 217.45 49.81C217.531 49.7051 217.569 49.5731 217.556 49.4411C217.543 49.3092 217.48 49.1871 217.38 49.1C216.253 48.1754 215.071 47.3205 213.84 46.54C213.727 46.4721 213.591 46.4509 213.463 46.4807C213.334 46.5106 213.222 46.5892 213.15 46.7C213.114 46.7554 213.089 46.8176 213.077 46.8827C213.066 46.9479 213.068 47.0147 213.083 47.0792C213.098 47.1437 213.125 47.2045 213.164 47.2579C213.204 47.3113 213.253 47.3563 213.31 47.39Z" fill="white"/>
<path d="M204.68 43.4899C206.224 43.9439 207.734 44.5053 209.2 45.1699C209.269 45.1837 209.341 45.1837 209.41 45.1699C209.476 45.1837 209.543 45.1844 209.609 45.172C209.675 45.1597 209.738 45.1344 209.794 45.0977C209.85 45.061 209.899 45.0137 209.937 44.9583C209.975 44.9029 210.001 44.8406 210.015 44.7749C210.029 44.7093 210.03 44.6415 210.017 44.5756C210.005 44.5097 209.979 44.4468 209.943 44.3906C209.906 44.3344 209.859 44.286 209.803 44.2482C209.748 44.2103 209.686 44.1837 209.62 44.1699C208.109 43.4843 206.552 42.9062 204.96 42.4399C204.897 42.4215 204.831 42.4157 204.766 42.4229C204.7 42.43 204.637 42.4499 204.58 42.4815C204.522 42.5131 204.471 42.5557 204.43 42.6069C204.389 42.6581 204.358 42.7169 204.34 42.7799C204.308 42.8482 204.292 42.9226 204.293 42.9978C204.293 43.0731 204.31 43.1473 204.343 43.2151C204.375 43.283 204.422 43.3428 204.48 43.3903C204.539 43.4378 204.607 43.4718 204.68 43.4899Z" fill="white"/>
<path d="M187.57 42.91H187.68C188.872 42.6486 190.077 42.4516 191.29 42.32C191.421 42.3049 191.541 42.2386 191.623 42.1356C191.706 42.0326 191.744 41.9012 191.73 41.77C191.724 41.7042 191.705 41.6403 191.673 41.582C191.642 41.5237 191.6 41.4721 191.549 41.4303C191.498 41.3884 191.439 41.3571 191.375 41.3382C191.312 41.3193 191.246 41.3131 191.18 41.32C189.934 41.4583 188.695 41.6619 187.47 41.93C187.337 41.9433 187.215 42.0087 187.131 42.1118C187.047 42.2149 187.007 42.3474 187.02 42.48C187.033 42.6126 187.099 42.7345 187.202 42.8189C187.305 42.9033 187.437 42.9433 187.57 42.93V42.91Z" fill="white"/>
<path d="M179 46C179.081 46.0005 179.16 45.9798 179.23 45.94C180.376 45.3451 181.555 44.8143 182.76 44.35C182.883 44.3029 182.982 44.2093 183.036 44.0895C183.091 43.9697 183.096 43.8334 183.05 43.71C183.027 43.648 182.991 43.5913 182.946 43.543C182.901 43.4948 182.846 43.4561 182.786 43.4291C182.725 43.4021 182.66 43.3874 182.594 43.3859C182.528 43.3843 182.462 43.3959 182.4 43.42C181.16 43.8934 179.948 44.4376 178.77 45.05C178.637 45.0805 178.522 45.1624 178.45 45.2778C178.378 45.3931 178.355 45.5324 178.385 45.665C178.416 45.7976 178.497 45.9127 178.613 45.9849C178.728 46.0571 178.867 46.0805 179 46.05V46Z" fill="white"/>
<path d="M172 50.87C172.061 50.8712 172.121 50.8604 172.178 50.8381C172.235 50.8157 172.286 50.7824 172.33 50.74C173.358 49.8326 174.436 48.9846 175.56 48.2C175.618 48.1642 175.667 48.1171 175.706 48.0614C175.745 48.0058 175.772 47.9429 175.786 47.8764C175.8 47.81 175.8 47.7414 175.786 47.675C175.773 47.6085 175.746 47.5455 175.707 47.4898C175.668 47.434 175.619 47.3868 175.561 47.3509C175.503 47.315 175.439 47.2912 175.372 47.2809C175.305 47.2706 175.237 47.2741 175.171 47.2912C175.105 47.3082 175.044 47.3384 174.99 47.38C173.831 48.1851 172.722 49.06 171.67 50C171.622 50.0449 171.584 50.0991 171.558 50.1593C171.532 50.2195 171.518 50.2844 171.518 50.35C171.518 50.4156 171.532 50.4805 171.558 50.5407C171.584 50.6009 171.622 50.6551 171.67 50.7C171.754 50.7969 171.872 50.8578 172 50.87Z" fill="white"/>
<path d="M168 53.76C167.159 54.7696 166.375 55.8245 165.65 56.92C165.578 57.0302 165.552 57.1646 165.578 57.2938C165.604 57.4231 165.68 57.5367 165.79 57.61C165.875 57.6605 165.971 57.688 166.07 57.69C166.152 57.6893 166.234 57.6689 166.307 57.6307C166.38 57.5924 166.442 57.5374 166.49 57.47C167.189 56.4061 167.951 55.3843 168.77 54.41C168.813 54.3595 168.845 54.301 168.865 54.2379C168.885 54.1749 168.893 54.1085 168.887 54.0426C168.881 53.9767 168.863 53.9125 168.833 53.8537C168.802 53.7949 168.761 53.7427 168.71 53.7C168.659 53.6573 168.601 53.625 168.538 53.6049C168.475 53.5849 168.409 53.5774 168.343 53.583C168.277 53.5885 168.212 53.607 168.154 53.6374C168.095 53.6678 168.043 53.7095 168 53.76Z" fill="white"/>
<path d="M163.3 61C162.618 62.3978 162.033 63.8413 161.55 65.32C161.528 65.3817 161.519 65.4471 161.523 65.5124C161.526 65.5778 161.543 65.6417 161.572 65.7004C161.601 65.7591 161.641 65.8115 161.691 65.8543C161.74 65.8972 161.798 65.9297 161.86 65.95H162.02C162.126 65.9513 162.229 65.9191 162.315 65.858C162.402 65.7969 162.466 65.7101 162.5 65.61C162.97 64.1729 163.538 62.7697 164.2 61.41C164.229 61.3509 164.246 61.2867 164.25 61.221C164.254 61.1554 164.245 61.0896 164.224 61.0274C164.202 60.9651 164.169 60.9077 164.125 60.8584C164.082 60.8091 164.029 60.7689 163.97 60.74C163.911 60.7111 163.847 60.6941 163.781 60.69C163.715 60.686 163.65 60.6949 163.587 60.7162C163.525 60.7376 163.468 60.771 163.418 60.8145C163.369 60.8581 163.329 60.9109 163.3 60.97V61Z" fill="white"/>
<path d="M160.22 70.7C159.982 72.1962 159.838 73.7058 159.79 75.22C159.787 75.351 159.836 75.4778 159.926 75.5731C160.016 75.6685 160.139 75.7248 160.27 75.73C160.399 75.7301 160.523 75.6802 160.617 75.5907C160.71 75.5013 160.765 75.3792 160.77 75.25C160.82 73.7795 160.96 72.3134 161.19 70.86C161.211 70.7274 161.179 70.5918 161.1 70.4831C161.021 70.3743 160.903 70.3013 160.77 70.28C160.637 70.2588 160.502 70.2912 160.393 70.3699C160.284 70.4487 160.211 70.5674 160.19 70.7H160.22Z" fill="white"/>
<path d="M223.77 136.94C223.833 136.879 223.879 136.803 223.902 136.718C223.925 136.634 223.924 136.544 223.9 136.46L218.1 114.79C218.077 114.714 218.036 114.646 217.98 114.59C217.924 114.534 217.856 114.493 217.78 114.47L196.12 108.66C196.034 108.64 195.944 108.641 195.859 108.664C195.773 108.687 195.695 108.73 195.63 108.79L179.77 124.66C179.708 124.722 179.664 124.798 179.641 124.883C179.618 124.967 179.618 125.056 179.64 125.14L185.45 146.81C185.474 146.893 185.518 146.969 185.58 147.03C185.639 147.094 185.716 147.139 185.8 147.16L207.46 152.97C207.536 152.985 207.614 152.985 207.69 152.97H207.74H207.84H207.89L223.77 136.94ZM186.86 146.39L201.49 131.75L202.18 134.31C202.201 134.397 202.246 134.477 202.31 134.54C202.388 134.621 202.49 134.674 202.602 134.689C202.713 134.705 202.826 134.683 202.923 134.626C203.02 134.57 203.095 134.482 203.137 134.377C203.178 134.273 203.182 134.158 203.15 134.05L202.46 131.49L215.77 135.06L222.45 136.85L207.82 151.49L207.07 148.71C207.055 148.646 207.027 148.585 206.988 148.532C206.948 148.479 206.899 148.435 206.841 148.402C206.784 148.369 206.721 148.349 206.655 148.341C206.589 148.334 206.523 148.34 206.46 148.36C206.396 148.376 206.337 148.405 206.285 148.445C206.232 148.484 206.189 148.534 206.156 148.591C206.123 148.648 206.102 148.711 206.095 148.776C206.087 148.841 206.092 148.907 206.11 148.97L206.85 151.75L200.56 150.06L186.86 146.39ZM181.77 129.39L180.77 125.73L181.77 125.99C181.866 126.078 181.99 126.128 182.12 126.13H182.31L190.31 128.28H182.71C182.578 128.283 182.453 128.336 182.359 128.429C182.266 128.522 182.213 128.648 182.21 128.78C182.21 128.915 182.264 129.045 182.36 129.14C182.454 129.231 182.58 129.281 182.71 129.28H194.05L200.77 131.08L186.13 145.72L181.77 129.39ZM214.34 118.24C214.435 118.332 214.562 118.384 214.695 118.384C214.828 118.384 214.955 118.332 215.05 118.24L217.36 115.93L222.71 135.93L202.71 130.58L204.21 129.07C204.257 129.024 204.294 128.968 204.319 128.907C204.345 128.846 204.358 128.781 204.358 128.715C204.358 128.649 204.345 128.584 204.319 128.523C204.294 128.462 204.257 128.406 204.21 128.36C204.117 128.268 203.991 128.217 203.86 128.217C203.729 128.217 203.603 128.268 203.51 128.36L202 129.82L196.64 109.82L216.64 115.18L214.33 117.49C214.284 117.537 214.247 117.593 214.223 117.654C214.198 117.716 214.186 117.781 214.187 117.847C214.188 117.913 214.202 117.978 214.228 118.039C214.254 118.099 214.292 118.154 214.34 118.2V118.24ZM197.34 116.34L201.04 130.12L197.92 129.28H199.08C199.213 129.28 199.34 129.227 199.434 129.134C199.527 129.04 199.58 128.913 199.58 128.78C199.577 128.648 199.524 128.522 199.431 128.429C199.338 128.336 199.212 128.283 199.08 128.28H194.2L186.2 126.13H198.5C198.633 126.13 198.76 126.077 198.854 125.984C198.947 125.89 199 125.763 199 125.63C199 125.497 198.947 125.37 198.854 125.276C198.76 125.183 198.633 125.13 198.5 125.13H182.5L181.12 124.76L195.76 110.12L197.34 116.34Z" fill="white"/>
<path d="M208.47 124.07C208.424 124.023 208.368 123.986 208.307 123.961C208.246 123.935 208.181 123.922 208.115 123.922C208.049 123.922 207.984 123.935 207.923 123.961C207.862 123.986 207.806 124.023 207.76 124.07L205.36 126.47C205.268 126.563 205.217 126.689 205.217 126.82C205.217 126.951 205.268 127.077 205.36 127.17C205.406 127.217 205.462 127.254 205.523 127.279C205.584 127.305 205.649 127.318 205.715 127.318C205.781 127.318 205.846 127.305 205.907 127.279C205.968 127.254 206.024 127.217 206.07 127.17L208.47 124.77C208.518 124.725 208.556 124.671 208.582 124.611C208.608 124.551 208.622 124.486 208.622 124.42C208.622 124.354 208.608 124.29 208.582 124.229C208.556 124.169 208.518 124.115 208.47 124.07Z" fill="white"/>
<path d="M210.15 121.68C210.103 121.726 210.066 121.782 210.041 121.843C210.015 121.904 210.002 121.969 210.002 122.035C210.002 122.101 210.015 122.166 210.041 122.227C210.066 122.288 210.103 122.343 210.15 122.39C210.195 122.438 210.249 122.476 210.309 122.502C210.369 122.528 210.434 122.541 210.5 122.541C210.566 122.541 210.631 122.528 210.691 122.502C210.751 122.476 210.805 122.438 210.85 122.39L213.03 120.22C213.122 120.125 213.174 119.997 213.174 119.865C213.174 119.732 213.122 119.605 213.03 119.51C212.984 119.463 212.928 119.426 212.867 119.401C212.806 119.375 212.741 119.362 212.675 119.362C212.609 119.362 212.544 119.375 212.483 119.401C212.422 119.426 212.366 119.463 212.32 119.51L210.15 121.68Z" fill="white"/>
<path d="M206.2 145.44L205.46 142.68C205.444 142.614 205.414 142.552 205.374 142.498C205.334 142.444 205.283 142.398 205.225 142.363C205.167 142.328 205.103 142.305 205.036 142.295C204.969 142.285 204.901 142.289 204.835 142.305C204.769 142.321 204.708 142.351 204.653 142.391C204.599 142.431 204.553 142.482 204.518 142.54C204.483 142.598 204.46 142.662 204.45 142.729C204.44 142.796 204.444 142.864 204.46 142.93L205.2 145.7C205.221 145.784 205.266 145.861 205.33 145.92C205.391 145.982 205.468 146.027 205.552 146.05C205.637 146.073 205.726 146.073 205.81 146.05C205.876 146.037 205.94 146.011 205.996 145.973C206.052 145.935 206.099 145.886 206.136 145.828C206.172 145.771 206.197 145.708 206.208 145.641C206.219 145.574 206.216 145.506 206.2 145.44Z" fill="white"/>
<path d="M204.68 139.79L203.9 136.88C203.884 136.816 203.855 136.756 203.815 136.704C203.776 136.651 203.726 136.607 203.67 136.573C203.613 136.54 203.55 136.518 203.485 136.509C203.42 136.5 203.354 136.503 203.29 136.52C203.162 136.557 203.054 136.643 202.989 136.759C202.924 136.875 202.906 137.011 202.94 137.14L203.72 140.05C203.741 140.137 203.786 140.217 203.85 140.28C203.929 140.356 204.03 140.404 204.139 140.417C204.247 140.43 204.357 140.406 204.451 140.351C204.546 140.295 204.619 140.21 204.66 140.109C204.702 140.008 204.708 139.896 204.68 139.79Z" fill="white"/>
<path d="M193 113.93C193.045 113.977 193.1 114.015 193.16 114.04C193.22 114.066 193.285 114.08 193.35 114.08H195.42C195.553 114.08 195.68 114.027 195.774 113.934C195.867 113.84 195.92 113.713 195.92 113.58C195.92 113.447 195.867 113.32 195.774 113.226C195.68 113.133 195.553 113.08 195.42 113.08H193.35C193.252 113.081 193.157 113.111 193.076 113.166C192.995 113.221 192.932 113.299 192.895 113.39C192.857 113.48 192.848 113.579 192.866 113.676C192.885 113.772 192.931 113.86 193 113.93Z" fill="white"/>
<path d="M188.51 141.4H187.09C186.957 141.4 186.83 141.453 186.736 141.546C186.643 141.64 186.59 141.767 186.59 141.9C186.59 141.965 186.604 142.03 186.63 142.09C186.655 142.15 186.693 142.205 186.74 142.25C186.833 142.343 186.958 142.397 187.09 142.4H188.51C188.643 142.4 188.77 142.347 188.864 142.254C188.957 142.16 189.01 142.033 189.01 141.9C189.01 141.767 188.957 141.64 188.864 141.546C188.77 141.453 188.643 141.4 188.51 141.4Z" fill="white"/>
<path d="M190.1 116.48C190.099 116.545 190.11 116.609 190.134 116.669C190.158 116.729 190.194 116.784 190.24 116.83C190.335 116.926 190.465 116.98 190.6 116.98H195.32C195.453 116.98 195.58 116.927 195.674 116.834C195.767 116.74 195.82 116.613 195.82 116.48C195.82 116.347 195.767 116.22 195.674 116.126C195.58 116.033 195.453 115.98 195.32 115.98H190.6C190.467 115.98 190.34 116.033 190.246 116.126C190.153 116.22 190.1 116.347 190.1 116.48Z" fill="white"/>
<path d="M191.51 139C191.51 138.867 191.457 138.74 191.364 138.646C191.27 138.553 191.143 138.5 191.01 138.5H186.29C186.157 138.5 186.03 138.553 185.936 138.646C185.843 138.74 185.79 138.867 185.79 139C185.789 139.065 185.8 139.129 185.824 139.189C185.848 139.249 185.884 139.304 185.93 139.35C186.025 139.446 186.155 139.5 186.29 139.5H191C191.067 139.501 191.133 139.489 191.194 139.465C191.256 139.44 191.313 139.404 191.36 139.357C191.408 139.311 191.445 139.255 191.471 139.194C191.497 139.132 191.51 139.067 191.51 139Z" fill="white"/>
<path d="M187.28 119.3C187.279 119.365 187.29 119.429 187.314 119.489C187.338 119.55 187.374 119.604 187.42 119.65C187.466 119.699 187.522 119.737 187.584 119.763C187.646 119.789 187.713 119.802 187.78 119.8H196.58C196.713 119.8 196.84 119.747 196.934 119.654C197.027 119.56 197.08 119.433 197.08 119.3C197.077 119.168 197.024 119.043 196.931 118.949C196.838 118.856 196.712 118.803 196.58 118.8H187.78C187.647 118.8 187.52 118.853 187.426 118.946C187.333 119.04 187.28 119.167 187.28 119.3Z" fill="white"/>
<path d="M184.12 122.45C184.12 122.585 184.174 122.715 184.27 122.81C184.316 122.856 184.371 122.892 184.431 122.916C184.491 122.94 184.555 122.951 184.62 122.95H197.62C197.753 122.95 197.88 122.897 197.974 122.804C198.067 122.71 198.12 122.583 198.12 122.45C198.117 122.318 198.064 122.192 197.971 122.099C197.877 122.006 197.752 121.953 197.62 121.95H184.62C184.488 121.953 184.362 122.006 184.269 122.099C184.176 122.192 184.123 122.318 184.12 122.45Z" fill="white"/>
<path d="M195 135.56C195 135.427 194.947 135.3 194.854 135.206C194.76 135.113 194.633 135.06 194.5 135.06H185.22C185.088 135.062 184.962 135.116 184.869 135.209C184.776 135.302 184.723 135.428 184.72 135.56C184.722 135.695 184.776 135.823 184.87 135.92C184.916 135.966 184.971 136.002 185.031 136.026C185.091 136.05 185.155 136.061 185.22 136.06H194.5C194.633 136.06 194.76 136.007 194.854 135.913C194.947 135.82 195 135.693 195 135.56Z" fill="white"/>
<path d="M198.33 132.2C198.327 132.068 198.274 131.942 198.181 131.849C198.087 131.756 197.962 131.703 197.83 131.7H183.68C183.547 131.7 183.42 131.753 183.326 131.846C183.233 131.94 183.18 132.067 183.18 132.2C183.179 132.333 183.229 132.462 183.32 132.56C183.417 132.652 183.546 132.702 183.68 132.7H197.83C197.963 132.7 198.09 132.647 198.184 132.554C198.277 132.46 198.33 132.333 198.33 132.2Z" fill="white"/>
<path d="M171.3 108.24C171.285 108.305 171.257 108.366 171.218 108.419C171.178 108.473 171.128 108.517 171.07 108.55C170.962 108.622 170.839 108.67 170.71 108.69C170.599 108.698 170.489 108.666 170.4 108.6C170.314 108.534 170.236 108.456 170.17 108.37C170.092 108.278 170.025 108.177 169.97 108.07C169.911 107.965 169.864 107.855 169.83 107.74C169.69 107.4 169.54 107.067 169.38 106.74C169.23 106.4 169.08 106.06 168.95 105.74C168.731 105.982 168.533 106.243 168.36 106.52C168.187 106.793 168.027 107.073 167.88 107.36C167.821 107.497 167.755 107.631 167.68 107.76C167.61 107.89 167.55 108.02 167.49 108.16L167.4 108.31L167.3 108.48L167.18 108.62C167.138 108.66 167.086 108.688 167.03 108.7C166.926 108.694 166.826 108.66 166.74 108.6C166.572 108.485 166.453 108.309 166.41 108.11C166.395 108.011 166.395 107.909 166.41 107.81C166.42 107.708 166.44 107.608 166.47 107.51C166.507 107.417 166.551 107.327 166.6 107.24L166.76 106.98L166.93 106.72L167.37 106.15L167.81 105.57L168.11 105.1C168.2 104.94 168.3 104.78 168.39 104.61L168 103.8C167.862 103.53 167.739 103.253 167.63 102.97L167.47 102.61C167.47 102.49 167.38 102.37 167.34 102.25C167.299 102.126 167.269 101.999 167.25 101.87C167.235 101.744 167.235 101.616 167.25 101.49C167.258 101.433 167.278 101.378 167.31 101.33C167.34 101.284 167.381 101.246 167.43 101.22L167.58 101.15C167.735 101.117 167.895 101.117 168.05 101.15C168.099 101.159 168.145 101.179 168.184 101.209C168.224 101.238 168.257 101.276 168.28 101.32C168.337 101.396 168.381 101.48 168.41 101.57C168.41 101.66 168.48 101.76 168.51 101.84C168.62 102.13 168.72 102.41 168.81 102.69C168.9 102.97 169 103.26 169.11 103.54C169.304 103.351 169.476 103.139 169.62 102.91C169.77 102.68 169.9 102.45 170.04 102.21C170.082 102.1 170.132 101.993 170.19 101.89C170.25 101.79 170.3 101.68 170.35 101.58C170.38 101.542 170.407 101.502 170.43 101.46L170.51 101.32L170.61 101.2C170.644 101.166 170.685 101.138 170.73 101.12C170.823 101.129 170.912 101.16 170.99 101.21C171.074 101.252 171.148 101.31 171.21 101.38C171.271 101.452 171.322 101.533 171.36 101.62C171.392 101.71 171.409 101.805 171.41 101.9C171.349 102.162 171.252 102.415 171.12 102.65C170.989 102.889 170.842 103.12 170.68 103.34C170.51 103.56 170.34 103.77 170.15 103.98C169.96 104.19 169.8 104.41 169.63 104.62C169.78 104.856 169.917 105.099 170.04 105.35C170.17 105.59 170.29 105.85 170.42 106.1C170.55 106.35 170.64 106.57 170.75 106.79C170.86 107.01 170.97 107.24 171.09 107.46C171.21 107.68 171.21 107.73 171.26 107.86C171.292 107.984 171.306 108.112 171.3 108.24Z" fill="white"/>
<path d="M122.51 34.92C122.477 35.059 122.419 35.191 122.34 35.31C122.26 35.44 122.18 35.56 122.11 35.69C122.04 35.82 121.91 35.95 121.81 36.08L121.53 36.49C121.29 36.83 121.07 37.18 120.85 37.54C120.63 37.9 120.44 38.26 120.26 38.63C120.08 39 119.93 39.38 119.79 39.77C119.659 40.1563 119.552 40.5504 119.47 40.95C119.47 41.05 119.47 41.15 119.4 41.25C119.382 41.3512 119.348 41.4491 119.3 41.54C119.249 41.6294 119.177 41.7049 119.09 41.76C118.996 41.7944 118.894 41.7944 118.8 41.76C118.735 41.7807 118.665 41.7807 118.6 41.76C118.547 41.7234 118.503 41.6756 118.47 41.62C118.436 41.5609 118.413 41.4967 118.4 41.43C118.385 41.3608 118.385 41.2892 118.4 41.22C118.413 41.0289 118.436 40.8386 118.47 40.65C118.47 40.46 118.54 40.27 118.58 40.07C118.62 39.87 118.67 39.69 118.73 39.5C118.79 39.3085 118.864 39.1213 118.95 38.94C118.811 38.8122 118.693 38.6638 118.6 38.5C118.498 38.3385 118.411 38.1678 118.34 37.99C118.27 37.8069 118.209 37.6199 118.16 37.43C118.11 37.24 118.06 37.05 118.02 36.86C117.937 36.5012 117.881 36.1369 117.85 35.77C117.8 35.3983 117.8 35.0217 117.85 34.65C117.845 34.6001 117.845 34.5499 117.85 34.5C117.871 34.4502 117.898 34.4031 117.93 34.36C117.955 34.3135 117.989 34.2726 118.03 34.24C118.076 34.2255 118.124 34.2255 118.17 34.24C118.245 34.2156 118.325 34.2156 118.4 34.24C118.468 34.2577 118.533 34.2883 118.59 34.33C118.647 34.3748 118.692 34.4333 118.72 34.5C118.758 34.56 118.779 34.6291 118.78 34.7C118.78 34.88 118.78 35.04 118.84 35.21C118.85 35.3799 118.85 35.5502 118.84 35.72C118.84 35.91 118.9 36.09 118.94 36.27C118.98 36.45 119.03 36.62 119.08 36.81C119.118 36.9942 119.172 37.1748 119.24 37.35C119.31 37.5279 119.39 37.7015 119.48 37.87C119.68 37.44 119.91 37.03 120.14 36.63C120.37 36.23 120.62 35.83 120.88 35.42C120.973 35.2533 121.073 35.0833 121.18 34.91C121.29 34.75 121.39 34.58 121.5 34.41C121.535 34.335 121.595 34.2748 121.67 34.24C121.749 34.2213 121.831 34.2213 121.91 34.24C121.996 34.2566 122.078 34.2906 122.15 34.34C122.21 34.3904 122.261 34.4514 122.3 34.52C122.342 34.595 122.372 34.6759 122.39 34.76C122.435 34.8096 122.475 34.8631 122.51 34.92Z" fill="white"/>
<path d="M203.27 55.6799C203.27 55.8699 203.22 56.0499 203.19 56.2399C203.16 56.4299 203.1 56.6099 203.05 56.7999C203 56.9899 202.93 57.1699 202.86 57.3499L202.65 57.8899C202.57 58.0399 202.5 58.1999 202.43 58.3699C202.36 58.5399 202.28 58.7099 202.19 58.8699C202.102 59.0266 201.998 59.174 201.88 59.3099C201.765 59.4433 201.621 59.5493 201.46 59.6199C201.421 59.6258 201.382 59.6221 201.345 59.6093C201.308 59.5964 201.275 59.5747 201.249 59.5462C201.222 59.5176 201.203 59.483 201.192 59.4453C201.182 59.4076 201.181 59.368 201.19 59.3299V59.2099C201.19 59.2099 201.19 59.2099 201.19 59.1499C201.185 59.1302 201.185 59.1097 201.19 59.0899C201.19 58.9599 201.27 58.8299 201.32 58.7099C201.37 58.5899 201.43 58.4599 201.49 58.3399C201.55 58.2199 201.61 58.0999 201.67 57.9799L201.85 57.6099C201.94 57.4399 202.02 57.2599 202.1 57.0799C202.179 56.9001 202.24 56.7124 202.28 56.5199C202.189 56.6504 202.082 56.7681 201.96 56.8699C201.84 56.9681 201.709 57.052 201.57 57.1199C201.424 57.187 201.274 57.2438 201.12 57.2899C200.972 57.3399 200.816 57.3603 200.66 57.3499C200.471 57.3482 200.285 57.3109 200.11 57.2399C199.941 57.1673 199.796 57.0497 199.69 56.8999C199.58 56.7567 199.508 56.5883 199.48 56.41C199.456 56.2308 199.456 56.0491 199.48 55.8699C199.503 55.6586 199.55 55.4506 199.62 55.2499C199.69 55.051 199.78 54.8599 199.89 54.6799C200.007 54.498 200.144 54.3302 200.3 54.1799C200.454 54.0313 200.629 53.9066 200.82 53.8099C200.943 53.7299 201.078 53.6692 201.22 53.6299C201.363 53.5904 201.511 53.5703 201.66 53.5699C201.785 53.5711 201.909 53.5879 202.03 53.6199C202.148 53.6597 202.261 53.7099 202.37 53.7699C202.473 53.8343 202.57 53.9079 202.66 53.9899C202.747 54.0752 202.821 54.1729 202.88 54.2799C203.028 54.475 203.13 54.7004 203.18 54.9399C203.246 55.181 203.276 55.4302 203.27 55.6799ZM202.27 55.0299C202.295 54.9622 202.295 54.8877 202.27 54.8199C202.237 54.7617 202.188 54.7134 202.13 54.6799L201.93 54.6099H201.72C201.546 54.5958 201.371 54.6232 201.21 54.6899C201.053 54.7595 200.911 54.8578 200.79 54.9799C200.668 55.1028 200.567 55.2446 200.49 55.3999C200.422 55.5586 200.381 55.7277 200.37 55.8999C200.36 55.9763 200.36 56.0536 200.37 56.1299C200.371 56.206 200.388 56.281 200.42 56.3499C200.449 56.4137 200.493 56.4689 200.55 56.5099C200.614 56.5546 200.693 56.5725 200.77 56.5599C200.91 56.5612 201.047 56.5268 201.17 56.4599C201.297 56.4019 201.417 56.3316 201.53 56.2499C201.64 56.1713 201.743 56.0844 201.84 55.9899C201.937 55.8913 202.021 55.7804 202.09 55.66C202.143 55.5663 202.189 55.4694 202.23 55.3699C202.27 55.2507 202.29 55.1257 202.29 54.9999L202.27 55.0299Z" fill="white"/>
<path d="M207.79 56.8C207.752 57.1179 207.688 57.4323 207.6 57.74C207.507 58.0467 207.379 58.3419 207.22 58.62C207.127 58.7467 207.027 58.8767 206.92 59.01C206.806 59.1303 206.682 59.2407 206.55 59.34C206.414 59.433 206.266 59.507 206.11 59.56C205.959 59.6132 205.8 59.6369 205.64 59.63C205.481 59.6338 205.323 59.5995 205.18 59.53C205.042 59.4717 204.916 59.3867 204.81 59.28C204.695 59.1737 204.594 59.0526 204.51 58.92C204.271 58.5283 204.111 58.0934 204.04 57.64C204.005 57.3277 204.005 57.0124 204.04 56.7C204.093 56.0416 204.273 55.3998 204.57 54.81C204.644 54.6616 204.728 54.5179 204.82 54.38C204.912 54.2358 205.02 54.1018 205.14 53.98C205.257 53.8669 205.388 53.7694 205.53 53.69C205.673 53.6096 205.836 53.5682 206 53.57C206.245 53.5643 206.488 53.6156 206.71 53.72C206.907 53.8151 207.084 53.9476 207.23 54.11C207.375 54.2845 207.493 54.4801 207.58 54.69C207.668 54.9134 207.735 55.1444 207.78 55.38C207.823 55.6177 207.847 55.8585 207.85 56.1C207.846 56.3344 207.826 56.5683 207.79 56.8ZM206.89 56.67C206.89 56.44 206.89 56.22 206.89 56C206.891 55.7781 206.868 55.5567 206.82 55.34C206.8 55.2263 206.767 55.1154 206.72 55.01C206.679 54.9134 206.625 54.8226 206.56 54.74C206.498 54.6607 206.42 54.5958 206.33 54.55C206.238 54.4998 206.134 54.4788 206.03 54.49C205.919 54.499 205.812 54.537 205.72 54.6C205.628 54.6743 205.547 54.762 205.48 54.86C205.415 54.9603 205.361 55.0677 205.32 55.18L205.19 55.49C205.11 55.73 205.04 55.97 204.98 56.2C204.928 56.4374 204.891 56.6779 204.87 56.92C204.87 57.02 204.87 57.13 204.87 57.25C204.87 57.37 204.87 57.49 204.87 57.61C204.88 57.7282 204.9 57.8454 204.93 57.96C204.958 58.0645 204.998 58.1652 205.05 58.26C205.101 58.3521 205.173 58.4309 205.26 58.49C205.359 58.5547 205.472 58.5926 205.59 58.6C205.692 58.625 205.798 58.625 205.9 58.6C205.994 58.5603 206.082 58.5063 206.16 58.44C206.248 58.3789 206.323 58.3006 206.38 58.21C206.441 58.1246 206.494 58.0343 206.54 57.94C206.634 57.7482 206.708 57.5471 206.76 57.34C206.827 57.1219 206.871 56.8973 206.89 56.67Z" fill="white"/>
<path d="M211.27 54.79C211.26 54.9567 211.208 55.1183 211.12 55.26C211.032 55.4012 210.92 55.5264 210.79 55.63C210.656 55.7386 210.508 55.8294 210.35 55.9C210.196 55.9676 210.029 56.0017 209.86 56C209.71 55.999 209.562 55.9612 209.43 55.89C209.303 55.8226 209.191 55.7308 209.1 55.62C208.999 55.5112 208.924 55.3814 208.88 55.24C208.832 55.0984 208.808 54.9496 208.81 54.8C208.829 54.632 208.88 54.4691 208.96 54.32C209.04 54.1704 209.145 54.0352 209.27 53.92C209.394 53.7996 209.54 53.7045 209.7 53.64C209.854 53.5723 210.021 53.5382 210.19 53.54C210.343 53.5445 210.493 53.582 210.63 53.65C210.762 53.7216 210.878 53.8205 210.97 53.94C211.075 54.0526 211.157 54.1852 211.21 54.33C211.27 54.4754 211.291 54.634 211.27 54.79ZM210.53 54.79C210.555 54.7223 210.555 54.6477 210.53 54.58C210.498 54.5184 210.454 54.4639 210.4 54.42C210.348 54.3689 210.287 54.3281 210.22 54.3C210.155 54.2669 210.083 54.2498 210.01 54.25C209.949 54.2548 209.89 54.2755 209.84 54.31C209.787 54.3415 209.739 54.3821 209.7 54.43C209.659 54.4779 209.625 54.5319 209.6 54.59C209.58 54.6456 209.563 54.7024 209.55 54.76C209.54 54.8263 209.54 54.8937 209.55 54.96C209.563 55.0267 209.586 55.0909 209.62 55.15C209.653 55.1999 209.698 55.2411 209.75 55.27C209.814 55.2956 209.886 55.2956 209.95 55.27C210.023 55.2848 210.097 55.2848 210.17 55.27C210.247 55.2496 210.319 55.212 210.38 55.16C210.442 55.1179 210.491 55.0589 210.52 54.99C210.547 54.9127 210.55 54.8292 210.53 54.75V54.79Z" fill="white"/>
<path d="M351.49 175.88C350.099 176.151 348.687 176.291 347.27 176.3C344.408 176.321 341.57 175.775 338.92 174.694C336.27 173.613 333.86 172.017 331.83 170L331.2 170.63C333.308 172.741 335.814 174.412 338.572 175.547C341.331 176.681 344.287 177.257 347.27 177.24C348.764 177.232 350.254 177.081 351.72 176.79C351.549 176.602 351.456 176.355 351.46 176.1C351.46 176.026 351.471 175.952 351.49 175.88Z" fill="#0EA5E9"/>
<path d="M354.122 175.208L349.812 175.22L349.847 187.69L354.157 187.678L354.122 175.208Z" fill="#0EA5E9"/>
<g opacity="0.2">
<path opacity="0.2" d="M354.122 175.208L349.812 175.22L349.847 187.69L354.157 187.678L354.122 175.208Z" fill="black"/>
</g>
<path d="M338.88 192.81C338.88 189.56 344.73 186.9 351.97 186.88C359.21 186.86 365.09 189.48 365.1 192.74C356.636 195.108 347.692 195.163 339.2 192.9L338.88 192.81Z" fill="#0EA5E9"/>
<path d="M363.901 139.464L332.703 171.056L333.336 171.682L364.534 140.089L363.901 139.464Z" fill="#0EA5E9"/>
<path d="M369.91 154.42C369.908 151.443 369.316 148.496 368.168 145.75C367.019 143.003 365.338 140.512 363.22 138.42L362.59 139.05C365.392 141.838 367.384 145.335 368.352 149.167C369.321 153 369.231 157.023 368.091 160.808C366.952 164.593 364.805 167.997 361.881 170.657C358.957 173.317 355.366 175.132 351.49 175.91C351.484 175.966 351.484 176.023 351.49 176.08C351.486 176.335 351.579 176.581 351.75 176.77C356.894 175.725 361.518 172.93 364.834 168.861C368.151 164.792 369.955 159.699 369.94 154.45L369.91 154.42Z" fill="#0EA5E9"/>
<path d="M362.984 163.254C367.236 155.406 364.321 145.598 356.474 141.347C348.627 137.095 338.819 140.009 334.567 147.857C330.316 155.704 333.23 165.512 341.077 169.763C348.924 174.015 358.733 171.101 362.984 163.254Z" fill="#0EA5E9"/>
<path d="M354.9 161.48L354.38 160.98C358.1 157.12 361.12 150.08 359.7 144.07L360.4 143.91C361.89 150.17 358.76 157.49 354.9 161.48Z" fill="#0EA5E9"/>
<path d="M337.87 167.25L338.01 166.53C344.06 167.74 351.01 164.48 354.72 160.62L355.24 161.13C351.38 165.12 344.18 168.51 337.87 167.25Z" fill="#0EA5E9"/>
<path d="M343.27 150.25L342.75 149.75C346.61 145.75 353.82 142.37 360.12 143.63L359.98 144.34C353.93 143.13 347 146.4 343.27 150.25Z" fill="#0EA5E9"/>
<path d="M337.59 167C336.11 160.74 339.24 153.42 343.09 149.42L343.62 149.93C339.9 153.78 336.87 160.83 338.3 166.83L337.59 167Z" fill="#0EA5E9"/>
<path d="M359.795 143.755L337.337 167.011L337.862 167.518L360.32 144.262L359.795 143.755Z" fill="#0EA5E9"/>
<path d="M345.229 139.686L344.722 140.211L364.403 159.217L364.91 158.692L345.229 139.686Z" fill="#0EA5E9"/>
<path d="M337.273 144.357L336.766 144.883L360.008 167.327L360.515 166.802L337.273 144.357Z" fill="#0EA5E9"/>
<path d="M333.156 152.703L332.649 153.229L351.812 171.734L352.319 171.209L333.156 152.703Z" fill="#0EA5E9"/>
<g opacity="0.2">
<path opacity="0.2" d="M354.9 161.48L354.38 160.98C358.1 157.12 361.12 150.08 359.7 144.07L360.4 143.91C361.89 150.17 358.76 157.49 354.9 161.48Z" fill="black"/>
<path opacity="0.2" d="M337.87 167.25L338.01 166.53C344.06 167.74 351.01 164.48 354.72 160.62L355.24 161.13C351.38 165.12 344.18 168.51 337.87 167.25Z" fill="black"/>
<path opacity="0.2" d="M343.27 150.25L342.75 149.75C346.61 145.75 353.82 142.37 360.12 143.63L359.98 144.34C353.93 143.13 347 146.4 343.27 150.25Z" fill="black"/>
<path opacity="0.2" d="M337.59 167C336.11 160.74 339.24 153.42 343.09 149.42L343.62 149.93C339.9 153.78 336.87 160.83 338.3 166.83L337.59 167Z" fill="black"/>
<path opacity="0.2" d="M359.795 143.755L337.337 167.011L337.862 167.518L360.32 144.262L359.795 143.755Z" fill="black"/>
<path opacity="0.2" d="M345.229 139.686L344.722 140.211L364.403 159.217L364.91 158.692L345.229 139.686Z" fill="black"/>
<path opacity="0.2" d="M337.273 144.358L336.766 144.883L360.008 167.327L360.515 166.802L337.273 144.358Z" fill="black"/>
<path opacity="0.2" d="M333.156 152.703L332.649 153.229L351.812 171.734L352.319 171.209L333.156 152.703Z" fill="black"/>
</g>
<path d="M250.74 172.27V177.85C250.599 177.85 250.465 177.906 250.365 178.005C250.266 178.105 250.21 178.239 250.21 178.38C250.21 178.521 250.266 178.655 250.365 178.755C250.465 178.854 250.599 178.91 250.74 178.91H257.11V171.2H250.74C250.611 171.218 250.492 171.282 250.406 171.38C250.321 171.478 250.273 171.604 250.273 171.735C250.273 171.865 250.321 171.992 250.406 172.09C250.492 172.188 250.611 172.252 250.74 172.27Z" fill="#0EA5E9"/>
<path opacity="0.3" d="M250.74 172.27V177.85C250.599 177.85 250.465 177.906 250.365 178.005C250.266 178.105 250.21 178.239 250.21 178.38C250.21 178.521 250.266 178.655 250.365 178.755C250.465 178.854 250.599 178.91 250.74 178.91H257.11V171.2H250.74C250.611 171.218 250.492 171.282 250.406 171.38C250.321 171.478 250.273 171.604 250.273 171.735C250.273 171.865 250.321 171.992 250.406 172.09C250.492 172.188 250.611 172.252 250.74 172.27Z" fill="white"/>
<path d="M255.7 172.28H250.74V177.85H255.7V172.28Z" fill="#0EA5E9"/>
<path opacity="0.6" d="M255.7 172.28H250.74V177.85H255.7V172.28Z" fill="white"/>
<path d="M254.65 171.74H282C283.18 171.74 284.13 173.22 284.13 175.06C284.13 176.9 283.18 178.38 282 178.38H254.65V171.74Z" fill="#0EA5E9"/>
<path opacity="0.9" d="M254.65 171.74H282C283.18 171.74 284.13 173.22 284.13 175.06C284.13 176.9 283.18 178.38 282 178.38H254.65V171.74Z" fill="white"/>
<path d="M254.65 178.91C260.28 178.91 276.08 179.02 281.71 178.91C285.56 178.85 285.77 171.46 281.99 171.2C279.35 171.02 276.65 171.2 273.99 171.2H254.65C254.521 171.218 254.402 171.282 254.316 171.38C254.231 171.478 254.183 171.604 254.183 171.735C254.183 171.866 254.231 171.992 254.316 172.09C254.402 172.188 254.521 172.252 254.65 172.27H280.82C282.05 172.27 282.93 172.27 283.41 173.74C283.82 175 283.69 177.57 282.01 177.85C281.817 177.865 281.623 177.865 281.43 177.85H254.65C254.509 177.85 254.375 177.906 254.275 178.005C254.176 178.105 254.12 178.239 254.12 178.38C254.12 178.521 254.176 178.655 254.275 178.755C254.375 178.854 254.509 178.91 254.65 178.91Z" fill="#0EA5E9"/>
<g opacity="0.2">
<path opacity="0.2" d="M254.65 178.91C260.28 178.91 276.08 179.02 281.71 178.91C285.56 178.85 285.77 171.46 281.99 171.2C279.35 171.02 276.65 171.2 273.99 171.2H254.65C254.521 171.218 254.402 171.282 254.316 171.38C254.231 171.478 254.183 171.604 254.183 171.735C254.183 171.866 254.231 171.992 254.316 172.09C254.402 172.188 254.521 172.252 254.65 172.27H280.82C282.05 172.27 282.93 172.27 283.41 173.74C283.82 175 283.69 177.57 282.01 177.85C281.817 177.865 281.623 177.865 281.43 177.85H254.65C254.509 177.85 254.375 177.906 254.275 178.005C254.176 178.105 254.12 178.239 254.12 178.38C254.12 178.521 254.176 178.655 254.275 178.755C254.375 178.854 254.509 178.91 254.65 178.91Z" fill="white"/>
</g>
<path d="M251.69 179.8V185C251.557 185 251.43 185.053 251.336 185.146C251.243 185.24 251.19 185.367 251.19 185.5C251.19 185.633 251.243 185.76 251.336 185.854C251.43 185.947 251.557 186 251.69 186C253.69 186 255.62 186 257.59 186V178.83H251.69C251.582 178.857 251.486 178.919 251.417 179.007C251.349 179.095 251.312 179.203 251.312 179.315C251.312 179.426 251.349 179.535 251.417 179.623C251.486 179.71 251.582 179.773 251.69 179.8Z" fill="#0EA5E9"/>
<path opacity="0.3" d="M251.69 179.8V185C251.557 185 251.43 185.053 251.336 185.146C251.243 185.24 251.19 185.367 251.19 185.5C251.19 185.633 251.243 185.76 251.336 185.854C251.43 185.947 251.557 186 251.69 186C253.69 186 255.62 186 257.59 186V178.83H251.69C251.582 178.857 251.486 178.919 251.417 179.007C251.349 179.095 251.312 179.203 251.312 179.315C251.312 179.426 251.349 179.535 251.417 179.623C251.486 179.71 251.582 179.773 251.69 179.8Z" fill="white"/>
<path d="M256.28 179.8H251.69V184.96H256.28V179.8Z" fill="#0EA5E9"/>
<path opacity="0.6" d="M256.28 179.8H251.69V184.96H256.28V179.8Z" fill="white"/>
<path d="M255.31 179.3H280.65C281.74 179.3 282.65 180.68 282.65 182.38C282.65 184.08 281.76 185.46 280.65 185.46H255.31V179.3Z" fill="#0EA5E9"/>
<path opacity="0.9" d="M255.31 179.3H280.65C281.74 179.3 282.65 180.68 282.65 182.38C282.65 184.08 281.76 185.46 280.65 185.46H255.31V179.3Z" fill="white"/>
<path d="M255.31 186C260.52 186 275.16 186.09 280.37 186C283.94 185.94 284.13 179.1 280.63 178.86C278.19 178.69 275.68 178.86 273.24 178.86H255.31C255.177 178.86 255.05 178.913 254.956 179.006C254.863 179.1 254.81 179.227 254.81 179.36C254.81 179.493 254.863 179.62 254.956 179.714C255.05 179.807 255.177 179.86 255.31 179.86H279.55C280.69 179.86 281.55 179.86 281.95 181.22C282.33 182.38 282.21 184.76 280.65 185.02C280.47 185.035 280.29 185.035 280.11 185.02H255.31C255.177 185.02 255.05 185.073 254.956 185.166C254.863 185.26 254.81 185.387 254.81 185.52C254.81 185.653 254.863 185.78 254.956 185.874C255.05 185.967 255.177 186.02 255.31 186.02V186Z" fill="#0EA5E9"/>
<path d="M248.74 187V193.14C248.584 193.14 248.433 193.202 248.323 193.313C248.212 193.423 248.15 193.574 248.15 193.73C248.15 193.887 248.212 194.037 248.323 194.147C248.433 194.258 248.584 194.32 248.74 194.32H255.74V185.79H248.74C248.58 185.79 248.426 185.854 248.312 185.967C248.199 186.081 248.135 186.235 248.135 186.395C248.135 186.556 248.199 186.709 248.312 186.823C248.426 186.936 248.58 187 248.74 187Z" fill="#0EA5E9"/>
<path opacity="0.3" d="M248.74 187V193.14C248.584 193.14 248.433 193.202 248.323 193.313C248.212 193.423 248.15 193.574 248.15 193.73C248.15 193.887 248.212 194.037 248.323 194.147C248.433 194.258 248.584 194.32 248.74 194.32H255.74V185.79H248.74C248.58 185.79 248.426 185.854 248.312 185.967C248.199 186.081 248.135 186.235 248.135 186.395C248.135 186.556 248.199 186.709 248.312 186.823C248.426 186.936 248.58 187 248.74 187Z" fill="white"/>
<path d="M254.2 187.05H248.74V193.19H254.2V187.05Z" fill="#0EA5E9"/>
<path opacity="0.6" d="M254.2 187.05H248.74V193.19H254.2V187.05Z" fill="white"/>
<path d="M253.06 186.45H283.2C284.51 186.45 285.56 188.09 285.56 190.11C285.56 192.13 284.51 193.77 283.2 193.77H253.06V186.45Z" fill="#0EA5E9"/>
<path opacity="0.9" d="M253.06 186.45H283.2C284.51 186.45 285.56 188.09 285.56 190.11C285.56 192.13 284.51 193.77 283.2 193.77H253.06V186.45Z" fill="white"/>
<path d="M253.06 194.36C259.26 194.36 276.68 194.47 282.88 194.36C287.12 194.28 287.35 186.15 283.19 185.86C280.28 185.66 277.3 185.86 274.39 185.86H253.06C252.904 185.86 252.753 185.922 252.643 186.033C252.532 186.143 252.47 186.294 252.47 186.45C252.47 186.606 252.532 186.757 252.643 186.867C252.753 186.978 252.904 187.04 253.06 187.04H281.9C283.26 187.04 284.23 187.04 284.75 188.66C285.21 190.04 285.07 192.88 283.2 193.18C282.99 193.2 282.78 193.2 282.57 193.18H253.06C252.904 193.18 252.753 193.242 252.643 193.353C252.532 193.463 252.47 193.614 252.47 193.77C252.47 193.926 252.532 194.077 252.643 194.187C252.753 194.298 252.904 194.36 253.06 194.36Z" fill="#0EA5E9"/>
<g opacity="0.2">
<path opacity="0.2" d="M253.06 194.36C259.26 194.36 276.68 194.47 282.88 194.36C287.12 194.28 287.35 186.15 283.19 185.86C280.28 185.66 277.3 185.86 274.39 185.86H253.06C252.904 185.86 252.753 185.922 252.643 186.033C252.532 186.143 252.47 186.294 252.47 186.45C252.47 186.606 252.532 186.757 252.643 186.867C252.753 186.978 252.904 187.04 253.06 187.04H281.9C283.26 187.04 284.23 187.04 284.75 188.66C285.21 190.04 285.07 192.88 283.2 193.18C282.99 193.2 282.78 193.2 282.57 193.18H253.06C252.904 193.18 252.753 193.242 252.643 193.353C252.532 193.463 252.47 193.614 252.47 193.77C252.47 193.926 252.532 194.077 252.643 194.187C252.753 194.298 252.904 194.36 253.06 194.36Z" fill="black"/>
</g>
<path d="M381.52 193.3H224.86V200.98H381.52V193.3Z" fill="#0EA5E9"/>
<path opacity="0.3" d="M381.52 193.3H224.86V200.98H381.52V193.3Z" fill="white"/>
<path d="M354.71 348.02H252.63L232.39 200.92H374.95L354.71 348.02Z" fill="#0EA5E9"/>
<path opacity="0.5" d="M354.71 348.02H252.63L232.39 200.92H374.95L354.71 348.02Z" fill="white"/>
<path opacity="0.1" d="M345.81 348.3H260.81L246.32 222.86H360.06L345.81 348.3Z" fill="white"/>
<path d="M128.28 187.24L137.3 228.92L122.28 229.83L128.28 187.24Z" fill="#0EA5E9"/>
<path opacity="0.6" d="M128.28 187.24L137.3 228.92L122.28 229.83L128.28 187.24Z" fill="white"/>
<path d="M151.68 316.29L151.32 334.14H143.14L142.07 315.46L151.68 316.29Z" fill="#FFB573"/>
<path opacity="0.1" d="M142.74 327.21L142.49 322.8L151.56 322.44L151.46 327.21H142.74Z" fill="black"/>
<path d="M152.87 333.76C152.825 333.748 152.785 333.724 152.753 333.69C152.721 333.657 152.7 333.615 152.69 333.57C152.68 333.523 152.684 333.474 152.702 333.43C152.719 333.385 152.75 333.347 152.79 333.32C152.92 333.23 155.99 331.25 157.48 331.7C157.768 331.786 158.011 331.979 158.16 332.24C158.248 332.392 158.294 332.564 158.294 332.74C158.294 332.915 158.248 333.088 158.16 333.24C157.8 333.77 156.66 334 155.56 334C154.658 334.003 153.757 333.922 152.87 333.76ZM153.54 333.44C155.21 333.66 157.45 333.63 157.85 332.99C157.91 332.91 157.96 332.77 157.85 332.48C157.81 332.396 157.752 332.323 157.679 332.266C157.606 332.208 157.521 332.169 157.43 332.15C157.297 332.11 157.159 332.09 157.02 332.09C155.779 332.295 154.595 332.755 153.54 333.44Z" fill="#0EA5E9"/>
<path d="M152.75 333.74C152.717 333.717 152.691 333.685 152.676 333.648C152.66 333.611 152.654 333.57 152.66 333.53C152.66 333.41 152.85 330.74 153.96 329.71C154.112 329.561 154.294 329.448 154.495 329.377C154.695 329.306 154.908 329.28 155.12 329.3C155.71 329.37 155.89 329.69 155.92 329.96C156.13 331.06 154.04 333.21 152.99 333.74C152.976 333.747 152.961 333.751 152.945 333.751C152.929 333.751 152.914 333.747 152.9 333.74C152.877 333.752 152.851 333.759 152.825 333.759C152.799 333.759 152.773 333.752 152.75 333.74ZM154.99 329.74C154.857 329.738 154.724 329.763 154.601 329.812C154.477 329.862 154.365 329.936 154.27 330.03C153.625 330.906 153.237 331.945 153.15 333.03C154.24 332.3 155.61 330.62 155.54 329.96C155.54 329.9 155.54 329.73 155.11 329.69H154.99V329.74Z" fill="#0EA5E9"/>
<path d="M151.93 332.38H142.22C142.035 332.389 141.858 332.462 141.72 332.585C141.581 332.709 141.49 332.877 141.46 333.06L139.81 341.89C139.727 342.254 139.784 342.636 139.969 342.96C140.154 343.284 140.454 343.527 140.81 343.64C140.9 343.65 140.99 343.65 141.08 343.64C144.61 343.55 147.74 343.32 152.08 343.31C157.26 343.31 155.96 343.98 162.08 344.05C165.75 344.05 166.29 339.44 164.73 339.22C157.61 338.22 156.82 335.87 154.03 333.07C153.443 332.581 152.692 332.334 151.93 332.38Z" fill="#263238"/>
<path d="M109.23 313.63L104.69 330.77L96.78 328.66L100.13 310.38L109.23 313.63Z" fill="#FFB573"/>
<path opacity="0.1" d="M106.36 324.45L97.92 322.46L99.19 315.5L108.23 317.39L106.36 324.45Z" fill="black"/>
<path d="M106 331.54C105.961 331.518 105.928 331.487 105.905 331.448C105.882 331.409 105.87 331.365 105.87 331.32C105.867 331.273 105.879 331.227 105.904 331.187C105.929 331.147 105.966 331.117 106.01 331.1C106.15 331.04 109.52 329.69 110.91 330.42C111.176 330.561 111.38 330.796 111.48 331.08C111.546 331.245 111.567 331.425 111.541 331.6C111.514 331.776 111.442 331.942 111.33 332.08C110.88 332.53 109.72 332.53 108.63 332.32C107.731 332.143 106.85 331.882 106 331.54ZM106.72 331.36C108.31 331.9 110.52 332.31 111.03 331.75C111.11 331.68 111.18 331.56 111.03 331.24C111.003 331.151 110.957 331.069 110.895 331C110.833 330.931 110.756 330.876 110.67 330.84C110.548 330.776 110.416 330.732 110.28 330.71C109.048 330.674 107.822 330.895 106.68 331.36H106.72Z" fill="#0EA5E9"/>
<path d="M105.85 331.5C105.832 331.466 105.823 331.428 105.823 331.39C105.823 331.352 105.832 331.314 105.85 331.28C105.85 331.16 106.55 328.59 107.85 327.79C108.026 327.673 108.226 327.597 108.436 327.567C108.645 327.538 108.858 327.556 109.06 327.62C109.62 327.79 109.75 328.14 109.73 328.41C109.73 329.53 107.28 331.24 106.15 331.55C106.138 331.557 106.124 331.561 106.11 331.561C106.096 331.561 106.082 331.557 106.07 331.55C106.034 331.57 105.991 331.576 105.951 331.567C105.91 331.558 105.874 331.534 105.85 331.5ZM108.78 328.02C108.65 327.993 108.515 327.993 108.385 328.019C108.254 328.044 108.13 328.096 108.02 328.17C107.213 328.906 106.639 329.862 106.37 330.92C107.57 330.42 109.22 329.04 109.27 328.37C109.27 328.31 109.27 328.14 108.9 328.03L108.78 328.02Z" fill="#0EA5E9"/>
<path d="M105.3 330L95.77 328.16C95.5884 328.131 95.4024 328.168 95.2451 328.263C95.0877 328.358 94.9691 328.506 94.91 328.68L91.69 337C91.5404 337.342 91.5253 337.727 91.6477 338.079C91.77 338.432 92.0209 338.725 92.35 338.9C92.4327 338.94 92.52 338.971 92.61 338.99C96.07 339.6 99.18 339.99 103.48 340.82C108.57 341.82 107.16 342.24 113.13 343.5C116.74 344.25 118.13 339.8 116.63 339.28C109.81 336.95 109.47 334.46 107.24 331.18C106.773 330.548 106.076 330.124 105.3 330Z" fill="#263238"/>
<path d="M144.12 162.26C144.12 162.26 153.89 232.48 155.04 254.89C155.93 272.42 155.37 320.13 155.37 320.13H140.71L140.36 314C138.076 273.893 132.514 234.04 123.73 194.84L116.89 164.29L144.12 162.26Z" fill="#263238"/>
<path opacity="0.5" d="M124.63 208.1L130.42 179.1L131.36 182.81C135.785 200.455 136.803 218.783 134.36 236.81L133.36 244.41C132.42 240.4 128.25 218.46 124.63 208.1Z" fill="black"/>
<path d="M134.42 162.58C134.42 162.58 130.34 248.19 127.98 261.35C125.21 276.83 109.63 317.69 109.63 317.69L98.3 314.69C98.3 314.69 102.92 283.18 105.79 264.44C108.23 248.5 108.84 221.2 109.3 203.3C109.3 203.3 105.1 173.64 107.72 165.94L134.42 162.58Z" fill="#263238"/>
<path d="M114.13 315.28L111.09 321.94L95.05 317.22L95.77 311.34L114.13 315.28Z" fill="#0EA5E9"/>
<path d="M156.87 316.74L156.45 324L138.62 323.83L138.07 317.03L156.87 316.74Z" fill="#0EA5E9"/>
<path d="M128.23 64C128.23 64 127.77 54 119.68 58.77L128.23 64Z" fill="#263238"/>
<path opacity="0.7" d="M128.23 64C128.23 64 127.77 54 119.68 58.77L128.23 64Z" fill="white"/>
<path d="M174.94 75.09L177.35 69.8V62.53C177.356 61.9027 177.537 61.2895 177.873 60.7595C178.208 60.2295 178.685 59.8037 179.25 59.53L182.96 57.71C183.733 57.3335 184.62 57.2655 185.441 57.5201C186.262 57.7746 186.956 58.3324 187.38 59.08L188.11 60.37C188.478 61.0248 188.618 61.7838 188.505 62.5267C188.393 63.2695 188.036 63.9535 187.49 64.47C186.936 65.0015 186.583 65.708 186.49 66.47L186.33 67.59C186.257 68.0834 186.076 68.5547 185.802 68.971C185.527 69.3874 185.165 69.7386 184.74 70L182.93 71.1L180.16 77.42L174.94 75.09Z" fill="#FFB573"/>
<path d="M180.97 77.3601L182.48 74.3401L175.69 70.1801L174.25 73.6001L180.97 77.3601Z" fill="#263238"/>
<path opacity="0.7" d="M180.97 77.3601L182.48 74.3401L175.69 70.1801L174.25 73.6001L180.97 77.3601Z" fill="white"/>
<path d="M133.72 97.22L144.72 97.31C150.091 96.2711 155.164 94.0542 159.576 90.8189C163.987 87.5836 167.625 83.4105 170.23 78.6L174.17 71.38L182.52 77L174.13 93.25C170.13 101.08 163.59 103.73 160.3 104.34L136.17 111L133.72 97.22Z" fill="#0EA5E9"/>
<path opacity="0.8" d="M133.72 97.22L144.72 97.31C150.091 96.2711 155.164 94.0542 159.576 90.8189C163.987 87.5836 167.625 83.4105 170.23 78.6L174.17 71.38L182.52 77L174.13 93.25C170.13 101.08 163.59 103.73 160.3 104.34L136.17 111L133.72 97.22Z" fill="white"/>
<path opacity="0.2" d="M161.67 103.8L137.28 110.84L137.01 108.44L141.25 107.43L161.67 103.8Z" fill="black"/>
<path d="M143 109.77L146 163.68C134.49 167.37 122.361 168.729 110.32 167.68L106.22 167.32L98.55 111.25C98.3182 109.508 98.7325 107.741 99.7145 106.284C100.697 104.827 102.178 103.779 103.88 103.34L129.54 96.66L136.19 97.56C140.62 96.42 142.74 105.22 143 109.77Z" fill="#0EA5E9"/>
<path d="M93.19 230.67L98 197.36C102.142 168.818 102.328 139.842 98.55 111.25C98.3182 109.508 98.7325 107.741 99.7145 106.284C100.697 104.827 102.178 103.779 103.88 103.34L112.05 101.21C112.05 101.21 114 145 114 159.6C114 162.04 114 165.12 113.93 168.6C113.93 169.3 113.93 170.02 113.93 170.75C113.83 176.3 113.67 182.75 113.49 189.29V189.64C113.41 192.19 113.34 194.76 113.27 197.3V197.35C113.18 200.35 113.08 203.35 112.99 206.26V206.45C112.54 220.62 112.13 232.11 112.13 232.11L93.19 230.67Z" fill="#0EA5E9"/>
<path opacity="0.8" d="M93.19 230.67L98 197.36C102.142 168.818 102.328 139.842 98.55 111.25C98.3182 109.508 98.7325 107.741 99.7145 106.284C100.697 104.827 102.178 103.779 103.88 103.34L112.05 101.21C112.05 101.21 114 145 114 159.6C114 162.04 114 165.12 113.93 168.6C113.93 169.3 113.93 170.02 113.93 170.75C113.83 176.3 113.67 182.75 113.49 189.29V189.64C113.41 192.19 113.34 194.76 113.27 197.3V197.35C113.18 200.35 113.08 203.35 112.99 206.26V206.45C112.54 220.62 112.13 232.11 112.13 232.11L93.19 230.67Z" fill="white"/>
<path d="M139.35 166.29L138.21 157.63L129.57 96.63L136.22 97.53C140.62 96.39 142.74 105.19 142.99 109.74L143.94 127.42C144.813 143.417 146.913 159.324 150.22 175L161.67 229.38L148 232.19L139.34 166.29H139.35Z" fill="#0EA5E9"/>
<path opacity="0.8" d="M139.35 166.29L138.21 157.63L129.57 96.63L136.22 97.53C140.62 96.39 142.74 105.19 142.99 109.74L143.94 127.42C144.813 143.417 146.913 159.324 150.22 175L161.67 229.38L148 232.19L139.34 166.29H139.35Z" fill="white"/>
<path opacity="0.2" d="M113.63 142.87L108.12 143.87L104.74 113.4L100.24 123.76L104.24 154.09L113.9 152.85C113.83 149.89 113.74 146.48 113.63 142.87Z" fill="black"/>
<path d="M127.24 99.75L124.62 103.09L120.17 103.8L112.97 101.62C112.991 101.504 113.021 101.391 113.06 101.28C114.96 96.19 112.65 87.38 110.9 82.36L123.44 90.28C123.07 93.94 123.74 97.89 127.24 99.75Z" fill="#FFB573"/>
<path opacity="0.1" d="M118.62 89C118.62 89 120.99 89.53 123.44 90.31C123.226 92.0355 123.358 93.7864 123.83 95.46C117.83 96.15 114.52 92.4 112.97 89.76C112.81 88.99 112.63 88.23 112.44 87.48L118.62 89Z" fill="black"/>
<path d="M127.97 102.44L123.77 109.24L116.69 104.91L118.26 102.44L125.89 101.23L127.97 102.44Z" fill="#263238"/>
<path opacity="0.5" d="M127.97 102.44L123.77 109.24L116.69 104.91L118.26 102.44L125.89 101.23L127.97 102.44Z" fill="white"/>
<path d="M131.01 96.36L126.77 95.75L121.59 101.21L111.48 98.87L109 101.9L118.66 107.83L121.97 102.74L127.36 105.85L131.01 96.36Z" fill="#263238"/>
<path opacity="0.7" d="M131.01 96.36L126.77 95.75L121.59 101.21L111.48 98.87L109 101.9L118.66 107.83L121.97 102.74L127.36 105.85L131.01 96.36Z" fill="white"/>
<path d="M106.87 73.24C109.14 81.38 110.07 86.24 115.15 89.57C122.78 94.57 132.15 88.57 132.33 79.97C132.49 72.14 128.73 60.19 119.95 58.65C118.017 58.3016 116.027 58.4535 114.17 59.0914C112.312 59.7292 110.649 60.8318 109.338 62.2942C108.027 63.7566 107.112 65.5301 106.68 67.446C106.248 69.362 106.313 71.3566 106.87 73.24Z" fill="#FFB573"/>
<path d="M129.7 64.52C129.62 63.91 129.05 62.63 127.7 63.41C127.7 63.41 126.17 62.1 125.36 63.72C125.36 63.72 123.63 64.01 123.88 65.13C124.22 66.59 125.3 65.19 127.12 65.29C128.94 65.39 129.85 65.57 129.7 64.52Z" fill="#263238"/>
<path opacity="0.6" d="M129.7 64.52C129.62 63.91 129.05 62.63 127.7 63.41C127.7 63.41 126.17 62.1 125.36 63.72C125.36 63.72 123.63 64.01 123.88 65.13C124.22 66.59 125.3 65.19 127.12 65.29C128.94 65.39 129.85 65.57 129.7 64.52Z" fill="white"/>
<path d="M116.24 67.3C116.11 66.7 116.19 65.3 117.74 65.55C117.74 65.55 118.74 63.78 120.04 65.02C120.04 65.02 121.77 64.68 121.92 65.82C122.12 67.3 120.62 66.37 118.92 67.1C117.22 67.83 116.47 68.33 116.24 67.3Z" fill="#263238"/>
<path opacity="0.6" d="M116.24 67.3C116.11 66.7 116.19 65.3 117.74 65.55C117.74 65.55 118.74 63.78 120.04 65.02C120.04 65.02 121.77 64.68 121.92 65.82C122.12 67.3 120.62 66.37 118.92 67.1C117.22 67.83 116.47 68.33 116.24 67.3Z" fill="white"/>
<path d="M112.35 76.94C112.35 76.94 112.77 71.01 110.93 68.84C109.09 66.67 119.37 62.21 117.36 58.47C115.35 54.73 107.12 55.14 106.36 59.32C105.577 59.734 104.892 60.3106 104.35 61.0112C103.808 61.7117 103.423 62.5201 103.219 63.3819C103.016 64.2438 102.999 65.1392 103.17 66.0082C103.34 66.8771 103.695 67.6995 104.21 68.42C104.21 68.42 102.04 72.77 107.39 76.94L111.23 78.4L112.35 76.94Z" fill="#263238"/>
<path opacity="0.7" d="M112.35 76.94C112.35 76.94 112.77 71.01 110.93 68.84C109.09 66.67 119.37 62.21 117.36 58.47C115.35 54.73 107.12 55.14 106.36 59.32C105.577 59.734 104.892 60.3106 104.35 61.0112C103.808 61.7117 103.423 62.5201 103.219 63.3819C103.016 64.2438 102.999 65.1392 103.17 66.0082C103.34 66.8771 103.695 67.6995 104.21 68.42C104.21 68.42 102.04 72.77 107.39 76.94L111.23 78.4L112.35 76.94Z" fill="white"/>
<path d="M132.49 79.06C132.49 79.06 126.33 77.69 118.23 80.95C118.23 80.95 115.57 81.61 113.61 78.44L112.26 76.24L110.47 77.24L110.13 84.24C110.13 84.24 112.77 90.93 114.86 90.93C114.86 90.93 117.66 94.02 121.31 92.6C121.31 92.6 123.67 94.94 127.31 91.01C127.31 91.01 129.53 90.68 130.74 86.67C130.75 86.63 132.83 85.69 132.49 79.06Z" fill="#263238"/>
<path opacity="0.7" d="M132.49 79.06C132.49 79.06 126.33 77.69 118.23 80.95C118.23 80.95 115.57 81.61 113.61 78.44L112.26 76.24L110.47 77.24L110.13 84.24C110.13 84.24 112.77 90.93 114.86 90.93C114.86 90.93 117.66 94.02 121.31 92.6C121.31 92.6 123.67 94.94 127.31 91.01C127.31 91.01 129.53 90.68 130.74 86.67C130.75 86.63 132.83 85.69 132.49 79.06Z" fill="white"/>
<path d="M125 81.8C125.14 82.47 125.62 82.94 126.06 82.8C126.5 82.66 126.73 82.09 126.59 81.42C126.45 80.75 125.97 80.28 125.53 80.42C125.09 80.56 124.81 81.16 125 81.8Z" fill="#263238"/>
<path d="M125.1 72.0701C126.345 73.9347 127.842 75.6174 129.55 77.0701C129.161 77.4961 128.684 77.8329 128.152 78.0573C127.621 78.2817 127.047 78.3884 126.47 78.3701L125.1 72.0701Z" fill="#ED893E"/>
<path d="M125.07 70.05C125.068 70.7486 125.273 71.4321 125.66 72.0139C126.047 72.5957 126.597 73.0497 127.242 73.3185C127.887 73.5872 128.597 73.6585 129.283 73.5234C129.968 73.3883 130.598 73.0529 131.093 72.5597C131.587 72.0664 131.924 71.4374 132.061 70.7524C132.198 70.0674 132.129 69.3571 131.862 68.7115C131.595 68.0659 131.143 67.514 130.562 67.1256C129.981 66.7373 129.299 66.53 128.6 66.53C127.666 66.53 126.769 66.9006 126.107 67.5604C125.446 68.2203 125.073 69.1156 125.07 70.05Z" fill="#0EA5E9"/>
<path d="M116.2 72.21C116.198 72.909 116.404 73.5928 116.791 74.1749C117.178 74.7569 117.729 75.2109 118.374 75.4793C119.02 75.7477 119.731 75.8185 120.416 75.6826C121.102 75.5467 121.732 75.2103 122.226 74.716C122.72 74.2218 123.057 73.5918 123.193 72.9062C123.329 72.2205 123.258 71.5099 122.989 70.8645C122.721 70.219 122.267 69.6678 121.685 69.2807C121.103 68.8936 120.419 68.688 119.72 68.69C119.258 68.69 118.8 68.781 118.373 68.9579C117.946 69.1348 117.558 69.3941 117.231 69.7209C116.904 70.0478 116.645 70.4358 116.468 70.8629C116.291 71.29 116.2 71.7477 116.2 72.21Z" fill="#0EA5E9"/>
<path opacity="0.6" d="M125.07 70.05C125.068 70.7486 125.273 71.4321 125.66 72.0139C126.047 72.5957 126.597 73.0497 127.242 73.3185C127.887 73.5872 128.597 73.6585 129.283 73.5234C129.968 73.3883 130.598 73.0529 131.093 72.5597C131.587 72.0664 131.924 71.4374 132.061 70.7524C132.198 70.0674 132.129 69.3571 131.862 68.7115C131.595 68.0659 131.143 67.514 130.562 67.1256C129.981 66.7373 129.299 66.53 128.6 66.53C127.666 66.53 126.769 66.9006 126.107 67.5604C125.446 68.2203 125.073 69.1156 125.07 70.05Z" fill="white"/>
<path opacity="0.6" d="M116.2 72.21C116.198 72.909 116.404 73.5928 116.791 74.1749C117.178 74.7569 117.729 75.2109 118.374 75.4793C119.02 75.7477 119.731 75.8185 120.416 75.6826C121.102 75.5467 121.732 75.2103 122.226 74.716C122.72 74.2218 123.057 73.5918 123.193 72.9062C123.329 72.2205 123.258 71.5099 122.989 70.8645C122.721 70.219 122.267 69.6678 121.685 69.2807C121.103 68.8936 120.419 68.688 119.72 68.69C119.258 68.69 118.8 68.781 118.373 68.9579C117.946 69.1348 117.558 69.3941 117.231 69.7209C116.904 70.0478 116.645 70.4358 116.468 70.8629C116.291 71.29 116.2 71.7477 116.2 72.21Z" fill="white"/>
<path opacity="0.9" d="M130.86 72.73C130.232 73.2732 129.43 73.5746 128.6 73.58C127.926 73.5839 127.266 73.3938 126.697 73.0325C126.129 72.6712 125.676 72.1539 125.394 71.5424C125.111 70.9309 125.011 70.251 125.104 69.5838C125.197 68.9167 125.48 68.2905 125.92 67.78L130.86 72.73Z" fill="white"/>
<path opacity="0.9" d="M122.18 74.73C121.517 75.393 120.618 75.7655 119.68 75.7655C118.742 75.7655 117.843 75.393 117.18 74.73C116.517 74.0669 116.144 73.1677 116.144 72.23C116.144 71.2923 116.517 70.393 117.18 69.73L122.18 74.73Z" fill="white"/>
<path d="M124.77 70.05C124.77 69.2925 124.995 68.552 125.415 67.9221C125.836 67.2923 126.434 66.8014 127.134 66.5115C127.834 66.2216 128.604 66.1458 129.347 66.2936C130.09 66.4413 130.773 66.8061 131.308 67.3418C131.844 67.8774 132.209 68.5598 132.356 69.3028C132.504 70.0457 132.428 70.8158 132.138 71.5156C131.849 72.2155 131.358 72.8137 130.728 73.2345C130.098 73.6553 129.358 73.88 128.6 73.88C127.585 73.8773 126.612 73.473 125.895 72.7553C125.177 72.0376 124.773 71.0649 124.77 70.05ZM125.37 70.05C125.368 70.6892 125.556 71.3147 125.91 71.8472C126.263 72.3797 126.767 72.7952 127.357 73.0412C127.947 73.2872 128.597 73.3526 129.224 73.2291C129.851 73.1056 130.428 72.7988 130.88 72.3475C131.333 71.8961 131.642 71.3206 131.767 70.6938C131.893 70.067 131.829 69.417 131.585 68.8262C131.341 68.2354 130.927 67.7304 130.396 67.375C129.864 67.0197 129.239 66.83 128.6 66.83C127.745 66.83 126.925 67.1689 126.32 67.7725C125.714 68.3761 125.373 69.1951 125.37 70.05Z" fill="#263238"/>
<path d="M115.89 72.21C115.89 71.4525 116.115 70.712 116.535 70.0822C116.956 69.4523 117.554 68.9614 118.254 68.6715C118.954 68.3817 119.724 68.3058 120.467 68.4536C121.21 68.6014 121.893 68.9662 122.428 69.5018C122.964 70.0374 123.329 70.7199 123.476 71.4628C123.624 72.2057 123.548 72.9758 123.258 73.6757C122.969 74.3755 122.478 74.9737 121.848 75.3945C121.218 75.8154 120.478 76.04 119.72 76.04C118.704 76.04 117.73 75.6365 117.012 74.9182C116.294 74.2 115.89 73.2258 115.89 72.21ZM116.5 72.21C116.5 72.8469 116.689 73.4694 117.043 73.9989C117.396 74.5285 117.899 74.9412 118.488 75.1849C119.076 75.4286 119.724 75.4924 120.348 75.3681C120.973 75.2439 121.547 74.9372 121.997 74.4869C122.447 74.0366 122.754 73.4628 122.878 72.8382C123.002 72.2136 122.939 71.5661 122.695 70.9778C122.451 70.3894 122.038 69.8865 121.509 69.5327C120.979 69.1789 120.357 68.99 119.72 68.99C118.867 68.9926 118.049 69.3327 117.446 69.936C116.843 70.5393 116.503 71.3568 116.5 72.21Z" fill="#263238"/>
<path d="M123.49 71.3501C123.55 71.2173 123.638 71.0991 123.748 71.0038C123.858 70.9085 123.987 70.8385 124.127 70.7985C124.267 70.7585 124.414 70.7495 124.558 70.7722C124.702 70.795 124.839 70.8488 124.96 70.93L125.3 70.43C125.113 70.3102 124.904 70.2297 124.685 70.1935C124.466 70.1573 124.243 70.1661 124.027 70.2195C123.812 70.2729 123.61 70.3696 123.433 70.5038C123.256 70.638 123.109 70.8069 123 71.0001L123.49 71.3501Z" fill="#263238"/>
<path d="M116.318 73.3106L109.347 77.0485L109.63 77.5772L116.601 73.8394L116.318 73.3106Z" fill="#263238"/>
<path d="M104.5 81.8C105.988 83.3091 108.011 84.1714 110.13 84.2C112.95 84.2 113.61 81.51 112.21 79.2C110.94 77.2 107.95 74.71 105.43 75.78C102.91 76.85 102.69 79.91 104.5 81.8Z" fill="#FFB573"/>
<path d="M200.83 59.92L182.24 61.38L182.26 58.46L201.92 57.01L200.83 59.92Z" fill="#0EA5E9"/>
<path opacity="0.7" d="M200.83 59.92L182.24 61.38L182.26 58.46L201.92 57.01L200.83 59.92Z" fill="white"/>
<path d="M136.78 124.43C136.78 124.43 135.28 114.43 150.28 111.76V122.59L137.28 130.26L136.78 124.43Z" fill="#263238"/>
<path opacity="0.9" d="M136.78 124.43C136.78 124.43 135.28 114.43 150.28 111.76V122.59L137.28 130.26L136.78 124.43Z" fill="white"/>
<path d="M119.28 119.93C119.28 119.93 120.28 115.26 124.62 115.93C128.96 116.6 136.62 122.59 136.62 122.59C136.62 122.59 151.45 110.03 154.28 119.23L137.28 127.59L119.28 119.93Z" fill="#263238"/>
<path opacity="0.8" d="M119.28 119.93C119.28 119.93 120.28 115.26 124.62 115.93C128.96 116.6 136.62 122.59 136.62 122.59C136.62 122.59 151.45 110.03 154.28 119.23L137.28 127.59L119.28 119.93Z" fill="white"/>
<path d="M139.7 124.43H134.9V150.68H139.7V124.43Z" fill="#263238"/>
<path opacity="0.3" d="M139.7 124.43H134.9V150.68H139.7V124.43Z" fill="white"/>
<path d="M139.7 150.68C144.433 146.947 150.186 144.737 156.2 144.34V118.09C150.186 118.487 144.433 120.697 139.7 124.43V150.68Z" fill="#263238"/>
<path opacity="0.5" d="M139.7 150.68C144.433 146.947 150.186 144.737 156.2 144.34V118.09C150.186 118.487 144.433 120.697 139.7 124.43V150.68Z" fill="white"/>
<path d="M134.9 150.68C130.167 146.947 124.414 144.737 118.4 144.34V118.09C124.414 118.487 130.167 120.697 134.9 124.43V150.68Z" fill="#263238"/>
<path opacity="0.5" d="M134.9 150.68C130.167 146.947 124.414 144.737 118.4 144.34V118.09C124.414 118.487 130.167 120.697 134.9 124.43V150.68Z" fill="white"/>
<path d="M123 143.85L128.81 142.49C129.336 142.365 129.884 142.365 130.41 142.49L135.66 143.8C136.225 143.937 136.816 143.929 137.377 143.777C137.938 143.625 138.452 143.334 138.87 142.93L141.59 140.27C141.92 139.951 142.183 139.569 142.362 139.146C142.542 138.724 142.634 138.269 142.634 137.81C142.634 137.351 142.542 136.896 142.362 136.474C142.183 136.051 141.92 135.669 141.59 135.35L140.74 134.55C140.191 134.026 139.481 133.701 138.726 133.626C137.97 133.552 137.211 133.733 136.57 134.14C135.921 134.55 135.153 134.729 134.39 134.65H134.07C133.358 134.579 132.641 134.734 132.022 135.093C131.403 135.452 130.912 135.997 130.62 136.65L130.27 137.41L122.08 138.23L123 143.85Z" fill="#FFB573"/>
<path d="M121.07 136.81L127.12 136.1L128.04 143.89L122.18 144.88L121.07 136.81Z" fill="#263238"/>
<g opacity="0.7">
<path opacity="0.7" d="M121.07 136.81L127.12 136.1L128.04 143.89L122.18 144.88L121.07 136.81Z" fill="white"/>
</g>
<path d="M104.56 106.56C104.549 106.172 104.44 105.793 104.242 105.459C104.043 105.125 103.763 104.848 103.428 104.652C103.092 104.457 102.713 104.351 102.324 104.343C101.936 104.336 101.553 104.428 101.21 104.61C98.7769 105.9 96.6816 107.744 95.0937 109.994C93.5059 112.243 92.47 114.836 92.07 117.56C90.65 125.46 92.35 137.42 93.68 144.68C93.9917 146.359 94.9529 147.848 96.355 148.823C97.7571 149.799 99.4872 150.182 101.17 149.89L123.92 146L122.92 135.17L107.92 136.85C107.588 136.888 107.252 136.856 106.933 136.757C106.615 136.657 106.32 136.493 106.068 136.274C105.816 136.055 105.612 135.786 105.47 135.484C105.327 135.182 105.249 134.854 105.24 134.52L104.56 106.56Z" fill="#0EA5E9"/>
<path opacity="0.8" d="M104.56 106.56C104.549 106.172 104.44 105.793 104.242 105.459C104.043 105.125 103.763 104.848 103.428 104.652C103.092 104.457 102.713 104.351 102.324 104.343C101.936 104.336 101.553 104.428 101.21 104.61C98.7769 105.9 96.6816 107.744 95.0937 109.994C93.5059 112.243 92.47 114.836 92.07 117.56C90.65 125.46 92.35 137.42 93.68 144.68C93.9917 146.359 94.9529 147.848 96.355 148.823C97.7571 149.799 99.4872 150.182 101.17 149.89L123.92 146L122.92 135.17L107.92 136.85C107.588 136.888 107.252 136.856 106.933 136.757C106.615 136.657 106.32 136.493 106.068 136.274C105.816 136.055 105.612 135.786 105.47 135.484C105.327 135.182 105.249 134.854 105.24 134.52L104.56 106.56Z" fill="white"/>
</svg>
