<svg width="129" height="53" viewBox="0 0 129 53" fill="none" xmlns="http://www.w3.org/2000/svg">
<path d="M13.1676 8C13.1108 7.28977 12.8445 6.7358 12.3686 6.33807C11.8999 5.94034 11.1861 5.74148 10.2273 5.74148C9.61648 5.74148 9.11577 5.81605 8.72514 5.9652C8.34162 6.10724 8.05753 6.30256 7.87287 6.55114C7.68821 6.79972 7.59233 7.08381 7.58523 7.40341C7.57102 7.66619 7.61719 7.90412 7.72372 8.11719C7.83736 8.32315 8.01491 8.51136 8.25639 8.68182C8.49787 8.84517 8.80682 8.99432 9.18324 9.12926C9.55966 9.2642 10.0071 9.38494 10.5256 9.49148L12.3153 9.875C13.5227 10.1307 14.5561 10.468 15.4155 10.8871C16.2749 11.3061 16.978 11.7997 17.5249 12.3679C18.0717 12.929 18.473 13.5611 18.7287 14.2642C18.9915 14.9673 19.1264 15.7344 19.1335 16.5653C19.1264 18 18.7678 19.2145 18.0575 20.2088C17.3473 21.2031 16.3317 21.9595 15.0107 22.478C13.6967 22.9964 12.1165 23.2557 10.2699 23.2557C8.37358 23.2557 6.71875 22.9751 5.3054 22.4141C3.89915 21.853 2.8054 20.9901 2.02415 19.8253C1.25 18.6534 0.859375 17.1548 0.852273 15.3295H6.47727C6.51278 15.9972 6.67969 16.5582 6.97798 17.0128C7.27628 17.4673 7.69531 17.8118 8.23509 18.0462C8.78196 18.2805 9.43182 18.3977 10.1847 18.3977C10.8168 18.3977 11.3459 18.3196 11.772 18.1634C12.1982 18.0071 12.5213 17.7905 12.7415 17.5135C12.9616 17.2365 13.0753 16.9205 13.0824 16.5653C13.0753 16.2315 12.9652 15.9403 12.7521 15.6918C12.5462 15.4361 12.2053 15.2088 11.7294 15.0099C11.2536 14.804 10.6108 14.6122 9.80114 14.4347L7.62784 13.9659C5.69602 13.5469 4.17259 12.8473 3.05753 11.8672C1.94957 10.88 1.39915 9.53409 1.40625 7.82955C1.39915 6.4446 1.76847 5.23366 2.5142 4.19673C3.26705 3.1527 4.30753 2.33949 5.63565 1.7571C6.97088 1.17472 8.50142 0.883522 10.2273 0.883522C11.9886 0.883522 13.5121 1.17827 14.7976 1.76776C16.0831 2.35724 17.0739 3.18821 17.7699 4.26065C18.473 5.32599 18.8281 6.57244 18.8352 8H13.1676ZM31.2305 6.63636V10.8977H20.4492V6.63636H31.2305ZM22.5373 2.71591H28.418V17.7372C28.418 17.9645 28.457 18.1562 28.5352 18.3125C28.6133 18.4616 28.734 18.5753 28.8974 18.6534C29.0607 18.7244 29.2702 18.7599 29.5259 18.7599C29.7035 18.7599 29.9094 18.7386 30.1438 18.696C30.3853 18.6534 30.5629 18.6179 30.6765 18.5895L31.5288 22.723C31.266 22.8011 30.8896 22.897 30.3995 23.0107C29.9165 23.1243 29.3413 23.1989 28.6737 23.2344C27.3242 23.3054 26.1914 23.1669 25.2752 22.8189C24.359 22.4638 23.6701 21.9062 23.2085 21.1463C22.7468 20.3864 22.5231 19.4347 22.5373 18.2912V2.71591ZM44.2409 15.8409V6.63636H50.1216V23H44.5392V19.8892H44.3688C44.0137 20.9332 43.3922 21.75 42.5044 22.3395C41.6167 22.9219 40.562 23.2131 39.3404 23.2131C38.1969 23.2131 37.1955 22.9503 36.3361 22.4247C35.4838 21.8991 34.8198 21.1747 34.3439 20.2514C33.8752 19.3281 33.6373 18.2699 33.6301 17.0767V6.63636H39.5108V15.8409C39.5179 16.6506 39.7239 17.2862 40.1287 17.7479C40.5407 18.2095 41.1159 18.4403 41.8546 18.4403C42.3446 18.4403 42.7672 18.3374 43.1223 18.1314C43.4846 17.9183 43.7615 17.62 43.9533 17.2365C44.1522 16.8459 44.248 16.3807 44.2409 15.8409ZM59.0359 23.2131C57.8711 23.2131 56.7987 22.9077 55.8185 22.2969C54.8455 21.6861 54.0643 20.7592 53.4748 19.5163C52.8924 18.2734 52.6012 16.7074 52.6012 14.8182C52.6012 12.8437 52.9066 11.2386 53.5174 10.0028C54.1353 8.76704 54.9308 7.86151 55.9038 7.28622C56.8839 6.71094 57.9137 6.4233 58.9933 6.4233C59.8029 6.4233 60.5131 6.56534 61.1239 6.84943C61.7347 7.12642 62.2461 7.49929 62.658 7.96804C63.07 8.42969 63.3825 8.9375 63.5955 9.49148H63.6808V1.18182H69.5614V23H63.7234V20.3153H63.5955C63.3683 20.8693 63.0415 21.3665 62.6154 21.8068C62.1964 22.2401 61.685 22.5845 61.0813 22.8402C60.4847 23.0888 59.8029 23.2131 59.0359 23.2131ZM61.2092 18.696C61.7489 18.696 62.2106 18.5398 62.5941 18.2273C62.9847 17.9077 63.283 17.4602 63.489 16.8849C63.7021 16.3026 63.8086 15.6136 63.8086 14.8182C63.8086 14.0085 63.7021 13.3161 63.489 12.7408C63.283 12.1584 62.9847 11.7145 62.5941 11.4091C62.2106 11.0966 61.7489 10.9403 61.2092 10.9403C60.6694 10.9403 60.2077 11.0966 59.8242 11.4091C59.4478 11.7145 59.1566 12.1584 58.9506 12.7408C58.7518 13.3161 58.6523 14.0085 58.6523 14.8182C58.6523 15.6278 58.7518 16.3239 58.9506 16.9062C59.1566 17.4815 59.4478 17.9254 59.8242 18.2379C60.2077 18.5433 60.6694 18.696 61.2092 18.696ZM80.2894 23.2983C78.5423 23.2983 77.0366 22.9645 75.7724 22.2969C74.5153 21.6222 73.5458 20.6562 72.864 19.3991C72.1893 18.1349 71.8519 16.6222 71.8519 14.8608C71.8519 13.1705 72.1928 11.6932 72.8746 10.429C73.5565 9.16477 74.5188 8.18111 75.7617 7.47798C77.0046 6.77486 78.4712 6.4233 80.1616 6.4233C81.3974 6.4233 82.516 6.61506 83.5174 6.99858C84.5188 7.3821 85.3746 7.93963 86.0849 8.67116C86.7951 9.3956 87.342 10.2763 87.7255 11.3132C88.109 12.3501 88.3008 13.5185 88.3008 14.8182V16.1818H73.6843V12.9432H82.8888C82.8817 12.4744 82.761 12.0625 82.5266 11.7074C82.2994 11.3452 81.9904 11.0646 81.5998 10.8658C81.2163 10.6598 80.7795 10.5568 80.2894 10.5568C79.8136 10.5568 79.3768 10.6598 78.979 10.8658C78.5813 11.0646 78.2617 11.3416 78.0202 11.6967C77.7859 12.0518 77.6616 12.4673 77.6474 12.9432V16.4375C77.6474 16.9631 77.7575 17.4318 77.9776 17.8438C78.1978 18.2557 78.5138 18.5788 78.9258 18.8132C79.3377 19.0476 79.8349 19.1648 80.4173 19.1648C80.8221 19.1648 81.1914 19.108 81.5252 18.9943C81.8661 18.8807 82.1573 18.7173 82.3988 18.5043C82.6403 18.2841 82.8178 18.0213 82.9315 17.7159H88.3008C88.1161 18.8523 87.6793 19.8395 86.9904 20.6776C86.3015 21.5085 85.3888 22.1548 84.2525 22.6165C83.1232 23.071 81.8022 23.2983 80.2894 23.2983ZM96.5811 13.7955V23H90.7005V6.63636H96.2828V9.74716H96.4533C96.8084 8.71023 97.4334 7.89702 98.3283 7.30753C99.2303 6.71804 100.281 6.4233 101.482 6.4233C102.639 6.4233 103.644 6.68963 104.497 7.2223C105.356 7.74787 106.02 8.4723 106.489 9.3956C106.965 10.3189 107.199 11.3736 107.192 12.5597V23H101.311V13.7955C101.318 12.9858 101.112 12.3501 100.693 11.8885C100.281 11.4268 99.7061 11.196 98.9675 11.196C98.4846 11.196 98.062 11.3026 97.6998 11.5156C97.3446 11.7216 97.0712 12.0199 96.8794 12.4105C96.6877 12.794 96.5882 13.2557 96.5811 13.7955ZM119.854 6.63636V10.8977H109.072V6.63636H119.854ZM111.16 2.71591H117.041V17.7372C117.041 17.9645 117.08 18.1562 117.158 18.3125C117.236 18.4616 117.357 18.5753 117.52 18.6534C117.684 18.7244 117.893 18.7599 118.149 18.7599C118.327 18.7599 118.532 18.7386 118.767 18.696C119.008 18.6534 119.186 18.6179 119.3 18.5895L120.152 22.723C119.889 22.8011 119.513 22.897 119.023 23.0107C118.54 23.1243 117.964 23.1989 117.297 23.2344C115.947 23.3054 114.814 23.1669 113.898 22.8189C112.982 22.4638 112.293 21.9062 111.831 21.1463C111.37 20.3864 111.146 19.4347 111.16 18.2912V2.71591Z" fill="#27272A"/>
<path d="M21.7756 38.3636H15.767C15.7244 37.8665 15.6108 37.4155 15.4261 37.0107C15.2486 36.6058 15 36.2578 14.6804 35.9666C14.3679 35.6683 13.9879 35.4411 13.5405 35.2848C13.093 35.1214 12.5852 35.0398 12.017 35.0398C11.0227 35.0398 10.1811 35.2812 9.49219 35.7642C8.81037 36.2472 8.2919 36.9396 7.93679 37.8416C7.58878 38.7436 7.41477 39.8267 7.41477 41.0909C7.41477 42.4261 7.59233 43.5447 7.94744 44.4467C8.30966 45.3416 8.83168 46.0163 9.51349 46.4709C10.1953 46.9183 11.0156 47.142 11.9744 47.142C12.5213 47.142 13.0114 47.0746 13.4446 46.9396C13.8778 46.7976 14.2543 46.5952 14.5739 46.3324C14.8935 46.0696 15.1527 45.7536 15.3516 45.3842C15.5575 45.0078 15.696 44.5852 15.767 44.1165L21.7756 44.1591C21.7045 45.0824 21.4453 46.0234 20.9979 46.9822C20.5504 47.9339 19.9148 48.8146 19.0909 49.6243C18.2741 50.4268 17.2621 51.0732 16.0547 51.5632C14.8473 52.0533 13.4446 52.2983 11.8466 52.2983C9.84375 52.2983 8.04688 51.8686 6.45597 51.0092C4.87216 50.1499 3.61861 48.8857 2.69531 47.2166C1.77912 45.5476 1.32102 43.5057 1.32102 41.0909C1.32102 38.6619 1.78977 36.6165 2.72727 34.9545C3.66477 33.2855 4.92898 32.0249 6.51989 31.1726C8.1108 30.3132 9.88636 29.8835 11.8466 29.8835C13.2244 29.8835 14.4922 30.0717 15.6499 30.4482C16.8075 30.8246 17.8232 31.375 18.6967 32.0994C19.5703 32.8168 20.2734 33.701 20.8061 34.7521C21.3388 35.8033 21.6619 37.0071 21.7756 38.3636ZM32.4316 52.2983C30.6561 52.2983 29.1362 51.9467 27.872 51.2436C26.6078 50.5334 25.6383 49.5462 24.9636 48.282C24.2889 47.0107 23.9515 45.5369 23.9515 43.8608C23.9515 42.1847 24.2889 40.7145 24.9636 39.4503C25.6383 38.179 26.6078 37.1918 27.872 36.4886C29.1362 35.7784 30.6561 35.4233 32.4316 35.4233C34.2072 35.4233 35.7271 35.7784 36.9913 36.4886C38.2555 37.1918 39.225 38.179 39.8997 39.4503C40.5744 40.7145 40.9118 42.1847 40.9118 43.8608C40.9118 45.5369 40.5744 47.0107 39.8997 48.282C39.225 49.5462 38.2555 50.5334 36.9913 51.2436C35.7271 51.9467 34.2072 52.2983 32.4316 52.2983ZM32.4743 47.9517C32.9714 47.9517 33.4011 47.7848 33.7633 47.451C34.1255 47.1172 34.4061 46.6413 34.6049 46.0234C34.8038 45.4055 34.9032 44.6705 34.9032 43.8182C34.9032 42.9588 34.8038 42.2237 34.6049 41.6129C34.4061 40.995 34.1255 40.5192 33.7633 40.1854C33.4011 39.8516 32.9714 39.6847 32.4743 39.6847C31.9487 39.6847 31.4977 39.8516 31.1213 40.1854C30.7449 40.5192 30.4572 40.995 30.2583 41.6129C30.0595 42.2237 29.96 42.9588 29.96 43.8182C29.96 44.6705 30.0595 45.4055 30.2583 46.0234C30.4572 46.6413 30.7449 47.1172 31.1213 47.451C31.4977 47.7848 31.9487 47.9517 32.4743 47.9517ZM49.1788 42.7955V52H43.2981V35.6364H48.8805V38.7472H49.051C49.4061 37.7102 50.0311 36.897 50.926 36.3075C51.8279 35.718 52.8791 35.4233 54.0794 35.4233C55.237 35.4233 56.242 35.6896 57.0943 36.2223C57.9537 36.7479 58.6177 37.4723 59.0865 38.3956C59.5623 39.3189 59.7967 40.3736 59.7896 41.5597V52H53.9089V42.7955C53.916 41.9858 53.71 41.3501 53.291 40.8885C52.8791 40.4268 52.3038 40.196 51.5652 40.196C51.0822 40.196 50.6596 40.3026 50.2974 40.5156C49.9423 40.7216 49.6689 41.0199 49.4771 41.4105C49.2853 41.794 49.1859 42.2557 49.1788 42.7955ZM68.5733 42.7955V52H62.6926V35.6364H68.275V38.7472H68.4455C68.8006 37.7102 69.4256 36.897 70.3205 36.3075C71.2225 35.718 72.2736 35.4233 73.4739 35.4233C74.6316 35.4233 75.6365 35.6896 76.4888 36.2223C77.3482 36.7479 78.0123 37.4723 78.481 38.3956C78.9569 39.3189 79.1912 40.3736 79.1841 41.5597V52H73.3034V42.7955C73.3105 41.9858 73.1046 41.3501 72.6855 40.8885C72.2736 40.4268 71.6983 40.196 70.9597 40.196C70.4767 40.196 70.0542 40.3026 69.6919 40.5156C69.3368 40.7216 69.0634 41.0199 68.8716 41.4105C68.6799 41.794 68.5804 42.2557 68.5733 42.7955ZM89.9281 52.2983C88.1809 52.2983 86.6752 51.9645 85.411 51.2969C84.1539 50.6222 83.1845 49.6562 82.5027 48.3991C81.8279 47.1349 81.4906 45.6222 81.4906 43.8608C81.4906 42.1705 81.8315 40.6932 82.5133 39.429C83.1951 38.1648 84.1575 37.1811 85.4004 36.478C86.6433 35.7749 88.1099 35.4233 89.8002 35.4233C91.036 35.4233 92.1547 35.6151 93.1561 35.9986C94.1575 36.3821 95.0133 36.9396 95.7235 37.6712C96.4338 38.3956 96.9806 39.2763 97.3642 40.3132C97.7477 41.3501 97.9395 42.5185 97.9395 43.8182V45.1818H83.323V41.9432H92.5275C92.5204 41.4744 92.3997 41.0625 92.1653 40.7074C91.938 40.3452 91.6291 40.0646 91.2385 39.8658C90.8549 39.6598 90.4181 39.5568 89.9281 39.5568C89.4522 39.5568 89.0154 39.6598 88.6177 39.8658C88.22 40.0646 87.9004 40.3416 87.6589 40.6967C87.4245 41.0518 87.3002 41.4673 87.286 41.9432V45.4375C87.286 45.9631 87.3961 46.4318 87.6163 46.8438C87.8365 47.2557 88.1525 47.5788 88.5645 47.8132C88.9764 48.0476 89.4735 48.1648 90.0559 48.1648C90.4608 48.1648 90.8301 48.108 91.1639 47.9943C91.5048 47.8807 91.796 47.7173 92.0375 47.5043C92.2789 47.2841 92.4565 47.0213 92.5701 46.7159H97.9395C97.7548 47.8523 97.318 48.8395 96.6291 49.6776C95.9402 50.5085 95.0275 51.1548 93.8912 51.6165C92.7619 52.071 91.4409 52.2983 89.9281 52.2983ZM108.223 52.2983C106.447 52.2983 104.927 51.9467 103.663 51.2436C102.399 50.5334 101.429 49.5462 100.755 48.282C100.08 47.0107 99.7425 45.5369 99.7425 43.8608C99.7425 42.1847 100.08 40.7145 100.755 39.4503C101.429 38.179 102.399 37.1918 103.663 36.4886C104.927 35.7784 106.447 35.4233 108.223 35.4233C109.828 35.4233 111.216 35.7145 112.388 36.2969C113.567 36.8722 114.48 37.6889 115.126 38.7472C115.772 39.7983 116.099 41.0341 116.106 42.4545H110.652C110.574 41.5952 110.325 40.9418 109.906 40.4943C109.494 40.0398 108.961 39.8125 108.308 39.8125C107.797 39.8125 107.349 39.9616 106.966 40.2599C106.582 40.5511 106.284 40.995 106.071 41.5916C105.858 42.1811 105.751 42.9233 105.751 43.8182C105.751 44.7131 105.858 45.4588 106.071 46.0554C106.284 46.6449 106.582 47.0888 106.966 47.3871C107.349 47.6783 107.797 47.8239 108.308 47.8239C108.741 47.8239 109.125 47.7244 109.458 47.5256C109.792 47.3196 110.062 47.0213 110.268 46.6307C110.481 46.233 110.609 45.75 110.652 45.1818H116.106C116.085 46.6236 115.755 47.8807 115.115 48.9531C114.476 50.0185 113.571 50.8423 112.399 51.4247C111.234 52.0071 109.842 52.2983 108.223 52.2983ZM128.291 35.6364V39.8977H117.51V35.6364H128.291ZM119.598 31.7159H125.479V46.7372C125.479 46.9645 125.518 47.1562 125.596 47.3125C125.674 47.4616 125.795 47.5753 125.958 47.6534C126.121 47.7244 126.331 47.7599 126.586 47.7599C126.764 47.7599 126.97 47.7386 127.204 47.696C127.446 47.6534 127.623 47.6179 127.737 47.5895L128.589 51.723C128.327 51.8011 127.95 51.897 127.46 52.0107C126.977 52.1243 126.402 52.1989 125.734 52.2344C124.385 52.3054 123.252 52.1669 122.336 51.8189C121.42 51.4638 120.731 50.9062 120.269 50.1463C119.807 49.3864 119.584 48.4347 119.598 47.2912V31.7159Z" fill="#7C3AED"/>
</svg>
